<?xml version="1.0" encoding="UTF-8" standalone="no"?>
<!-- Created with Inkscape (http://www.inkscape.org/) -->

<svg
   xmlns:dc="http://purl.org/dc/elements/1.1/"
   xmlns:cc="http://creativecommons.org/ns#"
   xmlns:rdf="http://www.w3.org/1999/02/22-rdf-syntax-ns#"
   xmlns:svg="http://www.w3.org/2000/svg"
   xmlns="http://www.w3.org/2000/svg"
   xmlns:sodipodi="http://sodipodi.sourceforge.net/DTD/sodipodi-0.dtd"
   xmlns:inkscape="http://www.inkscape.org/namespaces/inkscape"
   width="99mm"
   height="148mm"
   viewBox="0 0 99 148"
   version="1.1"
   id="svg8"
   sodipodi:docname="icon5.svg"
   inkscape:version="0.92.2 (5c3e80d, 2017-08-06)">
  <defs
     id="defs2">
    <inkscape:perspective
       sodipodi:type="inkscape:persp3d"
       inkscape:vp_x="0 : 74 : 1"
       inkscape:vp_y="0 : 1000 : 0"
       inkscape:vp_z="99 : 74 : 1"
       inkscape:persp3d-origin="49.5 : 49.333333 : 1"
       id="perspective88" />
  </defs>
  <sodipodi:namedview
     id="base"
     pagecolor="#ffffff"
     bordercolor="#666666"
     borderopacity="1.0"
     inkscape:pageopacity="0.0"
     inkscape:pageshadow="2"
     inkscape:zoom="1.4142136"
     inkscape:cx="222.77025"
     inkscape:cy="279.68504"
     inkscape:document-units="mm"
     inkscape:current-layer="svg8"
     showgrid="false"
     inkscape:snap-center="true"
     inkscape:window-width="806"
     inkscape:window-height="736"
     inkscape:window-x="953"
     inkscape:window-y="90"
     inkscape:window-maximized="0"
     showguides="false"
     inkscape:measure-start="0,0"
     inkscape:measure-end="0,0" />
  <metadata
     id="metadata5">
    <rdf:RDF>
      <cc:Work
         rdf:about="">
        <dc:format>image/svg+xml</dc:format>
        <dc:type
           rdf:resource="http://purl.org/dc/dcmitype/StillImage" />
        <dc:title></dc:title>
      </cc:Work>
    </rdf:RDF>
  </metadata>
  <path
     id="path86"
     transform="scale(0.26458333)"
     style="fill:none;stroke-width:0.99999994"
     d="m 47.273438,165.99219 -16.763672,11.37304 c 3.961041,1.34165 5.840848,1.94812 10.033203,3.53711 11.164962,4.23176 5.617173,2.47718 18.486328,6.89844 12.820467,4.40454 13.874597,4.54366 27.492187,8.56836 33.025746,8.81033 67.004676,13.36947 101.044926,15.88281 7.18103,0.53021 14.37619,0.84077 21.56445,1.26172 19.23786,0.73699 38.51063,0.23636 57.56836,-2.64648 14.15096,-2.14059 27.76006,-5.6852 41.4375,-9.76758 8.13214,-2.6646 16.00517,-5.99886 23.83008,-9.4375 l 15.31054,-12.14258 c -7.98718,3.67382 -16.02575,7.24152 -24.33789,10.13672 -3.96936,1.25871 -7.89895,2.65019 -11.9082,3.77539 -28.36607,7.96094 -57.66294,11.2359 -87.10156,10.01758 -0.37818,0.36831 -0.74856,0.74216 -1.09766,1.13867 -0.21747,0.20153 -0.21365,0.21596 -0.46875,0.38086 -0.0325,0.0208 -0.0731,0.0277 -0.10547,0.0488 -0.19023,0.12387 -0.37884,0.30123 -0.59765,0.38281 -0.10082,0.0673 -0.21098,0.12396 -0.28711,0.2168 -0.0227,0.028 0.10967,-0.0775 0.0996,-0.043 -0.0291,0.10084 -0.11008,0.18071 -0.16602,0.26953 -0.0455,0.0723 -0.0774,0.15532 -0.13867,0.21484 -0.0785,0.0762 -0.17077,0.1371 -0.25977,0.20118 -0.006,0.009 -0.009,0.0158 -0.0156,0.0254 -0.28989,0.45752 -0.39242,0.83388 -1,1.01367 -0.13659,0.0404 -0.2836,0.0186 -0.42578,0.0273 -0.30629,-0.0455 -0.58651,-0.12433 -0.77539,-0.30859 -0.0779,0.11555 -0.44919,0.66838 -0.44336,0.68164 0.0102,0.0231 0.0377,-0.0322 0.0566,-0.0488 -0.0174,0.0824 -0.0335,0.16374 -0.0508,0.24609 -0.0654,0.13021 -0.2634,0.50301 -0.32618,0.68946 -0.0374,0.11066 -0.0469,0.22875 -0.0762,0.34179 -0.008,0.0321 -0.016,0.12695 -0.0273,0.0957 -0.0729,-0.19869 -0.10934,-0.40883 -0.16406,-0.61328 -0.0882,-0.0399 -0.1755,-0.0792 -0.26368,-0.11914 -1.1273,-0.51034 1.11688,1.61008 -0.0664,1.24804 -0.13943,-0.0427 -0.27854,-0.0862 -0.41797,-0.1289 -0.098,-0.23687 -0.21174,-0.46654 -0.29492,-0.70899 -0.009,-0.0268 0.0143,-0.0547 0.0215,-0.082 0.0174,-0.0667 0.0349,-0.13458 0.0527,-0.20117 0.0732,-0.27383 0.13183,-0.59069 0.34375,-0.79688 0.0472,-0.17779 0.064,-0.36362 0.125,-0.53711 0.0998,-0.28357 0.10053,-0.14271 0.21093,-0.31445 0.41381,-0.64392 -0.14002,0.1432 0.26953,-0.42773 0.32486,-0.46431 -0.29472,0.44642 0.27735,-0.60352 0.0652,-0.11958 0.16666,-0.2165 0.25,-0.32422 0.031,-0.0163 0.0696,-0.0235 0.0937,-0.0488 0.0489,-0.0513 0.0809,-0.11738 0.12109,-0.17578 0.0155,-0.0151 0.0313,-0.0295 0.0469,-0.0449 0.0708,-0.1415 0.12532,-0.29081 0.21093,-0.42383 0.0461,-0.0715 0.12013,-0.12282 0.17969,-0.18359 0.26967,-0.275 0.53703,-0.55184 0.82617,-0.80664 0.16075,-0.14085 0.28064,-0.29801 0.41016,-0.46094 -6.16224,-0.30791 -12.32632,-0.57234 -18.48047,-1.00976 -33.72054,-2.39677 -67.36441,-7.09593 -99.97656,-16.17969 -12.534634,-3.89991 -15.047884,-4.49696 -26.882813,-8.8418 -10.74234,-3.94374 -8.400993,-3.28 -17.869141,-7.29101 -3.179833,-1.34707 -6.408511,-2.5738 -9.574218,-3.95508 z m 172.121092,40.01953 c -0.0247,-0.0175 0.0192,0.16294 0.0625,0.18164 0.006,-0.0166 0.0227,-0.0541 0.0391,-0.0879 -0.0332,-0.0328 -0.064,-0.0671 -0.10156,-0.0937 z m 0.10156,0.0937 c 10e-4,0.001 0.003,7e-4 0.004,0.002 0.003,-0.015 0.007,-0.0108 0.01,-0.0312 -0.003,0.005 -0.008,0.0179 -0.0137,0.0293 z m 0.004,0.002 c -0.008,0.0423 -0.0169,0.0798 -0.0273,0.0879 0.0211,-0.0143 0.04,-0.0384 0.0586,-0.0605 -0.01,-0.01 -0.0214,-0.0172 -0.0312,-0.0274 z m -0.043,0.0859 c -0.001,0.003 -0.008,0.0175 -0.008,0.0176 0.007,0.002 0.0115,-0.007 0.0176,-0.01 -0.003,5.4e-4 -0.007,-0.006 -0.01,-0.008 z" />
  <path
     id="path4265"
     style="fill:#000000;stroke-width:0.26458332"
     d="m 39.633757,37.918614 c -0.603308,0.0034 -1.206531,0.01781 -1.808675,0.05478 -2.038305,0.185007 -2.175082,0.638395 -4.754751,2.174028 -0.454803,0.270738 -0.389789,0.817113 -0.219106,1.219047 1.003757,1.325356 2.433021,2.153303 3.688146,3.217891 0.749845,0.750443 1.413234,1.593649 1.608687,2.620513 -0.06296,0.776743 -0.161991,1.549913 -0.34468,2.309937 -0.303797,1.28203 -0.839036,2.617171 -0.04909,3.827155 0.931217,0.898383 2.112862,1.387867 3.371371,1.657263 1.174139,0.06897 2.341391,0.196284 3.509862,0.328147 1.167697,0.0024 2.335448,-7.9e-5 3.503147,0 1.168543,0.0024 2.337186,7.94e-4 3.505729,0.0047 1.174906,0.0069 2.349431,0.01376 3.524332,0.02066 1.150252,0.0028 2.314514,0.02164 3.447336,-0.205672 1.826114,-0.494368 0.820647,-0.173082 4.172355,-2.280999 0.257254,-0.16179 0.510497,-0.586989 0.619082,-0.855244 0.203526,-0.50269 0.17077,-0.650759 0.209291,-1.189075 -0.110945,-1.274392 -0.524251,-2.461271 -1.163238,-3.57084 -0.575712,-1.070296 -1.365814,-2.10778 -0.875914,-3.366204 0.105897,-0.213024 0.224629,-0.414616 0.348298,-0.611849 0.0093,-0.0413 0.0149,-0.0836 0.02894,-0.123508 0.0264,-0.07503 0.0266,-0.03776 0.05581,-0.0832 0.109487,-0.17037 -0.03704,0.03789 0.07131,-0.11317 0.08595,-0.122849 -0.07798,0.118115 0.07338,-0.159681 0.01725,-0.03164 0.04409,-0.05728 0.06615,-0.08578 0.0082,-0.0043 0.01841,-0.0062 0.02479,-0.01291 0.01294,-0.01357 0.02141,-0.03106 0.03204,-0.04651 0.0041,-0.004 0.0083,-0.0078 0.01241,-0.01188 0.01873,-0.03744 0.03316,-0.07694 0.05581,-0.112138 0.0122,-0.01892 0.03178,-0.0325 0.04754,-0.04857 0.07135,-0.07276 0.142089,-0.146007 0.218591,-0.213423 0.05324,-0.04665 0.08803,-0.09955 0.134361,-0.154514 0.132924,-0.157687 0.13136,-0.148066 0.289903,-0.304374 0.02268,-0.02236 0.0447,-0.0364 0.06666,-0.04961 0.385948,-0.426175 0.791872,-0.839253 1.193726,-1.26452 0.880737,-1.223444 0.915922,-2.002248 -0.669208,-2.487187 -1.166206,-0.11644 -2.340647,-0.03641 -3.511415,-0.0584 -1.167606,-0.0024 -2.335535,-4.7e-5 -3.503144,0 -1.166304,-0.0024 -2.332707,-8.7e-5 -3.499011,0 -1.171464,-0.0021 -2.342536,-2.33e-4 -3.513998,0.0011 -1.275686,-0.0011 -2.551475,0.0043 -3.827158,0.0067 -1.443281,-0.0011 -2.886763,-0.0048 -4.329967,-0.02066 -0.602943,-0.0076 -1.206421,-0.01532 -1.809708,-0.01188 z m -3.036509,0.817523 c -0.170677,0.103328 -0.343704,0.203155 -0.515731,0.304374 0.110263,-0.151196 0.397261,-0.249431 0.515731,-0.304374 z m 1.824178,1.386994 c 1.448374,0.0032 2.897095,0.0072 4.345472,0.01138 1.267957,0.0064 2.535949,0.01217 3.803901,0.01138 1.170466,0.0013 2.340951,0.0033 3.511415,0.0011 1.166363,3.4e-5 2.332649,0.0019 3.499011,-5.29e-4 1.167628,3.4e-5 2.335004,0.0024 3.502629,0 1.165084,0.01421 2.331227,-0.03168 3.494875,0.03462 1.442249,0.292526 1.032481,0.934143 0.284221,1.776637 -1.139089,1.147913 -2.006057,1.97911 -2.68614,3.474207 -0.438065,1.387676 0.422257,2.504582 1.037146,3.67471 0.607822,1.06534 1.021646,2.211105 1.070737,3.440099 -0.0075,0.183201 -0.03228,0.362974 -0.07493,0.536919 -0.666946,0.06155 -1.341792,0.05991 -2.009696,0.06563 -1.17421,-0.0021 -2.348576,-0.01582 -3.522781,-0.01913 -1.16872,-0.0049 -2.337514,-0.0076 -3.506248,-0.0057 -1.167715,-2.64e-4 -2.335427,-0.0024 -3.503144,0 -1.167929,-0.07884 -2.327915,-0.233653 -3.496426,-0.309544 -1.192663,-0.183496 -2.337769,-0.614256 -3.227711,-1.439187 -0.08646,-0.162767 -0.205147,-0.312209 -0.259416,-0.488342 -0.230169,-0.747106 0.303118,-2.225855 0.488342,-2.990516 0.12519,-0.541309 0.207576,-1.088621 0.26665,-1.63866 l 0.03359,-0.01704 c 2.65e-4,-0.01601 7.94e-4,-0.03204 0.0011,-0.04806 -0.0028,-0.004 -0.0067,-0.0077 -0.0088,-0.01188 -0.01529,-0.03186 -0.01093,-0.06615 -0.01138,-0.09974 -2e-6,-0.03983 -2.4e-5,-0.08005 0,-0.11989 8e-6,-0.01397 -8e-6,-0.02791 0,-0.04186 -0.0035,-0.01439 -0.0057,-0.01402 -0.01035,-0.03824 -0.0052,-0.02702 0.0013,-0.03795 0.01035,-0.0553 -0.01474,-0.01807 -0.03068,-0.03521 -0.04134,-0.05581 -0.01328,-0.02567 -0.01545,-0.05572 -0.02016,-0.08423 -0.0254,-0.153924 -0.0181,-0.161772 -0.0181,-0.328147 0,-0.02246 0.0052,-0.03929 0.0083,-0.05839 -0.008,-0.02392 -0.0164,-0.05076 -0.02119,-0.06718 2.59e-4,-0.0034 0.0013,-0.0069 0.0011,-0.01034 -5.29e-4,-0.005 -0.0049,-0.0108 -0.0021,-0.01498 -0.01302,-0.01736 -0.03939,-0.04392 -0.04651,-0.06304 -0.0065,-0.01746 -0.01,-0.03567 -0.01394,-0.05374 -7.94e-4,-0.0019 -0.0011,-0.0021 -0.0021,-0.0041 -7.94e-4,-0.0019 -1.3e-4,-0.0042 -5.3e-4,-0.0062 -3.4e-5,-1.64e-4 3.5e-5,-2.65e-4 0,-5.29e-4 -1.05e-4,-2.65e-4 -5.29e-4,-7.94e-4 -5.29e-4,-0.0011 -0.0042,-0.01413 -0.0095,-0.02788 -0.0155,-0.04134 -0.0066,-0.01053 -0.01344,-0.02093 -0.01913,-0.03204 -0.0069,-0.0136 -0.0072,-0.03018 -0.01654,-0.04289 -0.0068,-0.01516 -0.02133,-0.04401 -0.02582,-0.06925 -0.01283,-0.01064 -0.02669,-0.02029 -0.03514,-0.03514 -0.0286,-0.06216 -0.04011,-0.07172 -0.03669,-0.115755 -0.01519,-0.01103 -0.02453,-0.01683 -0.05839,-0.05064 -0.0035,-0.0035 -0.0034,-0.0091 -0.0047,-0.01394 -0.0026,-0.01074 -0.0048,-0.02167 -0.0067,-0.03256 -0.01241,-0.07141 -0.01,-0.0657 -0.0155,-0.14366 -7.93e-4,-0.01093 0.0013,-0.01945 0.0021,-0.02894 1.03e-4,-0.0042 2.65e-4,-0.0083 5.29e-4,-0.01241 -0.04207,-0.04542 -0.07462,-0.0992 -0.115755,-0.145212 -0.04405,-0.04927 -0.05302,-0.09592 -0.04289,-0.131775 -0.335378,-0.546606 -0.750748,-1.050865 -1.210779,-1.528588 -1.001495,-0.886217 -2.190916,-1.555031 -3.092833,-2.528528 0.606163,-0.0083 1.212791,-0.0013 1.818491,-0.0026 z m 3.153296,4.12533 -0.0057,0.0026 c 0.0021,5.29e-4 0.003,0.0021 0.0052,0.0026 6.9e-5,-0.0019 5.29e-4,-0.0034 5.29e-4,-0.0052 z m -0.510045,0.194821 c 8.5e-5,0.0071 -7.94e-4,0.0097 -5.29e-4,0.01447 3.9e-5,5.29e-4 7.94e-4,5.29e-4 0.0011,0.0011 1.75e-4,-0.0047 2.65e-4,-0.0093 5.29e-4,-0.01394 -2.64e-4,-5.29e-4 -7.93e-4,-0.0011 -0.0011,-0.0016 z m 0.09198,0.305924 c 0.0049,0.0081 0.01008,0.01908 0.01394,0.01601 0.0011,-7.93e-4 -2.51e-4,-0.0027 -5.29e-4,-0.0041 -0.0051,-0.0035 -0.0095,-0.0092 -0.01344,-0.01188 z"
     inkscape:connector-curvature="0" />
  <path
     id="path4283"
     style="fill:#000000;stroke-width:0.26458332"
     d="m 41.051757,41.820187 -3.075781,2.234488 c 1.912377,-0.04732 3.82361,0.128947 5.732468,0.23151 1.467858,0.08396 2.937954,0.12336 4.407998,0.137459 1.187945,0.05637 2.365293,-0.01873 3.544488,-0.152961 1.43351,-0.165751 2.876693,-0.200218 4.318082,-0.225827 1.274892,-0.0149 2.549633,-0.0088 3.824573,-0.0093 0.784362,0.0028 0.388408,0.01349 1.18804,-0.03307 l 0.891934,-0.658874 c 0.01032,-0.01897 0.02254,-0.03692 0.03824,-0.05219 0.01249,-0.04704 0.01693,-0.09621 0.03307,-0.14211 0.0264,-0.07503 0.0266,-0.03776 0.05581,-0.0832 0.109487,-0.170371 -0.03705,0.03789 0.07131,-0.113171 0.08595,-0.122848 -0.07798,0.118116 0.07338,-0.159681 0.01725,-0.03164 0.04409,-0.05728 0.06615,-0.08578 0.0082,-0.0043 0.01841,-0.0062 0.02479,-0.01291 0.01294,-0.01357 0.02141,-0.03106 0.03204,-0.04651 0.0041,-0.004 0.0083,-0.0078 0.01241,-0.01188 0.01873,-0.03744 0.03316,-0.07694 0.05581,-0.112138 0.0122,-0.01892 0.03178,-0.0325 0.04754,-0.04857 0.07135,-0.07276 0.142089,-0.146008 0.218591,-0.213424 0.05324,-0.04665 0.08803,-0.09955 0.134361,-0.154514 0.119226,-0.141436 0.142449,-0.160665 0.257865,-0.273367 -0.0716,-2.65e-4 -0.05716,1.85e-4 -0.171566,5.29e-4 -1.284465,-0.0016 -2.569181,0.0019 -3.853511,0.0217 -1.438291,0.02318 -2.87773,0.05043 -4.311367,0.177249 -1.174525,0.129305 -2.341015,0.265076 -3.526398,0.195337 -1.489581,-0.0067 -2.979309,-0.0158 -4.467945,-0.07545 -1.876306,-0.08078 -3.748598,-0.221689 -5.622396,-0.333311 z"
     inkscape:connector-curvature="0" />
  <path
     id="path4285"
     style="fill:#000000;stroke-width:0.26458332"
     d="m 60.469176,44.436048 c -0.199522,0.07119 -0.398888,0.142232 -0.598413,0.213423 -1.313818,0.45339 -2.600868,0.972796 -3.902604,1.458825 -1.498193,0.59702 -2.968062,1.354286 -4.616773,1.391645 -1.527384,0.143113 -3.05145,0.243748 -4.585766,0.119375 -1.551589,-0.08303 -3.135085,-0.144613 -4.632275,-0.594797 l -3.182752,2.132688 c 1.573127,0.419727 3.2156,0.498808 4.833815,0.601511 1.529776,0.148098 3.0524,0.0786 4.579049,-0.04806 1.668102,-0.02902 3.178894,-0.713237 4.69842,-1.317749 1.280205,-0.497446 2.567509,-0.977768 3.859713,-1.443839 0.200403,-0.07136 0.400598,-0.142579 0.600996,-0.21394 z"
     inkscape:connector-curvature="0" />
  <path
     style="fill:#000000;stroke-width:0.26458332"
     id="path4287"
     d="m 45.249621,50.377192 c 1.493025,0.03536 2.98654,0.0474 4.479933,0.05596 2.069097,0.0141 4.138194,0.0024 6.207215,-0.01619 1.66892,0.09546 2.673868,-0.323321 4.076522,-1.150808 0.254254,-0.145105 0.508508,-0.290213 0.762762,-0.435321 0,0 -2.857814,2.312214 -2.857814,2.312214 v 0 c -0.260178,0.149011 -0.520359,0.298022 -0.780537,0.447032 -1.383924,0.747197 -2.588048,1.130525 -4.185513,0.995307 -2.054172,-0.01886 -4.108426,-0.03017 -6.162677,-0.01617 -1.544741,0.0087 -3.089574,0.02135 -4.633974,0.05596 0,0 3.094083,-2.247982 3.094083,-2.247982 z"
     inkscape:connector-curvature="0" />
  <path
     id="path4293"
     style="fill:#000000;stroke-width:0.26458332"
     d="m 40.826449,51.947217 c -2.28812,0.42155 -4.392306,1.732542 -6.033225,3.362068 -0.962263,0.999175 -1.311217,2.222643 -1.484146,3.558439 -0.112839,1.312866 -0.193982,2.640468 -0.08113,3.955315 0.228061,1.218205 0.486209,2.417315 0.875914,3.59306 0.392578,1.116216 0.524756,2.287918 0.603065,3.460771 0.05564,1.162762 0.04544,2.327063 0.04754,3.490743 0.09714,1.420201 -0.121685,2.528327 -0.819589,3.770831 -0.837465,1.364322 -1.954194,2.540066 -3.0887,3.661275 -1.125945,1.193628 -2.357973,2.281357 -3.428215,3.526915 -0.792108,1.15371 -1.54399,2.330981 -2.256193,3.535701 -0.509132,1.280533 -1.051331,2.542778 -1.599385,3.808036 -0.544156,1.219891 -0.747924,2.532772 -0.843359,3.853514 0.02643,1.310878 -0.299372,2.579825 -0.525033,3.862295 -0.203689,1.23757 -0.252638,2.49064 -0.286288,3.74189 -0.0185,1.1723 -0.01019,2.34473 -0.01188,3.5171 0.01617,1.34136 0.403459,2.57876 0.830441,3.83336 0.655755,1.63147 1.667096,3.04714 2.778641,4.39249 1.152647,1.47183 2.590978,2.60681 4.200261,3.53105 1.839451,1.04284 3.791869,1.78735 5.830651,2.32234 1.985637,0.64038 4.03139,1.04098 6.074047,1.44591 1.378148,0.29147 2.780186,0.42141 4.185274,0.478 1.409224,0.0403 2.819586,0.0183 4.229201,0.0104 1.700665,-0.011 3.401324,-0.0102 5.102013,-0.005 0.921414,-0.009 1.843207,0.0258 2.761589,-0.009 0.0057,-8e-4 -0.0035,10e-4 0.02376,-0.009 0.01169,-0.004 0.02358,-0.008 0.03565,-0.0108 0.01029,-0.002 0.0222,10e-4 0.03256,-0.001 0.0098,2.5e-4 0.0114,5.3e-4 0.02119,0.002 7.93e-4,-2.6e-4 0.0016,-7.9e-4 0.0026,-10e-4 0.01098,-0.003 0.02328,0.004 0.03411,0 2.64e-4,1e-5 7.94e-4,-2e-5 0.0011,0 0.02365,-0.009 0.04687,-0.0201 0.07131,-0.0259 0.0094,-0.002 0.02098,0.003 0.03049,0.003 0.03095,0.002 0.06025,-0.0148 0.09147,-0.0109 0.01513,2e-4 0.0303,-1.4e-4 0.04548,0 0.01442,-0.002 0.02622,-0.007 0.04341,-0.007 0.04677,0 0.09394,0.004 0.14056,0 0.04734,-0.004 0.09366,-0.0143 0.14056,-0.0217 0.02998,-0.005 0.247761,-0.0393 0.281119,-0.0465 0.339477,-0.0731 -0.121666,0.007 0.283187,-0.0589 7.93e-4,-2e-5 0.0013,-5.3e-4 0.0021,-5.3e-4 0.03919,-0.0125 0.07823,-0.0256 0.117822,-0.0367 0.10228,-0.0285 0.274722,-0.0669 0.378788,-0.0925 0.252804,-0.0623 0.189817,-0.0469 0.44545,-0.12248 0.246068,-0.0543 0.227605,-0.0509 0.217559,-0.0481 1.001146,-0.38974 1.953897,-0.89634 2.869591,-1.46762 0.0031,-0.003 0.0063,-0.006 0.0093,-0.008 0.0066,-0.003 0.01315,-0.006 0.01963,-0.009 0.04847,-0.0303 0.09748,-0.0597 0.145727,-0.0904 0.0013,-10e-4 0.0046,-0.005 0.0057,-0.006 0.01156,-0.0115 0.02225,-0.0151 0.03256,-0.0181 1.056553,-0.67561 2.061861,-1.43737 3.024106,-2.22105 1.242237,-1.01935 2.227328,-2.28014 3.260264,-3.49901 0.823463,-1.09684 1.220695,-2.40974 1.987992,-3.54294 0.698855,-1.11666 1.154105,-2.35154 1.746147,-3.52588 0.645181,-1.1028 0.963054,-2.30771 1.142566,-3.55999 0.123809,-1.17192 0.114975,-2.35121 0.119375,-3.52795 -0.01807,-1.313573 -0.01722,-2.627166 -0.01963,-3.940846 -0.02037,-1.22305 0.06033,-2.450304 -0.04909,-3.669543 -0.09655,-1.373921 -0.704323,-2.628879 -1.07642,-3.940329 -0.407816,-1.254895 -0.994413,-2.443038 -1.446424,-3.685048 -0.319111,-1.35347 -1.083927,-2.493565 -1.951818,-3.553269 -1.039445,-1.142328 -2.044645,-2.308746 -3.026688,-3.501596 -1.024699,-1.221918 -2.134402,-2.367283 -3.242696,-3.512447 -1.183817,-1.083054 -2.175521,-2.311231 -2.894399,-3.745508 -0.588261,-1.187611 -0.607108,-2.426478 -0.528648,-3.712951 0.27191,-1.308013 0.924354,-2.475304 1.424718,-3.701584 0.462706,-1.306044 1.086162,-2.543125 1.629359,-3.815787 0.453523,-1.14836 0.569791,-2.369743 0.640271,-3.589961 0.07415,-1.055188 0.03009,-2.090878 -0.15348,-3.131077 l -3.291789,1.746147 c 0.15799,1.018675 0.155694,2.039525 0.09199,3.068031 -0.07291,1.18264 -0.216191,2.363949 -0.68058,3.466455 -0.543856,1.267886 -1.139529,2.512973 -1.609204,3.811653 -0.52311,1.255734 -1.216628,2.456498 -1.396812,3.827156 -0.06925,1.344731 0.02838,2.642878 0.656807,3.866949 0.751901,1.458828 1.742451,2.730545 2.956925,3.838009 1.107366,1.131175 2.200942,2.277996 3.215825,3.493841 0.988515,1.185542 1.99434,2.351752 3.024622,3.500046 0.841933,1.032986 1.549257,2.149742 1.865,3.461803 0.466111,1.225915 1.044802,2.408441 1.445392,3.655592 0.389279,1.28198 0.954712,2.52536 1.023192,3.8809 0.07966,1.210511 0.02479,2.424536 0.04961,3.636986 0.0027,1.316371 0.01302,2.632768 0,3.949108 5.29e-4,1.16021 8e-6,2.32513 -0.142626,3.47835 -0.190913,1.21806 -0.557379,2.37309 -1.17874,3.4463 -0.580134,1.16545 -1.026703,2.3971 -1.753381,3.48402 -0.707914,1.14503 -1.138203,2.43967 -1.991092,3.49333 -1.01858,1.21151 -2.021848,2.43772 -3.270086,3.42666 -0.189008,0.15128 -0.407025,0.32845 -0.627351,0.5023 -0.05873,0.0218 -0.124754,0.0495 -0.1788,0.0677 -1.34592,0.29075 -2.718414,0.17344 -4.087606,0.19844 -1.701827,0.008 -3.403839,0.0113 -5.105631,0.007 -1.394179,-0.004 -2.788123,-0.005 -4.182176,-0.0274 -1.411536,-0.0409 -2.823265,-0.12838 -4.214212,-0.38809 -2.048245,-0.3722 -4.104706,-0.73647 -6.080249,-1.4118 -2.013889,-0.51806 -3.958587,-1.1793 -5.754171,-2.25568 -0.35079,-0.20355 -1.169183,-0.66658 -1.511017,-0.90898 -0.985427,-0.69875 -1.841951,-1.59727 -2.635499,-2.49856 -1.065637,-1.32535 -2.030686,-2.71638 -2.654618,-4.31136 -0.407759,-1.22261 -0.73664,-2.44246 -0.74104,-3.74448 -0.0053,-1.169 -0.0065,-2.33791 0.01395,-3.50676 0.02792,-1.23204 0.0878,-2.466157 0.292489,-3.683497 0.222149,-1.294558 0.543465,-2.576994 0.522965,-3.899503 0.112696,-1.280599 0.324126,-2.547458 0.866097,-3.726386 0.560501,-1.25376 1.065935,-2.527686 1.636076,-3.774448 0.709024,-1.183995 1.440007,-2.355752 2.262394,-3.465423 1.083611,-1.221147 2.301925,-2.312249 3.423046,-3.498492 1.131295,-1.158619 2.263148,-2.350545 3.062865,-3.770313 0.619826,-1.260081 0.885536,-2.541153 0.775663,-3.949631 0.0039,-1.171329 0.0059,-2.34415 -0.05995,-3.513997 -0.08466,-1.201256 -0.246338,-2.39844 -0.65319,-3.538802 -0.37007,-1.14966 -0.62267,-2.324225 -0.833541,-3.513998 -0.0842,-1.289642 -0.0353,-2.588667 0.10387,-3.873148 0.214308,-1.264742 0.619522,-2.405266 1.57303,-3.308842 z"
     inkscape:connector-curvature="0" />
  <ellipse
     style="fill:#000000;stroke-width:0.26458332"
     id="path4295"
     cx="51.792152"
     cy="106.96973"
     rx="4.8656621"
     ry="4.476409" />
  <ellipse
     style="fill:#000000;stroke-width:0.26458332"
     id="path4295-5"
     cx="60.161087"
     cy="113.00315"
     rx="4.8656621"
     ry="4.476409" />
  <path
     id="path4295-0"
     style="fill:#000000;stroke-width:0.26458332"
     d="m 59.382421,113.58686 a 4.865662,4.4764089 0 0 0 -4.865335,4.47673 4.865662,4.4764089 0 0 0 4.380611,4.44831 c 0.288104,-0.063 -0.124902,0.009 0.268716,-0.0553 7.93e-4,-3e-5 0.0013,-5.3e-4 0.0021,-5.3e-4 0.03919,-0.0125 0.07823,-0.0256 0.117822,-0.0367 0.10228,-0.0285 0.274722,-0.0669 0.378788,-0.0925 0.252804,-0.0623 0.189817,-0.0469 0.44545,-0.12248 0.442209,-0.0976 0.259694,-0.0573 0.41548,-0.0832 0.02715,-0.0138 0.05661,-0.0233 0.08526,-0.0341 -0.0029,5.3e-4 -0.0099,0.004 -0.0083,0.002 0.0016,-0.002 0.02394,-0.0203 0.02946,-0.0227 0.0089,-0.004 0.01847,-0.005 0.02739,-0.009 7.94e-4,-2.6e-4 -0.0011,-0.002 -5.29e-4,-0.002 0.006,-0.004 0.01267,-0.007 0.01913,-0.0114 0.024,-0.0102 0.04934,-0.0169 0.07545,-0.0108 0.0053,10e-4 -0.01405,0.004 -0.01601,-0.001 -0.0019,-0.005 0.0079,-0.006 0.01241,-0.009 0.0085,-0.005 0.01754,-0.008 0.02635,-0.0119 0.0081,-0.002 0.01633,-0.003 0.02429,-0.005 0.0013,-5.3e-4 0.0021,-0.002 0.0031,-0.003 0.0094,-0.006 0.02267,-0.0102 0.03307,-0.0114 0.01199,-0.002 0.02432,5.2e-4 0.03617,0.002 0.0038,5.3e-4 0.0076,0.002 0.01138,0.001 0.0011,-1.3e-4 -0.0029,-0.002 -0.0021,-0.002 0.0021,-0.002 0.0064,-5.3e-4 0.0088,-0.003 0.0011,-8e-4 -8e-6,-0.003 0.0011,-0.004 0.0081,-0.008 0.02125,-0.0148 0.03049,-0.0202 0.04401,-0.0145 -0.0033,-7.9e-4 0.04702,-0.008 0.0032,-5.3e-4 -0.01148,0.001 -0.0098,-0.001 0.0021,-0.004 0.03064,-0.0126 0.03256,-0.0129 0.008,-0.001 0.01619,-0.001 0.02429,-0.002 0.0011,-5.3e-4 0.0033,-5.3e-4 0.0031,-0.002 -2.65e-4,-0.001 -0.0045,-0.001 -0.0036,-0.002 0.003,-0.005 0.02677,-0.0196 0.02894,-0.0207 0.03124,-0.0154 0.01405,-0.001 0.02635,-0.0119 0.0092,-0.01 0.0095,-0.0109 0.0279,-0.0176 0.0079,-0.003 0.01667,-0.003 0.02479,-0.005 0.0027,-8e-4 0.0047,-0.003 0.0072,-0.004 0.0245,-0.0129 0.0084,-0.003 0.03565,-0.0207 0.13798,-0.0568 -0.06383,0.0241 0.0646,-0.0222 0.003,-0.001 0.0051,-0.004 0.0078,-0.006 0.0048,-0.003 0.0097,-0.007 0.01498,-0.0103 0.02447,-0.012 0.02257,-0.01 0.04858,-0.0124 -7.93e-4,0.003 -0.0063,-0.003 -0.0047,-0.004 0.0066,-0.005 0.01447,-0.008 0.02119,-0.0129 0.0016,-0.001 0.0019,-0.004 0.0036,-0.005 0.02207,-0.0149 0.02416,-0.013 0.05013,-0.0212 -0.0026,0.004 0.0073,0 0.01757,-0.003 1.3e-4,-0.001 5.29e-4,-0.002 0.0016,-0.003 0.02482,-0.0198 0.02058,-0.0157 0.05013,-0.0238 0.0075,-0.008 0.02035,-0.008 0.02894,-0.015 7.93e-4,-5.3e-4 -0.0013,-0.002 -5.3e-4,-0.003 0.01799,-0.0165 0.02146,-0.0147 0.04444,-0.0227 0.02384,-0.002 0.03569,-0.021 0.05788,-0.0289 0.01355,-0.005 0.02138,-0.002 0.02946,-0.001 0.0064,-0.006 0.01236,-0.0122 0.01963,-0.0165 0.02998,-0.0181 0.03101,-0.0153 0.06098,-0.0176 2.64e-4,5.3e-4 0.0011,8e-4 0.0011,0.001 1.27e-4,7.9e-4 -0.0013,0.003 -5.29e-4,0.003 0.0032,-8e-4 0.0059,-0.003 0.0088,-0.005 0.01392,-0.008 0.02522,-0.0143 0.03876,-0.0222 0.02421,-0.0148 0.01622,-0.0125 0.05426,-0.0196 0.0083,-0.002 0.003,0.006 0.0078,0.004 0.0034,-0.001 0.0065,-0.004 0.0098,-0.006 0.01924,-0.0144 0.03386,-0.0212 0.05064,-0.0253 0.03136,-0.0375 0.08611,-0.0619 0.130741,-0.0842 0.01717,-0.009 0.03576,-0.0142 0.05323,-0.0222 0.05621,-0.035 0.118432,-0.062 0.175183,-0.0956 0.02758,-0.0163 0.05016,-0.0358 0.07493,-0.0558 0.01725,-0.007 0.06604,-0.0273 0.112138,-0.047 0.0031,-0.005 0.0058,-0.0117 0.0098,-0.0134 0.0011,0.001 0.005,0.005 0.0067,0.007 0.0016,-7.9e-4 0.0026,-7.9e-4 0.0041,-0.002 -0.0027,-0.002 -0.0048,-0.007 -0.0078,-0.008 -7.94e-4,-3e-5 -7.94e-4,2.7e-4 -0.0011,5.3e-4 2.64e-4,5e-5 1.66e-4,-10e-4 5.29e-4,-10e-4 0,0 5.29e-4,5.3e-4 5.29e-4,5.3e-4 0.0011,4e-5 -7.94e-4,-0.002 0.0011,-0.001 0.0078,0.002 0.0105,0.004 0.01498,0.005 5.29e-4,-1.6e-4 5.29e-4,-2.6e-4 0.0011,-5.3e-4 -0.0048,-0.003 -0.01005,-0.005 -0.01291,-0.008 0.0073,-0.005 0.01445,-0.0102 0.0217,-0.015 0.01566,-0.003 0.0013,5.3e-4 0.02894,-0.0145 0.01482,-0.008 0.03056,-0.0139 0.04496,-0.0227 0.0057,-0.004 0.01013,-0.009 0.01603,-0.0119 7.94e-4,-5.3e-4 0.0019,10e-4 0.0026,0.002 0.0061,-0.008 0.01109,-0.0173 0.0181,-0.0248 0.0037,-0.004 0.0089,-0.006 0.01344,-0.009 0.0208,-0.0131 0.02941,-0.0186 0.05375,-0.0269 0.0033,-8e-4 0.0082,-0.004 0.01034,-0.002 -3.1e-5,-5.3e-4 -0.003,0.002 0.01188,-0.0134 0.02392,-0.0253 0.04556,-0.0288 0.07545,-0.0419 0.007,-0.004 0.01381,-0.008 0.02119,-0.0109 0.0013,-5.3e-4 0.0026,0.002 0.0036,0.001 0.0041,-0.003 0.0069,-0.007 0.01035,-0.01 0.0078,-0.008 0.01455,-0.0162 0.02326,-0.0227 0.0287,-0.0216 0.03307,-0.0169 0.07028,-0.0217 0.0074,0.004 0.0021,-5.3e-4 -0.0036,0.005 -7.94e-4,5.3e-4 0.0019,0.001 0.0026,0.001 0.01299,-0.008 0.02426,-0.0179 0.03721,-0.0258 0.0029,-0.002 0.0062,-0.003 0.0093,-0.004 0.0051,-0.006 0.0098,-0.0114 0.01498,-0.017 0.0031,-0.003 0.0069,-0.005 0.0098,-0.008 0.0055,-0.005 0.01003,-0.0116 0.0155,-0.0171 0.0029,-0.003 0.0064,-0.005 0.0093,-0.008 0.0055,-0.005 0.01003,-0.0116 0.01551,-0.0171 0.0028,-0.003 0.0062,-0.005 0.0093,-0.007 0.005,-0.005 0.01,-0.011 0.01497,-0.0165 0.003,-0.002 0.0061,-0.005 0.0088,-0.007 0.0146,-0.0151 0.0282,-0.0315 0.04289,-0.0465 0.0034,-0.004 0.0076,-0.006 0.01138,-0.009 0.0067,-0.005 0.01294,-0.0108 0.01963,-0.016 0.0011,0 0.0024,5.3e-4 0.0031,0 0.02625,-0.017 0.01286,-0.0141 0.04289,-0.0248 0.0024,-7.9e-4 0.0052,-2.6e-4 0.0078,-0.001 0.0039,-0.001 0.0076,-0.003 0.01138,-0.005 0.01193,-0.0113 0.02381,-0.0222 0.03462,-0.0346 0.0075,-0.009 0.01992,-0.0248 0.02739,-0.0326 0.006,-0.006 0.01281,-0.0118 0.01913,-0.0176 0.0098,-0.005 0.01892,-0.0102 0.02894,-0.0139 0.0021,-7.9e-4 0.0049,-8e-5 0.0072,-5.3e-4 0.004,-7.9e-4 0.0074,-0.002 0.01138,-0.003 0.0011,-1.5e-4 0.0021,7.9e-4 0.0031,5.3e-4 0.01468,-0.005 0.02334,-0.0239 0.03927,-0.0253 0.0059,-10e-4 0.01156,-0.003 0.01757,-0.003 0,0 5.29e-4,0 5.29e-4,0 7.94e-4,-2.6e-4 0.0016,-5.3e-4 0.0021,-10e-4 0.01508,-0.0122 0.04999,-0.048 0.06098,-0.0589 0.0086,-0.009 0.01627,-0.01 0.02429,-0.0134 a 4.865662,4.4764089 0 0 0 0.845942,-2.49804 4.865662,4.4764089 0 0 0 -4.865852,-4.47673 z m 2.368846,8.03259 c -0.0041,2.5e-4 -7.93e-4,0.002 -0.0036,0.002 0.0021,1.1e-4 0.0042,1.3e-4 0.0062,0 5.29e-4,-4e-5 0.0011,-10e-4 5.29e-4,-0.002 -7.94e-4,-5.3e-4 -0.0021,-6e-5 -0.0031,0 z"
     inkscape:connector-curvature="0" />
  <ellipse
     style="fill:#000000;stroke-width:0.26458332"
     id="path4295-8"
     cx="38.362923"
     cy="113.78166"
     rx="4.8656621"
     ry="4.476409" />
  <ellipse
     style="fill:#000000;stroke-width:0.26458332"
     id="path4295-80"
     cx="46.926487"
     cy="114.94942"
     rx="4.8656621"
     ry="4.476409" />
  <ellipse
     style="fill:#000000;stroke-width:0.26458332"
     id="path4295-06"
     cx="30.577866"
     cy="104.82884"
     rx="4.8656621"
     ry="4.476409" />
  <ellipse
     style="fill:#000000;stroke-width:0.26458332"
     id="path4295-4"
     cx="41.476948"
     cy="103.27183"
     rx="4.8656621"
     ry="4.476409" />
  <ellipse
     style="fill:#000000;stroke-width:0.26458332"
     id="path4295-3"
     cx="65.221375"
     cy="105.60735"
     rx="4.8656621"
     ry="4.476409" />
  <ellipse
     style="fill:#000000;stroke-width:0.26458332"
     id="path4295-02"
     cx="54.711548"
     cy="101.32556"
     rx="4.8656621"
     ry="4.476409" />
  <path
     style="fill:#000000;stroke-width:0.26458332"
     id="path5151"
     d="m 39.801517,44.249987 c 0.04235,0.06252 0.06997,0.133242 0.102327,0.201062 0.02572,0.0539 0.04449,0.09046 0.07135,0.143783 0.0343,0.06464 0.06894,0.129617 0.112657,0.188553 0.02959,0.03988 0.06453,0.07592 0.09799,0.112506 0.04509,0.04565 0.08323,0.09764 0.117332,0.151839 0,0 -0.09868,0.05749 -0.09868,0.05749 v 0 c -0.0339,-0.05347 -0.07145,-0.104945 -0.115253,-0.150797 -0.03339,-0.03726 -0.06788,-0.07421 -0.09714,-0.114906 -0.04308,-0.0599 -0.07753,-0.125476 -0.112207,-0.190391 -0.01916,-0.03801 -0.05328,-0.105521 -0.07199,-0.143735 -0.0327,-0.06677 -0.06074,-0.1368 -0.10555,-0.196755 0,0 0.09917,-0.05865 0.09917,-0.05865 z"
     inkscape:connector-curvature="0" />
  <path
     style="fill:#000000;stroke-width:0.26458332"
     id="path5155"
     d="m 40.645231,43.770372 c 0.06165,0.08034 0.127751,0.157062 0.192214,0.235122 0.06755,0.07734 0.130948,0.157959 0.191651,0.240739 0.04055,0.05291 0.07797,0.107989 0.115335,0.16315 0.03412,0.05844 0.05261,0.124846 0.07033,0.189759 0.01656,0.05161 0.02732,0.104923 0.04414,0.156448 0.0096,0.02925 0.02011,0.05529 0.03123,0.08398 0.02976,0.08183 0.06268,0.162513 0.0892,0.245478 0.02207,0.07885 0.04706,0.156409 0.06164,0.237083 0.01273,0.07939 0.01328,0.159975 0.01426,0.240165 5.29e-4,0.07591 2.64e-4,0.151826 2.64e-4,0.227737 -5.29e-4,0.07289 -2.35e-4,0.14577 -7e-6,0.218657 -7.94e-4,0.06371 0.0013,0.127471 -0.0013,0.191143 -0.0024,0.07682 -0.0167,0.15231 -0.02818,0.228071 -0.01101,0.07248 -0.01397,0.145791 -0.01976,0.218794 -0.0036,0.06628 -0.01934,0.131017 -0.03044,0.196263 -0.009,0.0553 -0.0099,0.111228 -0.01931,0.166449 -0.0074,0.04449 -0.01633,0.08871 -0.02262,0.133369 -0.0019,0.03421 -0.0092,0.06746 -0.01617,0.100875 0,0 -0.134623,0.06511 -0.134623,0.06511 v 0 c 0.007,-0.03313 0.01535,-0.0659 0.01656,-0.09992 0.0062,-0.04495 0.01521,-0.08943 0.02291,-0.134135 0.0019,-0.01032 0.0078,-0.04083 0.0089,-0.05107 0.004,-0.03845 0.003,-0.07756 0.01124,-0.115596 0.01066,-0.06502 0.0271,-0.129326 0.03114,-0.195258 0.0064,-0.07338 0.0089,-0.147177 0.02011,-0.220051 0.01119,-0.07515 0.02564,-0.150024 0.02791,-0.226192 0.0028,-0.06347 0.0011,-0.127032 0.0016,-0.190556 2.65e-4,-0.07297 7.94e-4,-0.145933 5.29e-4,-0.2189 2.25e-4,-0.07594 7.94e-4,-0.15189 2.65e-4,-0.227833 -7.94e-4,-0.07944 -0.0016,-0.159197 -0.01331,-0.23794 -0.01389,-0.08022 -0.03861,-0.157212 -0.06068,-0.235447 -0.02556,-0.083 -0.05891,-0.163195 -0.08818,-0.244909 -0.0086,-0.02201 -0.02468,-0.06225 -0.03228,-0.08478 -0.01733,-0.05149 -0.02739,-0.1051 -0.04439,-0.156691 -0.01736,-0.06325 -0.03648,-0.127675 -0.06914,-0.184862 -0.03721,-0.05499 -0.07346,-0.110614 -0.113376,-0.163722 -0.05988,-0.08295 -0.122997,-0.163356 -0.189974,-0.240715 -0.06456,-0.07846 -0.130228,-0.156072 -0.19662,-0.232976 0,0 0.128979,-0.07685 0.128979,-0.07685 z"
     inkscape:connector-curvature="0" />
  <path
     style="fill:#000000;stroke-width:0.26458332"
     id="path5157"
     d="m 40.608723,43.849027 c 0.0636,0.08829 0.131964,0.172926 0.200674,0.257257 0.06884,0.08217 0.139493,0.16301 0.201789,0.250349 0.0411,0.05773 0.06956,0.122938 0.09591,0.188357 0.02829,0.06215 0.0463,0.127942 0.06484,0.193439 0.01905,0.07392 0.03944,0.147556 0.05385,0.222557 0.01881,0.0961 0.0413,0.191537 0.06492,0.286568 0.0259,0.105002 0.05038,0.210383 0.06982,0.316785 0.01643,0.09645 0.02117,0.194152 0.02344,0.29178 0.0019,0.0988 7.94e-4,0.197631 5.29e-4,0.296442 0.0016,0.118949 -0.01998,0.235569 -0.04552,0.351126 -0.02484,0.105219 -0.05422,0.209148 -0.08372,0.313113 -0.02143,0.07477 -0.0458,0.148598 -0.0685,0.222964 -0.009,0.02622 -0.01479,0.05337 -0.02207,0.08007 -0.0016,0.0059 -0.009,0.03542 -0.01683,0.04 -0.04613,0.02709 -0.09543,0.04835 -0.143151,0.07253 -0.0061,-0.0075 -0.01212,-0.01505 -0.01815,-0.02259 0,0 0.127738,-0.07724 0.127738,-0.07724 v 0 c 0.0043,0.0041 0.0085,0.0082 0.01278,0.0123 -0.03889,0.02482 -0.07686,0.05116 -0.116674,0.07449 -0.0052,0.0031 0.0094,-0.0081 0.01238,-0.01336 0.01617,-0.02833 0.01495,-0.07328 0.03007,-0.102835 0.01035,-0.0344 0.02307,-0.06791 0.03361,-0.102227 0.01238,-0.04031 0.02204,-0.0815 0.03643,-0.121211 0.02994,-0.104008 0.06058,-0.207727 0.08569,-0.313076 0.02535,-0.114515 0.0482,-0.229902 0.04605,-0.34788 9.5e-5,-0.0986 7.1e-5,-0.197212 -0.0011,-0.295812 -0.0021,-0.09698 -0.006,-0.194162 -0.02183,-0.290055 -0.01892,-0.106177 -0.0432,-0.211304 -0.06942,-0.315899 -0.02397,-0.0951 -0.04647,-0.190659 -0.06649,-0.28666 -0.01421,-0.0746 -0.0353,-0.147545 -0.05343,-0.221242 -0.01905,-0.06479 -0.03691,-0.130119 -0.06466,-0.191902 -0.02527,-0.06457 -0.05399,-0.128477 -0.09361,-0.185661 -0.06105,-0.08765 -0.129373,-0.169728 -0.198329,-0.251227 -0.06879,-0.08446 -0.137014,-0.169363 -0.206068,-0.253587 0,0 0.128918,-0.07765 0.128918,-0.07765 z"
     inkscape:connector-curvature="0" />
  <path
     style="fill:#000000;stroke-width:0.26458332"
     id="path5161"
     d="m 40.936325,44.026274 c 0.04474,0.05362 0.07058,0.118446 0.0976,0.181949 0.0403,0.0888 0.08071,0.177625 0.117864,0.267798 0.03805,0.07376 0.06162,0.152773 0.08477,0.231981 0.02204,0.06343 0.03043,0.129979 0.04176,0.195786 0.01492,0.07343 0.01736,0.148437 0.02802,0.222438 0.01696,0.09996 0.0268,0.200846 0.04399,0.300752 0.02159,0.08942 0.04117,0.178687 0.05071,0.270259 0.007,0.07866 0.0074,0.157686 0.0079,0.236593 5.3e-4,0.0776 7.94e-4,0.155128 -0.0081,0.232288 -0.01408,0.07475 -0.02633,0.149789 -0.04016,0.224586 -0.01426,0.07849 -0.03058,0.156557 -0.04557,0.234913 -0.0099,0.0651 -0.03042,0.127781 -0.04493,0.191863 -0.0042,0.02199 -0.0074,0.04399 -0.01222,0.06587 0,0 -0.134808,0.0647 -0.134808,0.0647 v 0 c 0.0058,-0.0218 0.009,-0.04373 0.01291,-0.06597 0.01479,-0.06419 0.03615,-0.126802 0.04631,-0.192014 0.01561,-0.07821 0.03136,-0.156366 0.04582,-0.234794 0.01312,-0.07469 0.02585,-0.149431 0.04051,-0.223858 0.01008,-0.07645 0.0094,-0.153469 0.0087,-0.230471 -5.8e-5,-0.07858 -2.65e-4,-0.157263 -0.0066,-0.23564 -0.009,-0.09136 -0.02742,-0.180753 -0.04923,-0.269894 -0.01722,-0.09987 -0.0273,-0.200705 -0.04513,-0.300495 -0.01159,-0.07363 -0.01402,-0.148339 -0.02892,-0.221507 -0.01209,-0.06516 -0.01805,-0.131707 -0.04084,-0.194532 -0.0065,-0.02257 -0.01185,-0.04545 -0.01836,-0.06801 -0.01625,-0.05637 -0.0398,-0.110133 -0.06405,-0.163417 -0.03718,-0.09006 -0.07708,-0.179028 -0.118369,-0.267274 -0.02693,-0.06221 -0.05259,-0.126249 -0.09882,-0.177157 0,0 0.129312,-0.07674 0.129312,-0.07674 z"
     inkscape:connector-curvature="0" />
  <path
     style="fill:#000000;stroke-width:0.26458332"
     id="path5163"
     d="m 40.542956,43.882629 c 0.05941,0.0438 0.121542,0.08364 0.179708,0.129117 0.05315,0.04294 0.110355,0.08116 0.15903,0.12932 0.04004,0.03773 0.07025,0.08397 0.100282,0.12967 0.03529,0.05256 0.0653,0.108503 0.0945,0.164626 0.02527,0.05278 0.05483,0.103219 0.08256,0.154649 0.02127,0.05206 0.04683,0.102357 0.06459,0.155784 0.02281,0.05833 0.03633,0.119208 0.05083,0.179896 0.01678,0.07762 0.03193,0.155683 0.04465,0.234077 0.01508,0.09333 0.02209,0.18761 0.03405,0.281352 0.01294,0.09303 0.01595,0.186957 0.01841,0.28072 0.0013,0.08633 0.0032,0.17272 5.29e-4,0.25903 -0.0044,0.05215 -0.0026,0.104868 -0.007,0.156996 -0.0021,0.0254 -0.0068,0.0477 -0.01132,0.07267 -0.01826,0.05574 -0.02283,0.118216 -0.0529,0.169463 -0.04696,0.02326 -0.09393,0.04649 -0.140891,0.06973 0,0 0.12431,-0.0854 0.12431,-0.0854 v 0 c -0.04043,0.025 -0.08086,0.05002 -0.121288,0.07503 0.02019,-0.0209 0.02233,-0.03677 0.03014,-0.06452 0.0093,-0.03319 0.01876,-0.06636 0.02766,-0.09968 0.0038,-0.01918 0.01066,-0.05148 0.01254,-0.07082 0.0051,-0.05209 0.0024,-0.105016 0.0075,-0.157147 0.0032,-0.08615 0.0011,-0.172392 5.29e-4,-0.258577 -0.0021,-0.0933 -0.0054,-0.186701 -0.01786,-0.2793 -0.01199,-0.09358 -0.01842,-0.187737 -0.03395,-0.280855 -0.01259,-0.0779 -0.02852,-0.155255 -0.04553,-0.232299 -0.01484,-0.06017 -0.02675,-0.121081 -0.05054,-0.178705 -0.0172,-0.05273 -0.04279,-0.102033 -0.06333,-0.15349 -0.02773,-0.05152 -0.05725,-0.102055 -0.08222,-0.155056 -0.0292,-0.05555 -0.05859,-0.11126 -0.09403,-0.163147 -0.02972,-0.04474 -0.0598,-0.08968 -0.09891,-0.126926 -0.04804,-0.04776 -0.10437,-0.08596 -0.156848,-0.128575 -0.05851,-0.04518 -0.120213,-0.0859 -0.181583,-0.12705 0,0 0.12651,-0.0806 0.12651,-0.0806 z"
     inkscape:connector-curvature="0" />
  <path
     style="fill:#000000;stroke-width:0.26458332"
     id="path5165"
     d="m 40.729305,43.898253 c 0.05563,0.061 0.118509,0.114747 0.183001,0.166071 0.02817,0.02647 0.06164,0.04651 0.09098,0.07148 0.02673,0.02273 0.05,0.0496 0.07357,0.07548 0.04592,0.05236 0.07775,0.114618 0.106836,0.177363 0.02659,0.06347 0.05171,0.127273 0.08095,0.189585 0.02058,0.04301 0.03202,0.08939 0.04848,0.134001 0.01701,0.05076 0.03606,0.100306 0.05833,0.148987 0.02516,0.04835 0.02977,0.10224 0.03667,0.155263 0.0049,0.05659 0.01664,0.112159 0.02516,0.168256 0.0078,0.0575 0.0095,0.115575 0.0105,0.173516 7.94e-4,0.04594 7.94e-4,0.09188 7.94e-4,0.137824 -3.7e-5,0.03689 5.8e-5,0.07378 -1.78e-4,0.11067 -1.64e-4,0.04681 -2.03e-4,0.09361 -2.64e-4,0.140423 -2.65e-4,0.06372 -5.29e-4,0.127455 -5.29e-4,0.191182 7.93e-4,0.05882 7.93e-4,0.117528 -0.0029,0.17625 -0.004,0.06149 -0.0158,0.122518 -0.03037,0.182322 -0.01781,0.07258 -0.04187,0.143012 -0.06961,0.212301 -0.03347,0.08082 -0.07081,0.159949 -0.108992,0.238631 -0.03785,0.07868 -0.08023,0.155212 -0.125482,0.229862 -0.01482,0.0245 -0.02756,0.04994 -0.04259,0.07429 0,0 -0.136763,0.05982 -0.136763,0.05982 v 0 c 0.01707,-0.02368 0.02948,-0.0494 0.04442,-0.07451 0.04642,-0.07392 0.08874,-0.150516 0.126989,-0.228968 0.03852,-0.07797 0.07462,-0.157128 0.108572,-0.237201 0.0092,-0.02323 0.0195,-0.04604 0.02806,-0.06951 0.01677,-0.04598 0.02819,-0.09382 0.04197,-0.140719 0.01453,-0.05894 0.02655,-0.119195 0.03099,-0.179747 0.004,-0.05849 0.004,-0.116962 0.0038,-0.175578 2.1e-5,-0.06359 -2.4e-5,-0.127182 -5.29e-4,-0.190772 -9.2e-5,-0.04671 -1.35e-4,-0.09343 -2.64e-4,-0.140142 -2.02e-4,-0.03688 -3.2e-5,-0.07377 9.2e-5,-0.110652 2.65e-4,-0.04601 5.29e-4,-0.09202 1.8e-4,-0.138027 -7.94e-4,-0.05738 -0.0019,-0.114896 -0.0095,-0.171874 -0.008,-0.05625 -0.02093,-0.111643 -0.02558,-0.168344 -0.0066,-0.05161 -0.01032,-0.104155 -0.03432,-0.151481 -0.02222,-0.04902 -0.04238,-0.09857 -0.05949,-0.14962 -0.01627,-0.04436 -0.02801,-0.09012 -0.04699,-0.133437 -0.02869,-0.06255 -0.05414,-0.126262 -0.08053,-0.189796 -0.02871,-0.0613 -0.05933,-0.1225 -0.104841,-0.173392 -0.02289,-0.02543 -0.04564,-0.05125 -0.07182,-0.07344 -0.02939,-0.0249 -0.0622,-0.04579 -0.09037,-0.07223 -0.06471,-0.05236 -0.127582,-0.106942 -0.186502,-0.165807 0,0 0.127828,-0.07833 0.127828,-0.07833 z"
     inkscape:connector-curvature="0" />
  <path
     style="fill:#000000;stroke-width:0.26458332"
     id="path5167"
     d="m 40.74737,44.065895 c 0.03051,0.06991 0.07184,0.134665 0.114065,0.197988 0.03305,0.06469 0.07323,0.125283 0.113853,0.185394 0.03711,0.05844 0.06868,0.120044 0.102468,0.180363 0.03226,0.05421 0.05013,0.115086 0.06798,0.175139 0.01521,0.05277 0.03189,0.105113 0.04745,0.157792 0.01159,0.0475 0.0294,0.09298 0.03991,0.140756 0.01495,0.05749 0.03762,0.112344 0.05289,0.169727 0.0096,0.05776 0.02801,0.113372 0.04256,0.16995 0.01111,0.05661 0.02016,0.11349 0.03109,0.170161 0.01262,0.0563 0.0172,0.113782 0.02548,0.170731 0.01122,0.05708 0.01757,0.114903 0.02127,0.17291 0.0024,0.05459 0.0028,0.109257 0.0029,0.163896 2.28e-4,0.05225 -2.57e-4,0.104498 -1.88e-4,0.156748 2.1e-5,0.05271 -1.6e-5,0.105431 -4.7e-5,0.158146 9.7e-5,0.04379 2.64e-4,0.08757 2.64e-4,0.131358 -3.2e-5,0.04611 -2.17e-4,0.09223 -5.29e-4,0.138345 -0.0031,0.06859 -0.02014,0.136144 -0.036,0.202764 -0.01709,0.06276 -0.03692,0.124714 -0.05548,0.187055 -0.01011,0.04366 -0.02445,0.08552 -0.04445,0.125613 -0.02413,0.03783 -0.0461,0.07612 -0.06281,0.117809 -0.01434,0.04041 -0.03069,0.08008 -0.04342,0.121044 -0.0091,0.03964 -0.01495,0.07964 -0.02572,0.118949 -0.01011,0.02619 -0.02193,0.05154 -0.03151,0.07793 0,0 -0.13553,0.06349 -0.13553,0.06349 v 0 c 0.0087,-0.02658 0.01961,-0.0522 0.03205,-0.07726 0.01151,-0.03926 0.01796,-0.07903 0.02548,-0.11914 0.01228,-0.04147 0.02885,-0.08133 0.04298,-0.122158 0.01627,-0.04226 0.03598,-0.0821 0.062,-0.119348 0.02201,-0.03852 0.0363,-0.08024 0.04645,-0.123367 0.01955,-0.06202 0.0384,-0.12428 0.05667,-0.18669 0.01609,-0.06358 0.0019,-0.0048 0.01543,-0.06989 0.0089,-0.04274 0.0218,-0.08514 0.0213,-0.129243 -2.07e-4,-0.04597 -2.65e-4,-0.09194 -5.29e-4,-0.137912 3.9e-5,-0.04392 2.64e-4,-0.08784 2.64e-4,-0.131757 -2.1e-5,-0.05272 -4.7e-5,-0.105442 5.6e-5,-0.158162 1.59e-4,-0.05223 -1.46e-4,-0.104458 1.29e-4,-0.156684 -9.7e-5,-0.05439 2.09e-4,-0.108815 -0.0024,-0.163166 -0.0033,-0.05764 -0.0088,-0.115144 -0.02035,-0.171802 -0.0094,-0.05656 -0.01193,-0.114215 -0.02553,-0.170169 -0.0104,-0.05651 -0.02024,-0.112961 -0.03029,-0.169506 -0.01442,-0.0566 -0.03379,-0.11195 -0.04257,-0.169867 -0.01476,-0.05776 -0.03776,-0.112602 -0.05366,-0.170022 -0.01013,-0.04758 -0.02812,-0.09257 -0.0397,-0.139734 -0.01487,-0.05293 -0.03145,-0.105331 -0.04642,-0.15821 -0.01757,-0.05899 -0.03499,-0.118901 -0.06655,-0.172231 -0.03319,-0.06018 -0.06398,-0.121777 -0.101533,-0.17948 -0.04019,-0.06045 -0.08073,-0.12083 -0.113332,-0.18583 -0.04215,-0.06464 -0.08339,-0.130167 -0.11807,-0.199168 0,0 0.131175,-0.07325 0.131175,-0.07325 z"
     inkscape:connector-curvature="0" />
  <path
     style="fill:#000000;stroke-width:0.26458332"
     id="path5169"
     d="m 36.457258,38.665922 c 0.112543,0.07715 0.240741,0.16987 0.38237,0.180059 0.02537,0.0019 0.05073,-0.0038 0.0761,-0.0057 0.224655,-0.147698 -0.07547,0.05175 -0.415822,0.222062 -0.01122,0.0056 0.01675,-0.02008 0.01921,-0.03239 0.0016,-0.0078 -0.0026,-0.01678 -0.0081,-0.02246 -0.01688,-0.01728 -0.05834,-0.02283 -0.07732,-0.02738 -0.05376,-5.29e-4 -0.05717,-0.0084 -0.103183,0.01953 -0.01164,0.0071 -0.0427,0.03349 -0.03086,0.02676 0.6605,-0.375018 0.331819,-0.39229 0.563171,-0.245843 0,0 -0.506262,0.322064 -0.506262,0.322064 v 0 c -0.05049,-0.03889 -0.123354,-0.08858 -0.100939,-0.107789 0.199113,-0.170614 0.408083,-0.404852 0.676405,-0.351295 0.41093,0.185777 -0.240138,0.505396 -0.50074,0.548396 -0.191746,-0.01468 -0.331433,-0.09684 -0.48483,-0.207576 0,0 0.510841,-0.318465 0.510841,-0.318465 z"
     inkscape:connector-curvature="0" />
  <path
     id="path5321"
     transform="scale(0.26458333)"
     style="fill:#000000;stroke-width:0.99999994"
     d="m 217.00781,95.433594 -14.25586,6.830076 c -0.0232,0.30298 0.0106,0.6148 -0.0684,0.90821 -0.25257,0.93884 -0.78717,1.78192 -1.10937,2.69921 -0.68562,1.9519 -1.33332,3.78329 -2.22461,5.66016 -1.59851,3.6872 -3.1985,7.34409 -4.19727,11.24609 -0.59724,1.92291 -0.77017,3.95286 -1.24023,5.90039 -0.42335,1.754 -1.20821,3.43724 -1.87305,5.10743 -1.19517,3.05334 -1.59041,6.27874 -1.82422,9.52148 -0.0697,2.03654 -0.0393,1.0263 -0.0937,3.0332 l 13.76172,-6.96484 c 0.0511,-1.96213 0.0103,-0.9751 0.12305,-2.96484 0.24336,-3.10106 0.75404,-6.16777 1.91797,-9.07227 1.35386,-3.68205 2.109,-7.31587 2.99609,-11.125 1.07741,-3.78583 2.69659,-7.36434 4.23047,-10.98242 1.41651,-3.20758 2.74489,-6.474052 3.85742,-9.796876 z" />
  <path
     id="path5325"
     transform="scale(0.26458333)"
     style="fill:#000000;stroke-width:0.99999994"
     d="m 219.0293,95.794922 c -1.33092,0.821386 -3.02777,1.809324 -5.29883,3.029297 -5.99478,2.398241 -6.65685,2.027051 -6.9043,3.525391 -0.0704,0.0344 -0.12429,0.063 -0.19531,0.0977 -0.47526,3.24808 -1.61332,6.34863 -2.39648,9.53515 -0.003,0.0203 -0.007,0.0403 -0.01,0.0605 -0.6622,1.71731 -1.32687,3.43345 -1.90039,5.18359 -1.16896,3.37844 -2.76329,6.58729 -3.73438,10.02735 -0.80775,3.39305 -1.23758,6.86865 -2.38672,10.17382 -1.24458,3.49991 -2.55293,6.99042 -3.14257,10.67579 l 3.12304,-1.5254 c -0.0305,0.92227 -0.0494,1.84515 -0.0684,2.76758 l 13.75196,-6.97656 c 0.024,-1.49 0.063,-2.97987 0.16992,-4.4668 0.31502,-3.29788 0.88662,-6.5506 2.00391,-9.68359 0.0355,-0.11356 0.0666,-0.22811 0.10156,-0.3418 -0.0479,-0.72449 0.0341,-1.45252 0.33203,-2.1289 0.0945,-0.21446 0.20779,-0.42019 0.31445,-0.62891 0.003,-0.0352 0.004,-0.0703 0.008,-0.10547 -0.0332,0.022 -0.036,0.14106 -0.0664,0.11719 -0.0534,-0.0418 -0.0299,-0.13183 -0.0371,-0.19922 -0.0204,-0.18716 -0.0773,-0.379 -0.0449,-0.56445 0.25857,-1.48251 0.27417,-1.32534 0.94336,-2.36524 -0.0225,-0.15 -0.052,-0.30054 -0.0645,-0.45117 -0.10318,-1.24917 -0.0772,-0.87856 0.0547,-2.1914 0.27519,-0.9533 0.28831,-1.14947 0.74219,-2.07422 0.0977,-0.19903 0.24823,-0.37026 0.35156,-0.56641 0.081,-0.15378 0.12578,-0.32447 0.20508,-0.47852 -0.002,-0.0751 -0.008,-0.10379 -0.0176,-0.49609 0.11577,-0.40779 0.0504,-0.18416 0.11133,-0.41016 -0.007,-0.0728 -0.0167,-0.14592 -0.0215,-0.21875 0.0479,-0.45343 0.0516,-0.91258 0.14258,-1.35937 0.069,-0.33891 0.2056,-0.66129 0.33399,-0.98242 0.0238,-0.0596 0.38381,-0.69453 0.41015,-0.81836 0.054,-0.25418 0.0422,-0.51751 0.0742,-0.77539 0.0287,-0.23097 0.0719,-0.45943 0.10742,-0.68946 0.0781,-0.35247 0.13547,-0.71139 0.23438,-1.05859 0.0461,-0.16203 0.12325,-0.31251 0.19922,-0.46289 0.0374,-0.0738 0.11682,-0.12537 0.13867,-0.20508 0.16483,-0.60132 0.17874,-1.2542 0.42187,-1.83984 0.058,-0.16902 0.0387,-0.39083 0.17383,-0.50781 0.0734,-0.0635 0.0859,0.37226 0.0918,0.27539 0.0185,-0.30267 -0.0826,-0.60626 -0.0547,-0.90821 0.0106,-0.1155 0.20959,-1.87058 0.69336,-1.99023 0.031,-0.0113 0.0848,-10e-4 0.0918,-0.0332 0.16645,-0.76947 0.008,-0.95759 0.3418,-1.64063 0.67637,-1.38292 0.4335,-0.99778 1.09179,-1.60937 0.0819,-0.0761 0.16038,-0.15622 0.24024,-0.23438 0.27022,-0.318293 0.10553,-0.12938 0.0918,-0.11328 0.007,-0.0174 0.0119,-0.0354 0.0195,-0.0527 -0.0103,0.005 0.004,-0.0196 0.0391,-0.0723 0.0613,-0.130258 0.12724,-0.258673 0.21094,-0.390626 0.0245,-0.05088 0.0513,-0.100591 0.0742,-0.152343 4.6e-4,-0.0026 0.001,-0.0052 0.002,-0.0078 -0.35532,-0.765078 -0.49084,-1.326273 -0.62891,-2.193359 -0.003,-0.02154 0.0445,-0.0013 0.0664,-0.002 -0.0129,-0.07393 -0.0264,-0.148729 -0.0391,-0.222657 -0.16061,-0.428935 -0.33079,-0.849437 -0.49218,-1.273437 z m -2.26563,14.857418 c -0.009,-0.0985 -0.0156,-0.0696 -0.0195,0.19141 0.0121,-0.0901 0.0124,-0.0841 0.0215,-0.1582 -5.3e-4,-0.007 -9.5e-4,-0.0275 -0.002,-0.0332 z" />
  <path
     style="fill:#000000;stroke-width:0.26458332"
     id="path5369"
     d="m 52.329368,53.047465 c -0.09757,0.963769 -0.220157,1.923389 -0.274479,2.891052 -0.109781,1.576594 -0.394028,3.144176 -0.705281,4.692912 -0.437251,1.932586 -0.615379,3.90175 -0.707441,5.876388 -0.01746,1.997951 -0.138117,3.983249 -0.428259,5.960052 -0.316013,1.806442 -0.517872,3.627879 -0.588865,5.459946 -0.06258,1.379609 -0.07083,2.763378 -0.05136,4.144394 0.0026,1.325399 -0.0021,2.650741 -0.0109,3.976119 0.01924,1.410263 0.01251,2.821156 -0.01884,4.231187 -0.01087,1.799418 -0.02973,3.598855 -0.03325,5.398289 -0.0064,1.617958 0.04533,3.235094 0.05452,4.852926 0.01926,1.14469 0.02342,2.2895 0.04744,3.43416 -0.0088,0.99738 0.321802,1.86793 0.947774,2.63253 0.369181,0.32501 0.844913,0.65887 1.371783,0.52123 0.106693,-0.0279 0.390154,-0.20569 0.293737,-0.15218 -1.37827,0.76496 -2.759601,1.52438 -4.139401,2.28657 0.410123,-0.37023 0.211879,-0.16662 0.589648,-0.61575 0,0 4.655122,-2.00944 4.655122,-2.00944 v 0 c -0.323953,0.49869 -0.158195,0.26142 -0.494829,0.7135 -1.185268,0.69117 -3.852794,3.64951 -5.887535,2.46116 -0.315434,-0.18422 -0.46849,-0.36613 -0.730046,-0.62063 -0.63567,-0.86902 -1.100577,-1.82148 -1.110737,-2.92184 0.02387,-1.16078 0.02829,-2.3217 0.04745,-3.48251 0.0092,-1.63635 0.06069,-3.272034 0.05456,-4.908511 -0.0035,-1.788123 -0.02225,-3.576248 -0.03327,-5.364353 -0.03211,-1.402945 -0.03808,-2.806742 -0.0218,-4.20996 -0.01156,-1.320157 -0.02162,-2.640306 -0.02178,-3.960513 0.0218,-1.400527 0.01894,-2.801165 0.09439,-4.200517 0.16047,-1.862154 0.351853,-3.722918 0.697444,-5.561603 0.308486,-1.953876 0.367753,-3.920646 0.40639,-5.896446 0.116874,-1.986626 0.263996,-3.978605 0.669935,-5.930799 0.269957,-1.50472 0.514943,-3.026058 0.572643,-4.555268 0.03199,-0.554016 0.0575,-1.108088 0.09116,-1.661993 0.01654,-0.272203 0.05501,-0.543811 0.0515,-0.816496 -0.0013,-0.09937 -0.02244,-0.197485 -0.03366,-0.29623 0,0 4.646237,-2.367376 4.646237,-2.367376 z"
     inkscape:connector-curvature="0" />
  <path
     id="path5371"
     transform="scale(0.26458333)"
     style="fill:#000000;stroke-width:0.99999994"
     d="m 211.20117,94.068359 c -0.006,0.0026 -0.0117,0.0053 -0.0176,0.0078 -0.15094,0.07499 -0.29786,0.159034 -0.45312,0.224609 -0.14482,0.06112 -0.29678,0.10282 -0.44531,0.154297 -2.01986,0.806676 -0.45178,0.157283 -4.91211,2.748047 -0.23031,0.133751 -0.72988,0.451174 -0.67578,0.427734 -0.26805,0.154535 -0.5365,0.308623 -0.80469,0.462891 -0.71567,0.515301 -1.21131,1.225878 -1.41797,2.0918 -0.12076,0.77686 -0.12895,1.55793 0.0293,2.33203 0.13898,0.65273 0.34959,1.29334 0.80078,1.80273 h 0.002 l 4.20898,-2.58008 c -0.49345,-0.35688 -0.64358,-0.93354 -0.75976,-1.5 -0.1369,-0.725052 -0.10246,-1.44384 0.0449,-2.162105 0.17307,-0.428923 0.36009,-0.760204 0.60742,-1.03125 0.62816,-0.27389 1.25614,-0.541964 1.91602,-0.738281 0.76539,-0.211011 1.56012,-0.256871 2.34961,-0.275391 0.74866,-0.01173 1.49737,-0.008 2.24609,-0.002 0.91988,-0.03531 1.57072,0.0023 2.43555,0.345703 0.76684,0.428398 1.04773,0.85545 1.10351,1.716797 0.001,0.118942 0.0171,0.239463 0.002,0.357422 -0.0145,0.111912 -0.0597,0.217435 -0.0898,0.326172 -0.13799,0.497998 -0.28944,0.987871 -0.44531,1.480466 -0.40112,0.7071 -0.55649,1.49508 -0.76758,2.26758 -0.12317,0.37241 -0.12038,0.77387 -0.20508,1.15234 -0.0816,0.36469 -0.22867,0.73266 -0.33007,1.09375 -0.20458,0.48582 -0.25523,1.01349 -0.38672,1.51758 -0.0142,0.0543 -0.25649,0.7495 -0.26367,0.76953 -0.33193,0.8518 -0.73452,1.66037 -0.94141,2.55664 -0.14634,0.37546 -0.17176,0.78238 -0.27539,1.16797 -0.10122,0.37659 -0.25757,0.73861 -0.36328,1.11524 -0.30136,0.82844 -0.30693,1.72866 -0.55664,2.56445 -0.20409,0.538 -0.30539,1.1043 -0.46485,1.6543 -0.0845,0.29136 -0.20601,0.57186 -0.30273,0.85937 -0.33113,0.72693 -0.21198,1.51528 -0.32227,2.28321 -0.078,0.54282 -0.20088,0.93277 -0.34375,1.45898 -0.31178,1.20199 -0.9567,2.27727 -1.60156,3.32617 -0.55363,0.8819 -1.02816,1.81212 -1.27734,2.82617 -0.17418,0.77542 -0.43808,1.51869 -0.55664,2.3086 -0.10923,0.75416 -0.24649,1.50081 -0.30469,2.26172 0.0226,0.76538 -0.24129,1.48053 -0.37891,2.22461 -0.14587,0.81957 -0.15512,1.66595 -0.39648,2.46484 -0.23426,0.56372 -0.37146,1.15554 -0.51172,1.74609 -0.26413,0.10895 -0.4281,0.21361 -0.49414,0.36719 -0.0546,0.0298 -0.0886,0.0517 -0.14453,0.082 0.21936,0.32502 -0.1216,1.52402 -0.14844,1.91797 -0.13147,0.61354 -0.31064,1.22617 -0.4082,1.84766 -0.11248,0.44068 -0.20153,0.88775 -0.25196,1.34179 -0.0811,0.7546 -0.21112,1.49981 -0.26562,2.25782 0.0828,2.05504 0.54311,1.87686 1.87891,0.97461 0.0346,0.0821 0.0646,0.16629 0.0996,0.24804 -0.0173,-0.0441 0.0506,0.11381 0.0762,0.25196 1.36763,-0.78662 2.7735,-1.50503 4.16015,-2.25782 l -4.21875,2.61328 c 3.60772,-1.82531 5.16526,-0.8681 4.16992,-2.96093 -0.30296,-0.6908 -0.594,-1.41287 -0.67968,-2.16602 -0.005,-0.75393 -0.002,-1.50778 -0.002,-2.26172 -0.005,-0.76764 -3.2e-4,-1.53707 0.006,-2.30469 3.6e-4,-0.0647 0.003,-0.0775 0.004,-0.13867 0.0984,-0.30822 0.1996,-0.61372 0.29687,-0.92383 0.23375,-0.90533 0.4139,-1.82588 0.75,-2.70312 0.17019,-0.82543 0.25752,-1.66491 0.40821,-2.49414 0.10505,-0.47741 0.21787,-0.9521 0.28906,-1.43359 -0.006,-0.12913 -0.0133,-0.25254 -0.008,-0.41797 0.008,-0.24437 0.062,-0.48407 0.12109,-0.72266 0.0405,-0.3265 0.0907,-0.65156 0.14063,-0.97656 -0.0698,-0.77051 0.003,-1.54938 0.32031,-2.26953 0.0833,-0.18915 0.1822,-0.37108 0.27734,-0.55469 0.0145,-0.0594 0.0313,-0.11807 0.0449,-0.17774 -0.0322,0.0238 -0.0363,0.13886 -0.0664,0.11524 -0.0534,-0.0418 -0.0299,-0.13183 -0.0371,-0.19922 -0.0204,-0.18716 -0.0773,-0.379 -0.0449,-0.56445 0.25857,-1.48251 0.27417,-1.32534 0.94336,-2.36524 -0.0225,-0.15 -0.052,-0.30054 -0.0645,-0.45117 -0.10318,-1.24917 -0.0772,-0.87856 0.0547,-2.1914 0.27519,-0.9533 0.28831,-1.14947 0.74219,-2.07422 0.0977,-0.19903 0.24823,-0.37026 0.35156,-0.56641 0.081,-0.15378 0.12578,-0.32447 0.20508,-0.47852 -0.002,-0.0751 -0.008,-0.10379 -0.0176,-0.49609 0.11577,-0.40779 0.0504,-0.18416 0.11133,-0.41016 -0.007,-0.0728 -0.0167,-0.14592 -0.0215,-0.21875 0.0479,-0.45343 0.0516,-0.91258 0.14258,-1.35937 0.069,-0.33891 0.2056,-0.66129 0.33399,-0.98242 0.0238,-0.0596 0.38381,-0.69453 0.41015,-0.81836 0.054,-0.25418 0.0422,-0.51751 0.0742,-0.77539 0.0287,-0.23097 0.0719,-0.45943 0.10742,-0.68946 0.0781,-0.35247 0.13547,-0.71139 0.23438,-1.05859 0.0461,-0.16203 0.12325,-0.31251 0.19922,-0.46289 0.0374,-0.0738 0.11682,-0.12537 0.13867,-0.20508 0.16483,-0.60132 0.17874,-1.2542 0.42187,-1.83984 0.058,-0.16902 0.0387,-0.39083 0.17383,-0.50781 0.0734,-0.0635 0.0859,0.37226 0.0918,0.27539 0.0185,-0.30267 -0.0826,-0.60626 -0.0547,-0.90821 0.0106,-0.1155 0.20959,-1.87058 0.69336,-1.99023 0.031,-0.0113 0.0848,-10e-4 0.0918,-0.0332 0.16645,-0.76947 0.008,-0.95759 0.3418,-1.64063 0.67637,-1.38292 0.4335,-0.99778 1.09179,-1.60937 0.0819,-0.0761 0.16038,-0.15622 0.24024,-0.23438 0.27022,-0.318293 0.10553,-0.12938 0.0918,-0.11328 0.007,-0.0174 0.0119,-0.0354 0.0195,-0.0527 -0.0103,0.005 0.004,-0.0196 0.0391,-0.0723 0.0613,-0.130258 0.12724,-0.258673 0.21094,-0.390626 0.0254,-0.05271 0.0524,-0.104586 0.0762,-0.158203 -0.35592,-0.765964 -0.49073,-1.327576 -0.62891,-2.195312 -0.003,-0.02154 0.0445,-0.0013 0.0664,-0.002 -0.0129,-0.07393 -0.0264,-0.148729 -0.0391,-0.222657 -0.27705,-0.739867 -0.60012,-1.447037 -0.81445,-2.208984 -0.71606,-0.117503 -1.43237,-0.230845 -2.15234,-0.320313 -1.16596,-0.144906 -2.33967,-0.212041 -3.50977,-0.318359 -0.61449,-0.05078 -1.22917,-0.100898 -1.84375,-0.152344 z m -4.48437,53.097661 c -0.0561,0.0323 -0.114,0.0613 -0.16992,0.0937 -0.0463,0.0268 0.0833,0.10067 0.13476,0.0859 0.0529,-0.0151 0.0509,-0.0947 0.0352,-0.17968 z m 10.04687,-36.51368 c -0.009,-0.0985 -0.0156,-0.0696 -0.0195,0.19141 0.0121,-0.0901 0.0124,-0.0841 0.0215,-0.1582 -5.3e-4,-0.007 -9.5e-4,-0.0275 -0.002,-0.0332 z m -6.51758,25.56055 c -0.0231,0.0118 -0.0376,0.0158 -0.0605,0.0273 -3.5e-4,-0.004 -0.002,-0.006 -0.002,-0.01 0.0142,-0.005 0.0162,-0.0131 0.0625,-0.0176 z" />
  <path
     id="path5373"
     transform="scale(0.26458333)"
     style="fill:#000000;stroke-width:0.99999994"
     d="m 207.19727,93.755859 c -1.74419,0.854159 -3.43943,1.824375 -4.90235,3.095703 -0.77084,0.619885 -1.38268,1.326498 -1.7168,2.261719 -0.22774,0.757905 -0.23723,1.556869 -0.24023,2.341799 -0.12472,0.81976 -0.0626,1.66352 -0.26367,2.46875 -0.26565,0.96361 -0.47123,1.93914 -0.57422,2.93359 -0.27545,0.96237 -0.43993,1.94088 -0.55078,2.9336 -0.10273,0.50059 -0.092,1.01894 -0.17188,1.52148 -0.0841,0.52886 -0.23857,1.05937 -0.34179,1.58594 -0.17998,1.19746 -0.24391,2.40721 -0.3418,3.61328 -0.10327,1.36896 -0.35815,2.72906 -0.62109,4.07617 -0.23101,1.28896 -0.26652,2.59856 -0.29297,3.9043 0.018,1.53179 -0.27545,3.04812 -0.48438,4.56054 -0.28851,1.31194 -0.54231,2.62745 -0.7207,3.95899 -0.10292,0.85616 -0.11448,1.71918 -0.12695,2.58008 -0.005,0.77981 0.004,1.55827 0.0176,2.33789 0.02,0.83909 -0.0473,1.68137 0.0312,2.51758 0.0813,0.45223 0.28984,0.82533 0.53907,1.20117 l 4.14453,-2.44532 c -0.22723,-0.29548 -0.36759,-0.59213 -0.41797,-0.96874 -0.0454,-0.82495 -0.0226,-1.65266 -0.0332,-2.47852 0.0106,-0.78314 0.0159,-1.56444 0.0117,-2.34766 -0.002,-0.83353 0.01,-1.66918 0.082,-2.5 0.12306,-1.31372 0.37414,-2.60527 0.62109,-3.90039 0.19955,-1.53782 0.48961,-3.07014 0.50586,-4.625 0.041,-1.28754 0.10668,-2.57701 0.33398,-3.84765 0.15764,-0.98291 0.32238,-1.9665 0.45703,-2.95313 1.78627,-0.81398 2.47101,-1.02474 2.51758,-3.23828 0.0265,-0.84627 0.08,-1.6957 0.2793,-2.52148 0.18867,-0.79976 0.28752,-1.59957 0.33594,-2.41993 0.12123,-0.83459 0.30064,-1.65727 0.46289,-2.48437 0.061,-0.15514 0.12153,-0.31027 0.19726,-0.46094 0.10314,-0.2528 0.20869,-0.50576 0.31055,-0.75976 0.0307,0.006 0.0583,0.0194 0.0898,0.0234 0.18556,0.0236 0.63005,-0.005 0.80274,-0.0976 4.11531,-2.20643 3.17822,-1.50143 4.82617,-2.78907 0.11846,-0.12314 0.22057,-0.25889 0.32813,-0.39062 0.0108,0.15876 0.0144,0.31718 0.0508,0.47852 0.095,0.26641 0.17036,0.55052 0.35937,0.77343 0.35792,0.42213 0.83563,0.50315 1.36328,0.38281 0.0332,0.0781 0.0662,0.15553 0.1211,0.22657 1.33843,1.73198 4.27702,-1.20819 4.93945,-2.941409 0.22344,-0.606149 0.36875,-1.228245 0.41211,-1.859375 -0.0129,-0.07593 -0.0301,-0.130046 -0.043,-0.210937 -0.003,-0.01775 0.031,-0.0059 0.0547,-0.002 4.5e-4,-0.01758 0.002,-0.03514 0.002,-0.05273 -0.01,-0.05663 -0.0196,-0.113532 -0.0293,-0.169922 -0.25735,-0.687268 -0.54703,-1.349827 -0.75976,-2.050781 -0.0147,-0.01546 -0.024,-0.03565 -0.0391,-0.05078 -0.009,-0.03778 -0.0269,-0.07372 -0.0371,-0.111328 -0.70889,-0.11624 -1.41811,-0.227836 -2.13086,-0.316407 -1.16596,-0.144906 -2.33967,-0.212041 -3.50977,-0.318359 -1.13982,-0.09419 -2.27974,-0.193477 -3.41992,-0.283203 -1.01749,-0.08005 -1.70866,-0.131361 -2.42773,-0.181641 z m 0.0918,1.455079 c -0.21001,0.113074 -0.22232,0.121177 -0.41406,0.224609 0.0149,-0.01107 0.0257,-0.02649 0.041,-0.03711 0.11463,-0.07971 0.24817,-0.124988 0.37304,-0.1875 z m -0.65039,1.052734 c -0.18124,0.134024 -0.3656,0.284969 -0.54883,0.429687 v -0.002 c 0.0256,-0.10989 0.0711,-0.214298 0.11133,-0.320312 0.14468,-0.04122 0.29075,-0.07546 0.4375,-0.107422 z m 11.67578,3.263672 c 0.0295,-0.01678 0.0265,0.07322 0.008,0.101562 -0.003,0.0051 -0.0304,-0.06274 -0.041,-0.08203 0.0111,-0.0064 0.0221,-0.01317 0.0332,-0.01953 z m -4.65625,1.412106 c -0.004,0.006 -0.006,0.0119 -0.01,0.0176 -0.10946,0.078 -0.21115,0.16816 -0.32813,0.23438 -0.10643,0.0602 -0.44285,0.20528 -0.33789,0.14257 0.22383,-0.13381 0.45051,-0.26316 0.67578,-0.39453 z m -9.82617,12.70313 c 0.004,0.0368 0.0205,0.0762 0.01,0.11133 -0.0136,0.0431 -0.0352,-0.0151 -0.0547,-0.084 0.015,-0.009 0.0299,-0.0184 0.0449,-0.0273 z" />
  <path
     style="fill:#000000;stroke-width:0.26458332"
     id="path5426"
     d="m 58.129889,26.311997 c -0.06044,0.101385 -0.09962,0.215734 -0.139319,0.326763 -0.05654,0.176684 -0.132641,0.346099 -0.208029,0.515313 -0.110818,0.234704 -0.203313,0.477023 -0.295865,0.719286 -0.09566,0.230587 -0.152617,0.474073 -0.227335,0.711645 -0.05953,0.211269 -0.118782,0.422357 -0.180954,0.632912 -0.07058,0.212275 -0.144547,0.42269 -0.203523,0.63859 -0.06679,0.229111 -0.12265,0.461256 -0.173058,0.69446 -0.05098,0.257434 -0.105736,0.514321 -0.141272,0.774465 -0.02196,0.266975 -0.05805,0.532201 -0.09057,0.797986 -0.03654,0.247713 -0.05199,0.497596 -0.08456,0.745746 -0.0276,0.204121 -0.07474,0.404593 -0.111898,0.60701 -0.02545,0.146177 -0.02968,0.294587 -0.03754,0.442375 -0.0016,0.130149 -0.03654,0.25526 -0.06227,0.381881 -0.02432,0.123354 -0.02955,0.248812 -0.03221,0.374124 -0.0032,0.125161 -0.0013,0.250428 7.94e-4,0.3756 0.0013,0.102452 0.0011,0.204909 0.0019,0.307361 -2.65e-4,0.10196 7.94e-4,0.203904 -0.0016,0.305842 -0.0086,0.123664 -0.02151,0.246865 -0.02671,0.370803 0.0048,0.117512 -0.0241,0.23077 -0.0447,0.34543 -0.02776,0.130767 -0.04267,0.263464 -0.07275,0.393729 -0.02844,0.119737 -0.04267,0.242025 -0.0491,0.364731 -0.0117,0.124888 -0.02614,0.248758 -0.05239,0.371453 -0.02806,0.135827 -0.05624,0.271278 -0.07128,0.409271 -0.0088,0.102119 -0.01524,0.205055 -0.01093,0.307562 0.03439,0.188336 0.382254,-0.118118 -0.577157,0.301834 -0.0096,0.0042 0.0024,-0.02069 0.0031,-0.03109 0.0069,-0.09787 -0.0056,0.03354 0.0071,-0.08946 0.0177,-0.132545 0.02582,-0.266025 0.03901,-0.399057 0.01482,-0.140447 0.05595,-0.275516 0.07616,-0.415359 0.02606,-0.221255 0.06905,-0.439836 0.104979,-0.659577 0.03189,-0.267206 0.0729,-0.533189 0.108444,-0.799963 0.04628,-0.29704 0.08789,-0.594484 0.138867,-0.890775 0.0563,-0.325184 0.09759,-0.652886 0.140697,-0.980072 0.04518,-0.232995 0.06959,-0.469265 0.10604,-0.703567 0.0191,-0.122772 0.04297,-0.244753 0.06443,-0.367136 0.07192,-0.405053 0.180149,-0.801703 0.287258,-1.198462 0.130902,-0.471649 0.275804,-0.939207 0.412218,-1.409245 0.146775,-0.489799 0.28149,-0.9829 0.419182,-1.475282 0.108291,-0.353536 0.194548,-0.713084 0.291952,-1.069507 0.08938,-0.3171 0.187457,-0.631388 0.265393,-0.951579 0.01527,-0.05546 0.03099,-0.110805 0.0458,-0.166396 0.043,-0.161441 0.04106,-0.171228 0.08992,-0.330743 0.04327,-0.141261 0.09221,-0.280571 0.134665,-0.422127 0.05182,-0.16423 0.09231,-0.33175 0.110265,-0.503119 -0.0011,-0.06218 0.0099,-0.136309 -0.02341,-0.192994 -0.0094,-0.01597 -0.05412,-0.06193 -0.06394,-0.07241 -0.100168,-0.08006 -0.215325,-0.142575 -0.33306,-0.193255 -0.09814,-0.0397 -0.203348,-0.04712 -0.307842,-0.05135 -0.09896,-0.0022 -0.197933,-6.09e-4 -0.296897,-5.03e-4 -0.09916,5.29e-4 -0.198332,0.0011 -0.297498,7.41e-4 -0.09922,7.6e-5 -0.19844,4.5e-4 -0.297659,5.5e-5 -0.103396,0.0098 -0.200723,-0.02624 -0.301051,-0.04502 -0.09736,-0.01665 -0.196246,-0.01882 -0.294745,-0.02093 -0.09905,-0.0011 -0.198099,-3.17e-4 -0.297146,-5.29e-4 -0.09922,2.01e-4 -0.198451,6.35e-4 -0.297675,2.91e-4 -0.09922,4e-5 -0.198445,4.23e-4 -0.297667,2.7e-5 -0.09922,9e-6 -0.198437,3.97e-4 -0.297656,-3e-6 -0.0649,0.0015 -0.132543,-0.0036 -0.196339,0.01215 -0.02297,0.0057 -0.07283,0.03002 -0.09339,0.03953 0.982834,-0.515061 0.508994,-0.335353 0.351332,-0.173133 -0.03454,0.03554 -0.0365,0.04331 -0.06195,0.08406 -0.02191,0.05309 -0.07066,0.147912 -0.02569,0.203251 0.0063,0.0077 0.01625,0.0115 0.02437,0.01725 0.02482,0.0061 0.05044,0.01407 0.07649,0.01275 0.01701,-8.73e-4 0.03351,-0.0062 0.05031,-0.0091 0.07288,-0.01235 0.145018,-0.02741 0.217681,-0.04109 0.203819,-0.02778 0.407725,-0.05557 0.609883,-0.09427 0.142896,-0.01616 0.27551,-0.0715 0.414745,-0.103076 0.130122,-0.02181 0.262241,-0.02147 0.393745,-0.02152 0.164102,6.5e-5 0.328231,2.38e-4 0.49235,8.2e-4 0.134559,-6.08e-4 0.269105,-0.003 0.403664,-0.0036 0.129622,-0.008 0.246782,0.01414 0.371284,0.0464 0.114885,0.02953 0.228365,0.05502 0.335928,0.105673 0.115621,0.06699 0.188016,0.137123 0.245147,0.257795 0.0055,0.01758 0.01095,0.03515 0.01646,0.05273 0,0 -0.558689,0.30514 -0.558689,0.30514 v 0 c -0.0041,-0.01508 -0.0083,-0.03015 -0.01241,-0.04523 -0.04468,-0.107259 -0.113615,-0.168861 -0.21825,-0.219354 -0.105518,-0.0427 -0.216646,-0.06867 -0.326112,-0.09932 -0.120888,-0.0285 -0.242173,-0.03601 -0.366292,-0.03119 -0.130931,-6.61e-4 -0.261845,-0.0033 -0.392776,-0.0044 -0.16486,8.3e-5 -0.329714,-0.0011 -0.494549,0.0021 -0.131625,0.0042 -0.264544,0.0077 -0.393213,0.03858 -0.132443,0.03459 -0.263708,0.07292 -0.400521,0.08721 -0.205039,0.03278 -0.410599,0.06266 -0.614892,0.09983 -0.129698,0.02733 -0.273425,0.07845 -0.394417,4.49e-4 -0.01312,-0.01345 -0.02879,-0.02481 -0.03936,-0.04034 -0.05159,-0.07587 -0.01995,-0.179785 0.0051,-0.258033 0.01945,-0.0395 0.03033,-0.06639 0.05774,-0.101778 0.178811,-0.230821 0.55852,-0.253044 0.732383,-0.461049 0.09934,-0.03305 0.201319,-0.03798 0.305586,-0.03374 0.09922,-3.97e-4 0.198437,-1.1e-5 0.297656,2e-6 0.09922,-3.97e-4 0.198432,-1.6e-5 0.297648,-5.2e-5 0.09921,-4.5e-4 0.198424,-1.84e-4 0.297638,-3.44e-4 0.09939,-5.03e-4 0.198805,-5.29e-4 0.298164,0.0019 0.100714,0.0031 0.201708,0.0092 0.300569,0.02993 0.09758,0.02009 0.193522,0.04401 0.294265,0.03468 0.0992,-3.97e-4 0.198413,-1.5e-5 0.297619,-1.2e-4 0.09913,-5.29e-4 0.198263,-4.24e-4 0.297394,-9.26e-4 0.09963,-7.94e-4 0.199398,-0.0016 0.298918,0.0039 0.109054,0.0081 0.217358,0.02533 0.316593,0.07409 0.121833,0.05962 0.24207,0.126796 0.347988,0.211866 0.02574,0.02632 0.06141,0.05947 0.08006,0.09189 0.03864,0.06714 0.03132,0.149681 0.03252,0.223608 -0.02535,0.181355 -0.07593,0.356529 -0.13725,0.52899 -0.04892,0.143124 -0.10401,0.28452 -0.151095,0.428209 -0.05154,0.157274 -0.0488,0.169294 -0.09078,0.329987 -0.01431,0.05483 -0.02967,0.109397 -0.04451,0.164094 -0.07886,0.319201 -0.170267,0.634693 -0.259908,0.951008 -0.103547,0.363286 -0.214323,0.724225 -0.324371,1.085614 -0.148995,0.492014 -0.294288,0.985071 -0.431088,1.48067 -0.132152,0.467002 -0.270574,0.932235 -0.397365,1.400783 -0.09978,0.393343 -0.204269,0.785834 -0.272198,1.186349 -0.01675,0.09027 -0.0516,0.273707 -0.06501,0.364255 -0.03459,0.233616 -0.05504,0.469437 -0.101134,0.701408 -0.04421,0.325969 -0.07766,0.653407 -0.131844,0.977968 -0.01651,0.09956 -0.03577,0.198679 -0.05108,0.298437 -0.03007,0.196033 -0.05015,0.393724 -0.0864,0.588865 -0.03126,0.265541 -0.06664,0.530593 -0.0965,0.7963 -0.03355,0.215694 -0.07447,0.430631 -0.08833,0.648782 -0.0074,0.0759 -0.01521,0.151054 -0.03141,0.225703 -0.0088,0.0405 -0.02387,0.07952 -0.03169,0.120216 -0.0042,0.02183 -0.005,0.04417 -0.0075,0.06625 -0.01683,0.130585 -0.02246,0.261697 -0.03108,0.393023 -0.0027,0.04338 -0.004,0.04042 -0.0013,0.08075 5.29e-4,0.0094 0.01106,0.02331 0.0029,0.02811 -0.947981,0.5622 -0.611997,0.5196 -0.577096,0.285271 0.006,-0.106013 0.003,-0.212587 0.0164,-0.318206 0.01834,-0.139764 0.04549,-0.277799 0.07396,-0.415825 0.0079,-0.04371 0.01849,-0.08695 0.02468,-0.130931 0.01069,-0.07587 0.01013,-0.153416 0.02355,-0.229034 0.0087,-0.126834 0.02313,-0.253005 0.0515,-0.377166 0.0095,-0.0436 0.02273,-0.08641 0.0302,-0.130398 0.01453,-0.08561 0.0181,-0.173611 0.03966,-0.258291 0.01815,-0.112789 0.04992,-0.223515 0.04725,-0.338548 0.0079,-0.12256 0.01709,-0.245028 0.02746,-0.367405 -0.0026,-0.10136 -0.0013,-0.20273 -0.0016,-0.304113 7.94e-4,-0.102891 2.09e-4,-0.205785 0.0011,-0.308676 0.0016,-0.126378 0.0028,-0.252777 0.003,-0.379163 0.0026,-0.127852 0.0019,-0.257041 0.02548,-0.383136 0.02437,-0.125619 0.06375,-0.248412 0.06952,-0.377081 0.01521,-0.15062 0.0081,-0.303374 0.04184,-0.452155 0.03967,-0.20388 0.100047,-0.403494 0.12482,-0.610354 0.0047,-0.02966 0.03249,-0.204657 0.03565,-0.232259 0.01963,-0.17213 0.02661,-0.346046 0.05842,-0.5168 0.03309,-0.265628 0.06852,-0.530683 0.08913,-0.797713 0.03245,-0.261705 0.09025,-0.518364 0.137261,-0.777703 0.04778,-0.233043 0.09631,-0.466188 0.165748,-0.693979 0.05293,-0.217048 0.130723,-0.426238 0.199141,-0.638749 0.0624,-0.21264 0.127738,-0.424248 0.187309,-0.637693 0.07948,-0.239101 0.131755,-0.487127 0.234104,-0.718434 0.09276,-0.238757 0.173701,-0.482306 0.280646,-0.715399 0.07171,-0.164581 0.141957,-0.3307 0.193492,-0.502864 0.02186,-0.06613 0.04887,-0.129982 0.07141,-0.1958 0.0463,-0.13517 -0.01013,0.02064 0.02849,-0.101814 0.0034,-0.0109 0.0086,-0.02117 0.01291,-0.03175 0,0 0.594453,-0.263469 0.594453,-0.263469 z"
     inkscape:connector-curvature="0" />
  <path
     style="fill:#000000;stroke-width:0.26458332"
     id="path5440"
     d="m 52.738451,54.093109 c -0.02151,0.256524 -0.01757,0.5143 -0.01976,0.771486 0.0062,0.297304 0.0081,0.592666 -0.05483,0.884227 -0.127156,0.363127 -0.2241,0.735245 -0.341204,1.101709 -0.171847,0.513339 -0.314968,1.030308 -0.39673,1.565674 -0.06631,0.516618 -0.05901,1.037543 -0.09806,1.55638 -0.02646,0.50038 -0.141139,0.989833 -0.199014,1.486831 -0.07474,0.545208 -0.09838,1.095253 -0.159909,1.641732 -0.0965,0.605504 -0.163483,1.215189 -0.25214,1.821661 -0.13762,0.651815 -0.138978,1.320181 -0.23174,1.977105 -0.107263,0.585684 -0.182428,1.174982 -0.225076,1.768657 -0.04335,0.577919 -0.07615,1.156121 -0.105437,1.734926 -0.07445,0.59954 -0.1256,1.201362 -0.186698,1.802225 -0.03646,0.573995 -0.111342,1.142018 -0.189267,1.711441 -0.07314,0.532948 -0.0791,1.07147 -0.129333,1.606423 -0.09329,0.540825 -0.172509,1.081937 -0.218067,1.62891 -0.07085,0.528548 -0.08158,1.062641 -0.141124,1.592022 -0.100883,0.509937 -0.182112,1.021575 -0.230502,1.539087 -0.02772,0.368482 -0.02871,0.738433 -0.02482,1.107744 0.01982,0.373705 -0.06306,0.739706 -0.116745,1.107085 -0.05259,0.410083 -0.07279,0.824429 -0.07711,1.237679 -0.0013,0.412562 -0.0051,0.825082 -0.0058,1.237652 0.0047,0.407995 0.0019,0.815983 0.0052,1.223997 0.0045,0.353454 0.0021,0.706935 0.0076,1.060415 0,0 -1.596768,0.813597 -1.596768,0.813597 v 0 c 0.0054,-0.356013 0.0032,-0.712021 0.0074,-1.068009 0.003,-0.409456 -1.85e-4,-0.818865 0.0034,-1.228307 -0.0016,-0.412983 -0.0077,-0.825953 0.0011,-1.238904 0.01029,-0.419161 0.01307,-0.838486 0.06534,-1.255353 0.04615,-0.358203 0.129689,-0.712642 0.106162,-1.075679 0.0082,-0.380172 0.01921,-0.760309 0.05289,-1.139283 0.04878,-0.521591 0.140737,-1.036896 0.242874,-1.550482 0.06797,-0.525097 0.06982,-1.057603 0.137086,-1.583414 0.04899,-0.546712 0.131704,-1.089147 0.222805,-1.630289 0.03716,-0.540784 0.07631,-1.08182 0.137444,-1.620628 0.07517,-0.568177 0.153365,-1.13478 0.193119,-1.70697 0.06002,-0.597903 0.119634,-1.195464 0.189838,-1.792259 0.0182,-0.57894 0.07347,-1.156147 0.0938,-1.735129 0.04388,-0.603372 0.134048,-1.200383 0.249258,-1.794113 0.09492,-0.654362 0.102566,-1.319305 0.216572,-1.972032 0.09967,-0.601687 0.149696,-1.211467 0.25127,-1.813216 0.06201,-0.543367 0.06192,-1.093529 0.151315,-1.634673 0.01124,-0.138483 0.02949,-0.388898 0.04875,-0.528966 0.04357,-0.316817 0.14443,-0.625813 0.142687,-0.948563 0.03413,-0.524719 0.05846,-1.050094 0.105121,-1.57394 0.0738,-0.549846 0.201597,-1.05183 0.364668,-1.580859 0.107447,-0.35838 0.176096,-0.726199 0.3068,-1.077182 0.08839,-0.273214 0.07751,-0.557591 0.07465,-0.842092 -0.0021,-0.250452 0.0024,-0.501597 -0.01976,-0.751329 0,0 1.642692,-0.836994 1.642692,-0.836994 z"
     inkscape:connector-curvature="0" />
  <path
     style="fill:#000000;stroke-width:0.26458332"
     id="path5446"
     d="m 49.840178,63.372981 c -0.137961,0.501906 -0.208198,1.019103 -0.255479,1.536427 -0.025,0.722127 -0.131159,1.436394 -0.232071,2.150899 -0.07354,0.64784 -0.238024,1.279083 -0.351734,1.919866 -0.0958,0.650555 -0.132924,1.308098 -0.19168,1.962815 -0.03551,0.662183 -0.177811,1.312783 -0.297083,1.963517 -0.117707,0.6594 -0.146806,1.329275 -0.163941,1.997454 -0.01437,0.583546 -0.0026,1.167352 -0.0049,1.751007 -0.03277,0.708451 -0.01225,1.417346 -0.0099,2.126065 -0.0035,0.736914 -0.0047,1.473869 -0.01336,2.210744 -0.01905,0.908635 -0.01333,1.817658 -0.01143,2.726452 0.0373,0.506227 -0.03587,1.025713 0.0382,1.529958 0.03028,0.20618 2.65e-4,0.18328 0.118338,0.196747 -2.29561,1.104424 -2.64985,1.718786 -1.986727,0.761082 0,0 2.260473,-1.023739 2.260473,-1.023739 v 0 c -0.366665,1.178195 -0.0013,0.260797 -2.489303,1.606066 -0.02962,-0.05309 -0.07306,-0.100571 -0.08886,-0.159279 -0.02119,-0.07878 -0.01535,-0.162492 -0.01961,-0.243962 -0.02733,-0.521549 0.01283,-1.043932 0.0066,-1.565825 0.0019,-0.90491 0.0078,-1.810063 -0.0114,-2.714808 -0.0088,-0.732203 -0.0098,-1.464482 -0.01392,-2.196722 0.0016,-0.704651 0.0213,-1.409546 -0.01371,-2.11384 -0.0037,-0.58837 0.005,-1.17661 0.0155,-1.76488 0.02212,-0.680262 0.06171,-1.360498 0.159967,-2.034659 0.103886,-0.646996 0.259908,-1.288013 0.303774,-1.942438 0.04944,-0.660096 0.110326,-1.319192 0.171325,-1.978023 0.111292,-0.64566 0.287171,-1.276979 0.373981,-1.927164 0.127614,-0.700955 0.211537,-1.411107 0.222224,-2.123842 0.03501,-0.506037 0.100332,-1.008327 0.139424,-1.512649 0,0 2.345341,-1.137269 2.345341,-1.137269 z"
     inkscape:connector-curvature="0" />
  <path
     style="fill:#000000;stroke-width:0.26458332"
     id="path5448"
     d="m 50.112908,58.437406 c -0.0303,0.366165 -0.03066,0.734618 -0.03757,1.10191 -0.0011,0.556636 -0.01804,1.113034 -0.01318,1.669709 -0.0019,0.580919 0.0163,1.162132 -0.01363,1.742477 -0.06079,0.739831 -0.228867,1.466683 -0.349538,2.1986 -0.10423,0.87752 -0.199099,1.755717 -0.307176,2.633012 -0.102047,0.887788 -0.217162,1.770541 -0.359042,2.6528 -0.09465,0.726096 -0.160748,1.45593 -0.228669,2.184992 -0.110011,0.718915 -0.217009,1.437635 -0.283964,2.162032 -0.04626,0.703583 -0.06206,1.407856 -0.113141,2.111317 -0.03499,0.544714 -0.04509,1.090824 -0.04469,1.636562 -7.94e-4,0.408172 -0.0019,0.816388 0.0013,1.224555 -0.0033,0.499824 -0.01331,0.999532 -0.02318,1.499296 -0.01172,0.712181 -0.01199,1.424448 -0.01445,2.136719 0.0019,0.114745 -7.94e-4,0.229653 0.0056,0.344236 0.004,0.07251 0.0031,0.147281 0.02553,0.216361 0.0051,0.01574 0.04746,-0.04453 0.0324,-0.03765 -0.740098,0.338389 -1.474388,0.68934 -2.211581,1.03401 0,0 2.346053,-1.032377 2.346053,-1.032377 v 0 c -0.787929,0.434594 -2.412005,2.086223 -2.42479,1.186479 -0.0028,-0.197697 0.08251,-0.39193 0.03114,-0.592328 -0.0024,-0.707311 -0.0026,-1.414616 -0.01466,-2.121832 -0.01011,-0.491593 -0.02048,-0.983125 -0.02471,-1.474777 0.0026,-0.411752 9.8e-5,-0.823531 0.0099,-1.235225 0.01908,-0.558409 0.04692,-1.116238 0.08877,-1.673474 0.0466,-0.704773 0.105502,-1.407507 0.111032,-2.114465 0.05616,-0.730105 0.192818,-1.447041 0.302427,-2.170465 0.05192,-0.737888 0.123611,-1.475099 0.229034,-2.207247 0.146955,-0.883327 0.325358,-1.760659 0.390247,-2.656001 0.05091,-0.451739 0.126119,-0.903263 0.165529,-1.356058 0.03695,-0.4245 0.03895,-0.853001 0.115329,-1.274048 0.105111,-0.717037 0.25083,-1.430713 0.312441,-2.152071 0.03106,-0.576037 0.0084,-1.153289 0.01802,-1.729954 0.0048,-0.552204 -0.01214,-1.10412 -0.01318,-1.656281 -0.0068,-0.354499 -0.0065,-0.710388 -0.03757,-1.06363 0,0 2.329985,-1.187186 2.329985,-1.187186 z"
     inkscape:connector-curvature="0" />
  <path
     style="fill:#000000;stroke-width:0.26458332"
     id="path5450"
     d="m 50.776981,54.124836 c -0.237514,0.289851 -0.298173,0.666228 -0.392806,1.017632 -0.155228,0.420111 -0.23427,0.855607 -0.276937,1.299514 -0.02058,0.511368 -0.05422,1.021334 -0.09622,1.531379 -0.09075,0.529366 -0.206153,1.054156 -0.313706,1.580309 -0.08928,0.470681 -0.130122,0.94846 -0.143496,1.426808 -0.06605,0.560734 -0.194395,1.111626 -0.289111,1.667753 -0.174019,0.652992 -0.28145,1.315281 -0.345519,1.987058 -0.07707,0.723218 -0.263491,1.429398 -0.395552,2.143861 -0.12156,0.675018 -0.163087,1.360998 -0.172265,2.0458 -0.01921,0.608349 -0.01238,1.216885 -0.01299,1.825361 0.004,0.610298 2.64e-4,1.220523 1.45e-4,1.830829 0.014,0.521531 0.01074,1.043128 0.01458,1.564709 0.0028,0.484568 5.29e-4,0.96906 0.0016,1.45365 0.0067,0.500896 -0.0066,1.001551 -0.0058,1.502487 -0.004,0.526036 0.0039,1.051948 0.0016,1.578001 -0.008,0.549151 -0.004,1.098336 10e-6,1.64751 0.01013,0.51281 -0.0029,1.025496 -0.0016,1.538375 0.01384,0.490191 -0.03128,0.987345 0.02764,1.47511 0.52874,0.727128 0.05875,0.04408 -2.226593,1.108726 0,0 2.415217,-0.961565 2.415217,-0.961565 v 0 c -2.460085,1.190781 -2.189903,2.035644 -2.453394,1.030526 -0.02548,-0.503179 0.01122,-1.00729 -0.004,-1.510879 0.0013,-0.5123 -0.01183,-1.024401 -0.0016,-1.536631 0.004,-0.549178 0.008,-1.098371 1e-5,-1.647521 -0.0024,-0.526553 0.0055,-1.052965 0.0016,-1.579497 7.94e-4,-0.498953 -0.01259,-0.997616 -0.0058,-1.496528 0.0011,-0.485156 -0.0011,-0.970214 0.0016,-1.455351 0.0038,-0.526381 5.29e-4,-1.05278 0.014,-1.579118 -7.94e-4,-0.609523 -0.0058,-1.218967 -0.0043,-1.828488 -0.0024,-0.610581 -0.0013,-1.221346 0.007,-1.831869 0.03592,-0.70082 0.07414,-1.402432 0.190087,-2.095714 0.12768,-0.70549 0.294106,-1.405001 0.387408,-2.115061 0.05845,-0.670933 0.150638,-1.340059 0.318582,-1.993252 0.08427,-0.54443 0.201012,-1.082283 0.280922,-1.627536 0.01812,-0.491813 0.03005,-0.985174 0.135974,-1.46825 0.09713,-0.521338 0.217575,-1.037558 0.326642,-1.556316 0.04438,-0.508169 0.07552,-1.01472 0.084,-1.524725 0.03197,-0.456581 0.07822,-0.911529 0.241498,-1.343276 0.121031,-0.344001 0.146129,-0.716492 0.293457,-1.054394 0,0 2.398512,-1.049427 2.398512,-1.049427 z"
     inkscape:connector-curvature="0" />
  <path
     style="fill:#000000;stroke-width:0.26458332"
     id="path5454"
     d="m 49.315724,63.349771 c -0.06773,0.51734 -0.178626,1.027367 -0.291989,1.536386 -0.118914,0.6674 -0.285065,1.324162 -0.433882,1.985346 -0.136155,0.576151 -0.192924,1.163907 -0.230548,1.753208 -0.02429,0.710539 -0.153508,1.416563 -0.308599,2.109187 -0.203959,0.740566 -0.28802,1.502682 -0.368242,2.26392 -0.04371,0.726372 -0.129484,1.443522 -0.245348,2.161429 -0.08178,0.529151 -0.110797,1.063445 -0.128794,1.597822 -0.0075,0.446505 -0.01553,0.892765 -0.01045,1.339352 -0.01005,0.473575 5.29e-4,0.947177 0.0019,1.420765 -0.0069,0.464505 -0.0035,0.929217 0.0024,1.393735 0.0028,0.407305 0.0011,0.814626 0.0039,1.221928 2.65e-4,0.39647 -0.0021,0.792961 2.12e-4,1.189429 -0.0065,0.487786 -0.01109,0.97559 -0.01929,1.463387 -0.0021,0.568478 0.0046,1.136898 -0.0026,1.70535 -0.01471,0.591939 0.01683,1.181947 0.05095,1.772529 0.03839,0.679611 0.05624,1.359651 0.06796,2.040136 0.01408,0.656124 0.005,1.312275 0.0058,1.96847 -0.04285,0.668415 0.07229,1.325248 0.153263,1.985132 0.07055,0.513824 0.11321,1.030976 0.130074,1.549233 0.0044,0.404318 0.07017,0.804006 0.102122,1.206453 0.03481,0.43852 0.02685,0.879062 0.03417,1.318643 -0.0068,0.525336 0.116644,1.039868 0.17304,1.560111 0.06855,0.572138 0.05958,1.149258 0.08855,1.723928 0.04379,0.50669 0.09061,1.01275 0.120872,1.52048 0,0 -2.257991,1.16196 -2.257991,1.16196 v 0 c -0.01069,-0.5115 -0.04002,-1.02242 -0.08537,-1.53203 -0.04412,-0.56922 -0.02437,-1.14231 -0.08684,-1.71092 -0.03261,-0.27323 -0.06733,-0.54563 -0.115068,-0.81674 -0.01109,-0.063 -0.08943,-0.458584 -0.09608,-0.529863 -0.0069,-0.07431 -2.64e-4,-0.149254 -5.29e-4,-0.223879 0.0016,-0.43274 -0.0087,-0.865111 -0.03565,-1.297078 -0.03229,-0.408048 -0.09708,-0.814432 -0.09949,-1.223708 -0.0075,-0.517763 -0.01712,-1.035966 -0.07307,-1.551324 -0.08019,-0.669771 -0.202454,-1.336394 -0.164021,-2.013373 0.0011,-0.655161 -0.0065,-1.310344 -0.0047,-1.965476 -0.0053,-0.675005 -0.0158,-1.350841 -0.06807,-2.024068 -0.04881,-0.593981 -0.09479,-1.186174 -0.06887,-1.782902 -0.0072,-0.567587 -5.29e-4,-1.135148 -0.0026,-1.702763 -0.0082,-0.48124 -0.01283,-0.962494 -0.01929,-1.443721 0.0024,-0.396544 -5.3e-5,-0.793107 2.22e-4,-1.189653 0.0029,-0.408634 0.0011,-0.817285 0.0039,-1.225921 0.0057,-0.465161 0.0092,-0.930524 0.0019,-1.395664 7.93e-4,-0.473532 0.01008,-0.947113 -0.0016,-1.420601 0.0038,-0.449632 -0.0091,-0.899369 0.0077,-1.34875 0.02183,-0.553223 0.07764,-1.104527 0.168913,-1.650775 0.05097,-0.339627 0.127124,-0.679053 0.169138,-1.019596 0.04669,-0.378455 0.05363,-0.762995 0.1041,-1.141314 0.07711,-0.768885 0.131276,-1.539796 0.345654,-2.287268 0.161772,-0.670935 0.275286,-1.361712 0.294482,-2.052254 0.01894,-0.60584 0.07533,-1.210863 0.228163,-1.799452 0.144862,-0.662802 0.314836,-1.319062 0.440783,-1.985716 0.09384,-0.47388 0.181311,-0.94642 0.195926,-1.429822 0,0 2.323116,-1.183688 2.323116,-1.183688 z"
     inkscape:connector-curvature="0" />
</svg>
