<?xml version="1.0" encoding="UTF-8" standalone="no"?>
<!-- Created with Inkscape (http://www.inkscape.org/) -->

<svg
   xmlns:dc="http://purl.org/dc/elements/1.1/"
   xmlns:cc="http://creativecommons.org/ns#"
   xmlns:rdf="http://www.w3.org/1999/02/22-rdf-syntax-ns#"
   xmlns:svg="http://www.w3.org/2000/svg"
   xmlns="http://www.w3.org/2000/svg"
   xmlns:sodipodi="http://sodipodi.sourceforge.net/DTD/sodipodi-0.dtd"
   xmlns:inkscape="http://www.inkscape.org/namespaces/inkscape"
   width="99mm"
   height="148mm"
   viewBox="0 0 99 148"
   version="1.1"
   id="svg3848"
   inkscape:version="0.92.2 (5c3e80d, 2017-08-06)"
   sodipodi:docname="icon9.svg">
  <defs
     id="defs3842" />
  <sodipodi:namedview
     id="base"
     pagecolor="#ffffff"
     bordercolor="#666666"
     borderopacity="1.0"
     inkscape:pageopacity="0.0"
     inkscape:pageshadow="2"
     inkscape:zoom="0.7"
     inkscape:cx="263.68276"
     inkscape:cy="300.89322"
     inkscape:document-units="mm"
     inkscape:current-layer="layer1"
     showgrid="false"
     inkscape:window-width="746"
     inkscape:window-height="731"
     inkscape:window-x="751"
     inkscape:window-y="150"
     inkscape:window-maximized="0" />
  <metadata
     id="metadata3845">
    <rdf:RDF>
      <cc:Work
         rdf:about="">
        <dc:format>image/svg+xml</dc:format>
        <dc:type
           rdf:resource="http://purl.org/dc/dcmitype/StillImage" />
        <dc:title></dc:title>
      </cc:Work>
    </rdf:RDF>
  </metadata>
  <g
     inkscape:label="Layer 1"
     inkscape:groupmode="layer"
     id="layer1"
     transform="translate(0,-149)">
    <path
       id="path3934"
       style="fill:#000000;stroke-width:0.28601703"
       d="m 25.061264,195.76523 c -0.536685,0.0137 -1.073684,0.005 -1.610494,0.004 -0.08498,1e-5 -0.169977,-6e-5 -0.254962,0 l -3.554999,1.82411 c 0.009,0.0451 0.01568,0.0905 0.02449,0.13566 0.101283,0.14609 0.166397,0.35551 0.174799,0.62224 0.04634,0.1078 0.08277,0.233 0.104657,0.37838 0.01238,0.0822 0.02491,0.16444 0.0373,0.24666 0.01807,0.11175 0.14833,0.9086 0.154759,0.98212 0.01842,0.21067 -0.0011,0.4234 -0.01503,0.6357 0.33977,2.60897 0.493619,5.24198 0.64687,7.86934 0.330619,6.7501 0.554309,13.49836 1.23807,20.2244 0.634529,5.4351 1.178656,10.87871 1.74577,16.32112 0.288854,4.32946 0.866565,8.62907 1.459631,12.92517 0.269908,2.96883 0.795426,5.90183 1.185743,8.85483 0.04834,1.05969 0.229763,2.07436 0.499903,3.09156 0.02346,0.009 0.03932,0.0731 0.05233,0.15753 l 5.322477,-2.91835 c -0.294053,-1.03844 -0.459347,-2.07722 -0.565036,-3.1538 -0.460171,-2.90815 -1.145256,-5.77669 -1.457405,-8.7102 -0.413233,-2.71897 -0.901307,-5.43573 -1.202443,-8.17037 -0.08366,-0.75974 -0.125883,-1.52402 -0.203746,-2.28434 -0.07983,-0.77959 -0.179756,-1.55686 -0.269436,-2.33535 -0.649021,-5.40165 -1.207373,-10.81383 -1.97568,-16.2006 -0.375635,-3.02368 -0.438602,-3.26579 -0.684726,-6.36084 -0.366437,-4.60804 -0.368669,-9.23023 -0.489884,-13.84899 -0.02694,-3.11777 -0.01685,-2.74333 -0.06791,-5.70441 -0.02622,-1.51981 -0.118231,-3.0599 -0.07293,-4.58437 -0.07404,-1.8e-4 -0.148036,-0.003 -0.222119,-0.001 z"
       inkscape:connector-curvature="0" />
    <path
       style="fill:#000000;stroke-width:0.28601703"
       id="path3940"
       d="m 81.163698,196.23939 c -0.147134,0.98531 -0.08128,1.99015 -0.163986,2.97985 -0.0667,0.79822 -0.234796,1.645 -0.372639,2.43045 -0.511096,3.0921 -0.907315,6.20052 -1.382689,9.29826 -0.385924,2.43261 -0.549675,4.89368 -0.850031,7.33582 -0.06061,0.49278 -0.51191,3.37133 -0.588836,3.86633 -0.537192,3.72384 -1.232435,7.41994 -1.71522,11.15203 -0.257977,2.12403 -0.279776,4.27712 -0.630764,6.39091 -0.07521,0.45295 -0.578092,2.74912 -0.676664,3.20435 -0.691215,3.25767 -1.112213,6.56372 -1.379601,9.88142 -0.349038,2.7757 -0.675205,5.55292 -0.844262,8.34642 -0.05168,1.83312 -0.15574,3.67206 -0.02955,5.50382 0.04769,0.22629 0.09539,0.45259 0.143087,0.67888 0,0 -5.458125,2.95723 -5.458125,2.95723 v 0 c -0.06161,-0.25732 -0.123214,-0.51463 -0.184821,-0.77195 -0.0978,-1.88623 0.05522,-3.78126 0.167286,-5.66386 0.219004,-2.82381 0.612376,-5.62465 0.993326,-8.43046 0.282635,-3.33848 0.709079,-6.66314 1.348452,-9.9526 0.178662,-0.81865 0.513658,-2.305 0.653402,-3.13686 0.263091,-1.56612 0.404765,-3.1403 0.554867,-4.71914 0.05482,-0.57657 0.125778,-1.15147 0.188669,-1.72721 0.481407,-3.7484 1.23825,-7.45215 1.764329,-11.19317 0.577321,-3.71111 0.926246,-7.44474 1.394862,-11.17104 0.147409,-1.15406 0.329721,-2.3035 0.470312,-3.45843 0.232961,-1.91372 0.338958,-3.84656 0.690683,-5.74452 0.03159,-0.21152 0.308204,-2.01339 0.322982,-2.29528 0.04883,-0.93129 -0.09572,-1.88502 -0.163985,-2.81157 0,0 5.748921,-2.94968 5.748921,-2.94968 z"
       inkscape:connector-curvature="0" />
    <path
       id="path3964"
       style="fill:#000000;stroke-width:0.32920969"
       d="m 32.27258,267.11962 -5.527896,2.7754 c 2.36e-4,0.005 0.0014,0.007 0.0017,0.0123 0.03899,0.003 0.0059,0.0784 0.0023,0.12501 5.7e-4,0.0251 0.0011,0.0524 0.0017,0.0802 1.06e-4,0.004 5.7e-4,0.006 5.7e-4,0.009 0.03348,-0.0758 0.06929,-0.15031 0.113565,-0.22086 0.08219,-0.13097 0.09436,0.29485 0.131934,0.44509 0.004,0.0157 -0.01194,0.0325 -0.0084,0.0482 0.07361,0.32169 0.135891,0.36251 0.170347,0.67493 0.02892,0.0152 0.05893,0.0284 0.08684,0.0454 0.08204,0.0499 0.14439,0.12669 0.219893,0.18611 0.26052,0.20504 0.539415,0.38552 0.792163,0.60093 -0.05009,-0.0193 -0.194965,-0.0876 -0.150304,-0.0577 0.09615,0.0643 0.206585,0.10478 0.306733,0.16256 0.02101,0.0121 0.04037,0.0268 0.06124,0.0392 1.277743,0.43689 2.606858,0.78854 3.906266,1.13909 3.544167,0.97044 7.216686,1.50505 10.921632,1.837 2.943953,0.2364 5.900619,0.26707 8.85577,0.24385 4.66572,0.003 9.105001,-1.1972 13.385526,-2.60499 2.704807,-1.04935 1.413035,-0.51321 3.88066,-1.59763 l 5.775622,-3.81864 c -2.534996,1.18762 -1.216127,0.60512 -3.962494,1.73946 -4.100441,1.42431 -8.372906,2.66467 -12.890631,2.59883 -2.956123,-0.0305 -5.916477,-0.005 -8.868014,-0.16425 -3.677955,-0.25058 -7.346081,-0.6709 -10.828666,-1.72377 -1.543548,-0.4087 -2.953225,-0.87279 -4.405061,-1.46254 -0.743754,-0.30212 -1.454902,-0.55551 -1.972898,-1.11218 z"
       inkscape:connector-curvature="0" />
    <path
       id="path4072"
       style="fill:#000000;stroke-width:0.27902806"
       d="m 82.888184,194.67659 c -1.004953,0.1388 -2.004547,0.3169 -2.996087,0.5404 -1.617901,0.35675 -3.297539,0.219 -4.935583,0.44846 -2.526354,0.21507 -5.070556,0.11033 -7.600994,0.24833 -6.1701,0.16596 -12.342443,0.18121 -18.514281,0.18555 -6.161888,-0.0157 -12.323924,-0.0558 -18.484216,-0.2175 -1.036118,-0.0306 -2.07313,-0.055 -3.109649,-0.0902 -0.0065,8.6e-4 -0.03662,0.005 -0.04064,0.006 -0.715745,0.0255 -1.429535,-0.0458 -2.145471,-0.0319 -0.365144,0.009 -0.730279,0.008 -1.095559,0.006 l -4.003131,3.07643 c 0.0065,0.0428 0.01304,0.0856 0.01948,0.12838 0.008,0.0495 0.03696,0.23909 0.06847,0.435 1.990692,-0.10212 3.984459,-0.14611 5.976587,-0.20069 6.348912,-0.15758 12.699409,-0.20144 19.049809,-0.2175 6.01094,0.007 12.0226,0.0117 18.03163,0.18555 2.378421,0.0132 4.759547,0.23029 7.137835,0.15024 1.644796,-0.18087 3.30463,-0.18069 4.946716,-0.37727 0.989199,-0.20368 1.980642,-0.38818 2.977717,-0.54263 z"
       inkscape:connector-curvature="0" />
    <path
       id="path4149"
       style="fill:#000000;stroke-width:0.28601703"
       d="m 63.062035,173.93526 -3.16365,1.55728 c -0.301954,1.56187 -0.440997,3.14282 -0.728703,4.70826 -0.0763,0.36554 -0.162126,0.72903 -0.228799,1.09648 -0.0742,0.40897 -0.111404,0.8241 -0.193169,1.23159 -0.363074,1.80943 -0.97484,3.55526 -1.484684,5.32433 -0.704228,2.35947 -1.172504,4.77394 -1.732963,7.17031 -0.803076,2.5465 -1.592352,5.10208 -2.334188,7.66866 -0.112639,0.44943 -0.210091,0.90289 -0.337907,1.34818 -0.88774,3.09274 0.03122,-0.53737 -0.81499,2.71038 -0.374302,1.43656 -0.621391,2.89765 -0.93913,4.34725 -0.64631,3.20441 -0.900774,6.46827 -1.417324,9.69121 -0.283305,1.38347 -0.359683,2.80282 -0.584521,4.19366 -0.208661,1.29074 -0.580057,2.56312 -0.843379,3.84385 -0.498401,2.31964 -0.664902,4.69006 -0.918533,7.04531 -0.459111,1.89726 -0.792605,3.80446 -0.945811,5.75149 -0.08175,1.73636 -0.272616,3.46237 -0.442564,5.19147 -0.100249,1.51083 -0.147306,3.02741 -0.144183,4.54178 -0.0071,1.54453 0.0012,3.08859 5.71e-4,4.63314 l 5.510081,-2.82809 c -0.0029,-1.54396 -5.69e-4,-3.08758 0.01002,-4.63147 0.03056,-1.49974 0.02631,-3.00128 0.160325,-4.49692 0.120976,-1.71661 0.303633,-3.4283 0.365186,-5.14888 0.196889,-1.92465 0.580468,-3.81031 0.887914,-5.71842 0.193167,-2.32812 0.47207,-4.65403 0.884576,-6.95336 0.273606,-1.28842 0.596797,-2.57817 0.794392,-3.88142 0.209039,-1.37872 0.280434,-2.77993 0.539986,-4.15217 0.419799,-3.22825 0.663446,-6.48423 1.441816,-9.65702 0.307216,-1.44127 0.568369,-2.89318 0.964183,-4.31362 0.709678,-2.54675 0.138924,-0.27215 0.838369,-2.74401 0.124218,-0.439 0.227493,-0.88334 0.341249,-1.32519 0.768307,-2.58144 1.588086,-5.14638 2.380947,-7.72024 0.612039,-2.3606 1.000404,-4.77094 1.680079,-7.11593 0.767309,-2.56296 1.539489,-5.1256 2.00296,-7.76676 0.166451,-0.87689 0.321837,-1.75662 0.498791,-2.63189 -0.01673,-0.01 -0.03198,-0.0227 -0.04954,-0.0314 -0.07029,-0.0347 -0.160845,-0.0202 -0.226016,-0.0639 -0.29318,-0.19669 -0.519632,-0.40208 -0.717568,-0.63008 -0.166423,-0.0665 -0.307128,-0.0406 -0.527183,-0.0913 -0.177958,-0.0411 -0.35724,-0.084 -0.526624,-0.15248 z"
       inkscape:connector-curvature="0" />
    <path
       style="fill:#000000;stroke-width:0.28601703"
       id="path4161"
       d="m 48.373886,255.19967 c 0.242762,0.98382 0.942025,1.3664 1.901855,1.1995 1.183561,-0.934 -0.468156,0.39954 -2.086226,1.04941 -0.151863,0.061 0.175735,-0.27989 0.236259,-0.43283 0.237465,-0.60006 0.269144,-1.23619 0.291377,-1.87107 -0.07568,-0.48872 -0.167805,-1.11986 -0.594781,-1.45334 -0.05803,-0.0454 -0.144371,-0.0716 -0.214629,-0.0501 -0.0663,0.0203 -0.198653,0.18904 -0.136723,0.15773 0.872184,-0.44118 1.720225,-0.92918 2.580338,-1.39377 -0.317104,1.08846 -0.507883,2.10627 -1.016717,3.14266 -0.707125,1.0361 -0.400173,0.65518 -3.090263,1.43883 -0.119208,0.0347 0.0094,-1.85513 0.01619,-1.99769 0.01109,-0.23669 0.0252,-0.47324 0.03329,-0.71005 0.0071,-0.20768 0.02012,-0.41563 0.01223,-0.62329 -0.0043,-0.11306 -0.01973,-0.22654 -0.04867,-0.33586 -0.0041,-0.0155 -0.05894,-0.01 -0.04471,-0.0167 2.952367,-1.48161 3.35228,-2.2669 2.641698,-1.08339 -0.289105,0.66695 -0.155259,0.3145 -0.393772,1.06031 0,0 -2.826566,1.34805 -2.826566,1.34805 v 0 c 0.206126,-0.75888 0.101272,-0.39485 0.31222,-1.09278 0.582851,-1.27392 0.159126,-0.49794 3.065316,-1.86431 0.03916,-0.0184 0.08651,0.14126 0.08229,0.56542 -0.0044,0.44421 -0.05993,0.88716 -0.03863,1.33214 -0.07337,2.64822 0.597985,1.41391 -2.826199,3.35728 -0.06498,0.0369 0.139842,-0.0523 0.209761,-0.0785 0.619236,-0.95107 0.868655,-2.03265 0.98367,-3.15241 0.965195,-0.62261 1.900907,-1.29419 2.895582,-1.86781 0.07761,-0.0448 0.183059,0.009 0.264488,0.0455 0.648049,0.29638 0.777407,1.25978 0.910142,1.85366 0.0067,2.66318 -0.59375,3.52671 -3.762278,4.56141 -1.065985,-0.0315 -1.853351,-0.59939 -2.230979,-1.61309 0,0 2.87446,-1.47484 2.87446,-1.47484 z"
       inkscape:connector-curvature="0" />
    <path
       style="fill:#000000;stroke-width:0.28601703"
       id="path4165"
       d="m 48.45058,256.88235 c -0.560744,0.009 -1.094114,-0.0783 -1.607134,-0.30584 -0.483553,-0.30776 -0.661647,-0.76518 -0.673863,-1.31801 -0.0026,-0.0155 -0.02189,-0.0395 -0.008,-0.0466 1.858818,-0.95174 1.468763,-1.00395 1.343564,0.28834 -0.04669,0.2657 -0.105355,0.53167 -0.212525,0.7802 -0.230786,0.53519 -1.24651,0.7264 -1.520688,0.82002 -0.06765,0.0231 -0.04667,-0.13596 -0.07,-0.20396 -0.07526,-0.65156 -0.08044,-1.31206 -0.04577,-1.96646 0.01002,-0.12216 0.009,-0.24577 0.03017,-0.36648 0.07411,-0.4225 0.255001,-0.82507 0.368558,-1.23712 0.444278,-1.6121 -0.218294,0.67225 0.251428,-0.93012 0.272154,-0.80883 0.514455,-1.6188 0.648961,-2.46291 0.219976,-0.86618 0.338865,-1.74967 0.468065,-2.63222 0.03552,-0.13729 0.07103,-0.27458 0.106551,-0.41187 0,0 1.389989,-0.66628 1.389989,-0.66628 v 0 c -0.0384,0.13212 -0.0768,0.26424 -0.115199,0.39637 -0.144187,0.87834 -0.242318,1.76402 -0.461424,2.62922 -0.132014,0.85458 -0.369345,1.67623 -0.656722,2.49031 -0.139494,0.45087 -0.231833,0.90956 -0.370799,1.36034 -0.04512,0.14635 -0.20998,0.60886 -0.241461,0.76796 -0.02362,0.11941 -0.02362,0.24236 -0.03543,0.36354 -0.03964,0.63015 -0.02516,1.26793 0.06454,1.89351 0.111763,0.59364 0.03381,0.0486 -1.347338,0.85737 -0.02875,0.0168 0.07024,-0.013 0.09236,-0.038 0.170915,-0.19315 0.186884,-0.51016 0.259693,-0.74133 0.08993,-1.30578 -0.150734,-0.79838 1.515821,-1.69419 0.01077,-0.005 -0.01767,0.0169 -0.02653,0.0255 -0.05721,0.53316 0.08011,0.87326 0.545236,1.17034 0.516371,0.21185 1.057585,0.2636 1.612816,0.22368 0,0 -1.304977,0.95474 -1.304977,0.95474 z"
       inkscape:connector-curvature="0" />
    <path
       id="path4167"
       style="fill:#000000;stroke-width:0.28601703"
       d="m 62.655654,173.70711 c -0.07328,0.0166 -0.104849,0.0266 -0.224345,0.0488 -0.15214,0.0282 -0.305691,0.0456 -0.458711,0.0684 -0.219491,0.0739 -0.880229,0.30309 -1.07162,0.33466 -0.08073,0.0133 -0.160805,0.005 -0.241047,-0.009 -0.07862,0.0572 -0.182245,0.15529 -0.227682,0.22197 -0.03237,0.0475 -0.05128,0.10262 -0.07683,0.15417 -0.02437,0.0916 -0.054,0.20578 -0.0501,0.31223 -0.04437,0.0439 -0.08841,0.0886 -0.13249,0.1323 -0.21069,0.25754 -0.286736,0.4492 -0.184265,0.7792 0.0886,0.14149 0.211481,0.18969 0.33791,0.17714 0.01929,0.0581 0.04035,0.11505 0.07293,0.16761 v 10e-4 l 0.689179,-0.41202 c -0.05723,-0.0958 -0.09091,-0.172 -0.116906,-0.23937 0.06165,0.0155 0.129737,0.0276 0.211542,0.0354 0.387452,-0.0607 0.294928,-0.0466 0.739279,-0.34195 0.483434,0.10869 0.576592,-0.0704 1.189084,-0.39521 0.185488,-0.0984 0.330775,-0.24675 0.435884,-0.42771 0.02208,-0.0795 0.03567,-0.15447 0.04342,-0.22704 -8.55e-4,-1.9e-4 -0.0014,-2.7e-4 -0.0023,-5.7e-4 -0.189791,-0.0438 -0.382083,-0.0871 -0.56114,-0.16425 -0.131718,-0.0566 -0.25051,-0.13888 -0.371865,-0.21638 z m -0.181481,0.20798 c 0.01413,0.023 0.02728,0.0453 0.04509,0.0745 0.0071,0.0777 -0.01002,0.14685 -0.0423,0.21021 -0.05447,0.01 -0.11467,0.0146 -0.184818,0.0191 0.0187,-0.10468 0.05826,-0.207 0.102426,-0.30214 0.02651,-8.7e-4 0.0531,-0.001 0.07961,-0.002 z m 1.406189,0.21302 c 0.0059,0.0114 0.01311,0.0197 0.01839,0.0325 0.0012,0.0311 0.0094,0.063 0.0033,0.0936 -0.03282,0.16612 -0.321367,0.3704 -0.439783,0.47704 l 0.71924,-0.29486 c 0.02884,-0.0258 0.06014,-0.0527 0.09074,-0.0791 -0.05952,-0.0587 -0.115118,-0.11933 -0.169233,-0.18162 -0.07476,-0.0279 -0.147707,-0.0406 -0.222674,-0.0476 z m -0.979767,0.0791 c 0.02397,0.13188 -0.0017,0.27528 -0.05678,0.44397 -0.0155,0.0182 -0.02251,0.0258 -0.03506,0.0409 -0.04734,0.009 -0.113012,0.0254 -0.148636,0.023 -0.0541,-0.003 -0.106175,-0.0229 -0.159212,-0.0342 -0.03997,-0.0268 -0.08689,-0.0448 -0.119687,-0.0802 -0.02175,-0.0234 -0.03703,-0.0488 -0.05121,-0.0745 0.189139,-0.0796 0.400666,-0.18741 0.570603,-0.31896 z m -1.545919,0.43162 c 0.05687,0.0336 0.124595,0.0508 0.196512,0.0572 0.03272,0.0519 0.05636,0.10905 0.07849,0.17321 0.002,0.0426 -0.0014,0.0827 -0.0072,0.12109 -0.190662,-0.0284 -0.287701,-0.11542 -0.296716,-0.3257 0.01023,-0.008 0.01893,-0.0176 0.02895,-0.0258 z m 1.240299,0.26122 c -0.01066,0.008 -0.01334,0.0127 -0.0256,0.0213 -0.05567,0.0391 -0.230233,0.14348 -0.175914,0.10262 0.06243,-0.047 0.132759,-0.0847 0.201523,-0.1239 z m -1.947847,0.21247 c 0.01202,0.0677 0.03244,0.12385 0.06235,0.16929 -0.01371,0.009 -0.02402,0.0141 -0.04008,0.0246 -0.01453,-0.0613 -0.02357,-0.12726 -0.02226,-0.19395 z m -0.484318,0.65978 c -8.55e-4,0.002 5.7e-4,0.008 -5.71e-4,0.009 -0.0081,0.0143 -0.0581,0.0272 -0.04453,0.0186 0.01488,-0.01 0.03014,-0.0182 0.04509,-0.0274 z"
       inkscape:connector-curvature="0" />
    <path
       id="path4191"
       style="fill:#000000;stroke-width:0.28601703"
       d="m 62.395681,173.76148 c -0.140503,0.0245 -0.281962,0.0417 -0.423083,0.0628 -0.177849,0.0599 -0.634018,0.21657 -0.906842,0.29262 0.120012,0.023 0.240026,0.0458 0.35962,0.0712 0.375689,0.0597 0.759593,0.0122 1.137312,0.065 0.377445,0.0494 0.741306,0.13705 1.07162,0.33691 0.277914,0.19184 0.50503,0.42819 0.472626,0.79153 -0.01559,0.0501 -0.02534,0.10284 -0.04676,0.15079 -0.0964,0.21578 -0.302436,0.35668 -0.458708,0.52415 l 0.742621,-0.30945 c 0.150645,-0.1689 0.349444,-0.31376 0.429201,-0.53534 0.01945,-0.054 0.02454,-0.11209 0.03674,-0.16818 0.0075,-0.27982 -0.104299,-0.48943 -0.276672,-0.66484 -0.06733,-0.0336 -0.141805,-0.0512 -0.212656,-0.0768 -0.277607,-0.22447 -0.428903,-0.14413 -0.732043,-0.21413 -0.189791,-0.0438 -0.382082,-0.0871 -0.56114,-0.16425 -0.09497,-0.0409 -0.182871,-0.0953 -0.269991,-0.15192 -0.120493,-0.003 -0.241398,-0.005 -0.361846,-0.01 z"
       inkscape:connector-curvature="0" />
    <ellipse
       style="fill:#000000;stroke-width:0.31517541"
       id="path4386-8"
       ry="3.2801611"
       rx="3.4609993"
       cy="255.78995"
       cx="36.350071" />
    <ellipse
       style="fill:#000000;stroke-width:0.31517541"
       id="path4386-89"
       ry="3.2801611"
       rx="3.4609993"
       cy="251.27972"
       cx="51.415596" />
    <ellipse
       style="fill:#000000;stroke-width:0.31517541"
       id="path4386-7"
       ry="3.2801611"
       rx="3.4609993"
       cy="258.25009"
       cx="59.151947" />
    <ellipse
       style="fill:#000000;stroke-width:0.31517541"
       id="path4386-6"
       ry="3.2801611"
       rx="3.4609993"
       cy="260.71024"
       cx="45.307953" />
    <ellipse
       style="fill:#000000;stroke-width:0.31517541"
       id="path4386-78"
       ry="3.2801611"
       rx="3.4609993"
       cy="266.86053"
       cx="54.673008" />
    <ellipse
       style="fill:#000000;stroke-width:0.31517541"
       id="path4386-75"
       ry="3.2801611"
       rx="3.4609993"
       cy="263.17035"
       cx="37.978779" />
    <ellipse
       style="fill:#000000;stroke-width:0.31517541"
       id="path4386-4"
       ry="3.2801611"
       rx="3.4609993"
       cy="267.27054"
       cx="45.307953" />
    <ellipse
       style="fill:#000000;stroke-width:0.31517541"
       id="path4386-40"
       ry="3.2801611"
       rx="3.4609993"
       cy="266.86053"
       cx="62.409359" />
    <ellipse
       style="fill:#000000;stroke-width:0.31517541"
       id="path4386-81"
       ry="3.2801611"
       rx="3.4609993"
       cy="253.73987"
       cx="62.816536" />
    <ellipse
       style="fill:#000000;stroke-width:0.31517541"
       id="path4386-3"
       ry="3.2801611"
       rx="3.4609993"
       cy="251.27972"
       cx="42.457718" />
    <ellipse
       style="fill:#000000;stroke-width:0.31517541"
       id="path4386-1"
       ry="3.2801611"
       rx="3.4609993"
       cy="257.43005"
       cx="52.22995" />
    <ellipse
       style="fill:#000000;stroke-width:0.31517541"
       id="path4386-37"
       ry="3.2801611"
       rx="3.4609993"
       cy="259.48013"
       cx="66.888298" />
  </g>
</svg>
