<?xml version="1.0" encoding="UTF-8" standalone="no"?>
<!-- Created with Inkscape (http://www.inkscape.org/) -->

<svg
   xmlns:dc="http://purl.org/dc/elements/1.1/"
   xmlns:cc="http://creativecommons.org/ns#"
   xmlns:rdf="http://www.w3.org/1999/02/22-rdf-syntax-ns#"
   xmlns:svg="http://www.w3.org/2000/svg"
   xmlns="http://www.w3.org/2000/svg"
   xmlns:sodipodi="http://sodipodi.sourceforge.net/DTD/sodipodi-0.dtd"
   xmlns:inkscape="http://www.inkscape.org/namespaces/inkscape"
   width="99mm"
   height="148mm"
   viewBox="0 0 99 148"
   version="1.1"
   id="svg8"
   sodipodi:docname="icon2.svg"
   inkscape:version="0.92.2 (5c3e80d, 2017-08-06)">
  <defs
     id="defs2">
    <inkscape:perspective
       sodipodi:type="inkscape:persp3d"
       inkscape:vp_x="0 : 74 : 1"
       inkscape:vp_y="0 : 1000 : 0"
       inkscape:vp_z="99 : 74 : 1"
       inkscape:persp3d-origin="49.5 : 49.333333 : 1"
       id="perspective88" />
  </defs>
  <sodipodi:namedview
     id="base"
     pagecolor="#ffffff"
     bordercolor="#666666"
     borderopacity="1.0"
     inkscape:pageopacity="0.0"
     inkscape:pageshadow="2"
     inkscape:zoom="0.67972082"
     inkscape:cx="174.70036"
     inkscape:cy="346.58858"
     inkscape:document-units="mm"
     inkscape:current-layer="svg8"
     showgrid="false"
     inkscape:snap-center="true"
     inkscape:window-width="1920"
     inkscape:window-height="986"
     inkscape:window-x="-11"
     inkscape:window-y="-11"
     inkscape:window-maximized="1"
     showguides="false"
     inkscape:measure-start="0,0"
     inkscape:measure-end="0,0" />
  <metadata
     id="metadata5">
    <rdf:RDF>
      <cc:Work
         rdf:about="">
        <dc:format>image/svg+xml</dc:format>
        <dc:type
           rdf:resource="http://purl.org/dc/dcmitype/StillImage" />
        <dc:title></dc:title>
      </cc:Work>
    </rdf:RDF>
  </metadata>
  <path
     style="fill:none;stroke-width:0.26458332"
     id="path86"
     d="m 11.770152,54.48045 c 0.837595,0.365464 1.692184,0.690068 2.533515,1.04648 2.505114,1.061247 1.885409,0.885534 4.727653,1.928982 3.131325,1.149572 3.796044,1.307327 7.112499,2.339179 8.628631,2.403411 17.530373,3.647024 26.452266,4.281169 1.903706,0.135311 3.811492,0.205299 5.717238,0.307946 7.855416,0.345361 15.674078,-0.519729 23.242693,-2.643862 1.060781,-0.297709 2.10045,-0.66607 3.150677,-0.999103 2.199254,-0.766022 4.326096,-1.709894 6.439373,-2.681926 0,0 -4.050646,3.213034 -4.050646,3.213034 v 0 c -2.070341,0.909807 -4.153442,1.791991 -6.305071,2.497 -3.618823,1.08013 -7.219789,2.017967 -10.963897,2.584331 -5.042357,0.762751 -10.141238,0.89513 -15.231255,0.700135 C 52.693303,66.942439 50.789494,66.859971 48.889513,66.719686 39.88303,66.054696 30.892621,64.848767 22.154558,62.517701 18.551569,61.452832 18.272769,61.415944 14.880687,60.250576 11.475723,59.080784 12.943568,59.544943 9.9895046,58.42529 8.8802774,58.004869 8.3829592,57.84468 7.3349338,57.489702 c 0,0 4.4352182,-3.009252 4.4352182,-3.009252 z"
     inkscape:connector-curvature="0" />
  <path
     style="fill:#000000;stroke-width:0.26458332"
     id="path190"
     d="m 14.105669,67.325796 c 3.811884,1.639094 7.753794,2.91111 11.720176,4.11489 6.612919,1.9528 13.493382,2.530763 20.343939,2.911221 5.191752,0.236342 10.40996,0.282771 15.575113,-0.377899 0.988661,-0.12646 1.969829,-0.305853 2.954743,-0.458777 4.483743,-0.821103 8.867481,-2.039408 13.239482,-3.305741 1.953512,-0.498269 1.000506,-0.239734 2.859956,-0.772155 0,0 -4.148834,3.190783 -4.148834,3.190783 v 0 c -1.844537,0.503989 -0.903795,0.254309 -2.822628,0.747524 -4.329837,1.226847 -8.684535,2.359033 -13.122568,3.13449 -0.990301,0.145918 -1.977112,0.31791 -2.970908,0.43775 -5.169078,0.623324 -10.388756,0.539486 -15.578622,0.283755 -6.886945,-0.448881 -13.799267,-1.042011 -20.460325,-2.969098 -4.050999,-1.187855 -8.056614,-2.489441 -12.0247414,-3.927491 0,0 4.4352174,-3.009252 4.4352174,-3.009252 z"
     inkscape:connector-curvature="0" />
  <path
     style="fill:#000000;stroke-width:0.26458332"
     id="path198"
     d="m 13.719156,71.877762 c 0.06875,3.767196 0.611692,7.509044 1.332294,11.201566 1.033179,4.561764 2.427863,9.056828 4.318177,13.340337 0.389666,0.882997 0.82735,1.744012 1.241025,2.61602 2.080441,4.024615 4.814905,7.768255 8.409624,10.579775 0.665009,0.52012 1.395346,0.95082 2.093021,1.42623 3.66564,2.22023 7.820842,3.47108 12.07435,3.91496 0.798719,0.0834 1.603481,0.0919 2.405221,0.13779 3.418814,-0.10472 6.590906,-1.28645 9.580891,-2.87583 0.804947,-0.42789 1.704334,-0.74412 2.366592,-1.37057 0.536061,-0.50707 -1.316609,0.66671 -1.974916,1.00007 4.142536,-2.91532 8.058742,-6.29616 11.159111,-10.32944 0.657058,-0.85477 1.239459,-1.764422 1.85919,-2.646632 2.260007,-3.558321 4.207163,-7.326024 5.726636,-11.260757 0.44309,-1.147395 1.269873,-3.651239 1.679769,-4.873112 0.202218,-0.663503 0.404434,-1.327009 0.606652,-1.990513 0,0 4.638143,-2.189263 4.638143,-2.189263 v 0 c -0.215196,0.674931 -0.430392,1.349862 -0.645588,2.024793 -0.235273,0.670536 -1.543902,4.412583 -1.748425,4.940638 -1.534012,3.960649 -3.471566,7.765399 -5.713944,11.370091 -0.611167,0.894278 -1.183836,1.816123 -1.833505,2.682838 -3.049553,4.068367 -6.941931,7.480567 -11.042411,10.446927 -2.207401,1.3295 -4.404376,2.67647 -6.622204,3.9885 -2.290876,1.35525 -4.685472,2.60906 -7.259515,3.34119 -2.17459,0.6185 -2.677576,0.54049 -4.906352,0.70021 -0.807815,-0.0603 -1.619115,-0.0847 -2.423445,-0.18089 -4.305295,-0.51489 -8.490694,-1.8336 -12.191722,-4.11032 -0.705298,-0.49561 -1.442715,-0.9484 -2.115896,-1.48682 -3.611613,-2.88862 -6.389121,-6.67689 -8.476524,-10.77182 -0.418059,-0.88005 -0.860511,-1.748918 -1.254176,-2.640143 C 13.099054,94.557221 11.674524,90.044622 10.576741,85.471815 9.8199906,81.783928 9.2744516,78.063374 8.9394917,74.313124 c 0,0 4.7796643,-2.435362 4.7796643,-2.435362 z"
     inkscape:connector-curvature="0" />
  <path
     style="fill:#000000;stroke-width:0.26458332"
     id="path228"
     d="m 23.658238,35.531888 c 1.773505,0.340775 3.173466,1.365032 4.334081,2.705776 0.992643,1.159732 1.435929,2.524598 1.550549,4.021097 -0.03272,1.628114 -0.672672,3.134665 -1.471234,4.524529 -0.693084,1.18591 -1.354863,2.390521 -1.88113,3.660346 -0.533352,1.348357 -0.673618,2.78465 -0.764188,4.21766 -0.129083,1.942525 0.569931,3.345907 1.65776,4.891288 0,0 -4.568213,2.690797 -4.568213,2.690797 v 0 c -1.167316,-1.676482 -1.909329,-3.086426 -1.852293,-5.187321 0.06496,-1.478084 0.183049,-2.959015 0.677486,-4.366503 0.490752,-1.31236 1.154027,-2.537132 1.858999,-3.744833 0.798,-1.296093 1.494057,-2.686711 1.594736,-4.233751 -0.04348,-1.386203 -0.455003,-2.648112 -1.361259,-3.723016 -1.087451,-1.243049 -2.430894,-2.198201 -4.13237,-2.290469 0,0 4.357076,-3.1656 4.357076,-3.1656 z"
     inkscape:connector-curvature="0" />
  <path
     style="fill:#000000;stroke-width:0.26458332"
     id="path230"
     d="m 37.644594,22.912981 c 1.488594,0.714662 2.879429,1.608602 4.207301,2.587769 1.392876,0.979251 2.559638,2.155408 3.397115,3.637156 0.566013,1.157551 1.048187,2.333065 1.318692,3.594486 0.215894,1.169977 0.233222,2.363457 0.244509,3.549446 -0.01873,1.467818 -0.583165,2.817195 -1.238128,4.102671 -0.663268,1.098118 -1.111131,2.266323 -1.341501,3.524191 -0.192675,1.427412 -0.178753,2.873714 -0.185769,4.311301 -0.04552,1.45287 0.0019,2.878767 0.286533,4.303871 0.452366,1.17289 0.872347,2.342312 1.101024,3.58085 0.231814,1.345975 0.245684,2.299838 -0.153512,3.611327 -0.275293,0.899636 -0.803074,1.668484 -1.349576,2.420117 0,0 -4.901641,2.109629 -4.901641,2.109629 v 0 c 0.54947,-0.696082 1.098841,-1.405022 1.406871,-2.247805 0.0081,-0.02402 0.35451,-1.043839 0.365604,-1.101354 0.144127,-0.747165 -0.0508,-1.531557 -0.09855,-2.276483 -0.207828,-1.23979 -0.613783,-2.41005 -1.086557,-3.573201 -0.308827,-1.503733 -0.378658,-2.876044 -0.310057,-4.412612 -0.0035,-1.457328 -0.03785,-2.920431 0.109829,-4.372353 0.202684,-1.30869 0.575156,-2.55184 1.286959,-3.683887 0.644478,-1.208492 1.285097,-2.459918 1.335514,-3.858876 -0.0099,-1.154539 -0.01093,-2.315393 -0.194636,-3.4585 -0.238273,-1.216802 -0.695653,-2.339602 -1.227672,-3.456912 -0.787008,-1.423423 -1.910844,-2.530167 -3.242468,-3.461819 -1.321531,-0.947004 -2.706476,-1.827487 -4.219705,-2.436922 0,0 4.48982,-2.99209 4.489821,-2.99209 z"
     inkscape:connector-curvature="0" />
  <path
     style="fill:#000000;stroke-width:0.26458332"
     id="path232"
     d="m 60.223683,32.100463 c 1.708301,0.08103 3.284718,0.593251 4.825564,1.302099 1.517033,0.827187 2.390108,2.203844 2.88063,3.813093 0.384513,1.456169 0.30808,2.486305 -0.317037,3.846655 -0.77098,1.355159 -1.910033,2.433849 -2.947636,3.57849 -0.928981,1.086276 -1.891496,2.134402 -2.527194,3.424031 -0.442748,1.074489 -0.577413,2.2171 -0.419801,3.362018 0.767085,1.436029 1.938565,2.64433 3.016239,3.859355 0.956874,1.076968 1.564354,2.315303 1.751912,3.7391 -0.02069,0.218175 -0.04139,0.436351 -0.06209,0.654526 0,0 -4.810736,2.359073 -4.810736,2.359073 v 0 c 0.04036,-0.177263 0.08072,-0.354523 0.121081,-0.531784 -0.08851,-1.328944 -0.685535,-2.469882 -1.555411,-3.469052 -1.137687,-1.301216 -2.359234,-2.584178 -3.195701,-4.102833 -0.223414,-1.228498 -0.123605,-2.459286 0.289028,-3.644008 0.561129,-1.379276 1.515142,-2.462689 2.4823,-3.578429 0.982398,-1.159682 2.136791,-2.172788 2.986683,-3.445185 0.147986,-0.274854 0.450744,-0.801293 0.546184,-1.112162 0.238771,-0.777727 0.102198,-1.602412 -0.04998,-2.37897 -0.411742,-1.488262 -1.187299,-2.7208 -2.60903,-3.438414 -1.587529,-0.691807 -3.070468,-1.058721 -4.806547,-1.122582 0,0 4.401536,-3.115021 4.401536,-3.115021 z"
     inkscape:connector-curvature="0" />
  <path
     style="fill:#000000;stroke-width:0.26458332"
     id="path258"
     d="m 81.243345,83.092597 c 0.234206,0.0848 0.466299,0.175689 0.702625,0.254389 0.254743,0.08483 1.650335,0.503018 1.851286,0.574961 1.171454,0.419388 2.260495,0.988594 3.355028,1.572966 1.790065,1.047838 3.041931,1.887035 3.970803,3.773969 0.517541,1.289714 0.50646,2.563596 0.133546,3.879686 -0.531151,1.469832 -1.572681,2.684783 -2.932271,3.464214 -1.849001,1.060003 -3.727651,2.067425 -5.591477,3.101139 -2.285317,1.056589 -4.760629,1.463119 -7.212777,1.915019 -0.297833,0.091 -0.595669,0.18192 -0.893503,0.27288 0,0 4.20788,-3.233779 4.20788,-3.233779 v 0 c 0.303165,-0.07487 0.60633,-0.149733 0.909495,-0.224599 2.435863,-0.429636 4.870109,-0.915538 7.112482,-2.011426 -1.154036,0.700341 -2.309874,1.397719 -3.462108,2.101022 -0.293372,0.179067 0.60361,-0.331637 0.885489,-0.528299 0.947986,-0.661395 1.71173,-1.502506 2.14657,-2.580614 0.424879,-1.175877 0.47861,-2.325073 0.04318,-3.517363 -0.793033,-1.728427 -2.100779,-2.603764 -3.722889,-3.528369 -1.868469,-0.985102 -3.821282,-1.771261 -5.904894,-2.170774 0,0 4.40154,-3.115022 4.40154,-3.115022 z"
     inkscape:connector-curvature="0" />
  <rect
     style="fill:none;stroke-width:0.26458332"
     id="rect264"
     width="92.252953"
     height="101.98428"
     x="3.1140234"
     y="9.815197" />
</svg>
