<?xml version="1.0" encoding="UTF-8" standalone="no"?>
<!-- Created with Inkscape (http://www.inkscape.org/) -->

<svg
   xmlns:dc="http://purl.org/dc/elements/1.1/"
   xmlns:cc="http://creativecommons.org/ns#"
   xmlns:rdf="http://www.w3.org/1999/02/22-rdf-syntax-ns#"
   xmlns:svg="http://www.w3.org/2000/svg"
   xmlns="http://www.w3.org/2000/svg"
   xmlns:sodipodi="http://sodipodi.sourceforge.net/DTD/sodipodi-0.dtd"
   xmlns:inkscape="http://www.inkscape.org/namespaces/inkscape"
   width="99mm"
   height="148mm"
   viewBox="0 0 99 148"
   version="1.1"
   id="svg8"
   sodipodi:docname="icon3.svg"
   inkscape:version="0.92.2 (5c3e80d, 2017-08-06)">
  <defs
     id="defs2">
    <inkscape:perspective
       sodipodi:type="inkscape:persp3d"
       inkscape:vp_x="0 : 74 : 1"
       inkscape:vp_y="0 : 1000 : 0"
       inkscape:vp_z="99 : 74 : 1"
       inkscape:persp3d-origin="49.5 : 49.333333 : 1"
       id="perspective88" />
  </defs>
  <sodipodi:namedview
     id="base"
     pagecolor="#ffffff"
     bordercolor="#666666"
     borderopacity="1.0"
     inkscape:pageopacity="0.0"
     inkscape:pageshadow="2"
     inkscape:zoom="0.67972082"
     inkscape:cx="174.70036"
     inkscape:cy="209.46342"
     inkscape:document-units="mm"
     inkscape:current-layer="svg8"
     showgrid="false"
     inkscape:snap-center="true"
     inkscape:window-width="561"
     inkscape:window-height="459"
     inkscape:window-x="76"
     inkscape:window-y="76"
     inkscape:window-maximized="0"
     showguides="false"
     inkscape:measure-start="0,0"
     inkscape:measure-end="0,0" />
  <metadata
     id="metadata5">
    <rdf:RDF>
      <cc:Work
         rdf:about="">
        <dc:format>image/svg+xml</dc:format>
        <dc:type
           rdf:resource="http://purl.org/dc/dcmitype/StillImage" />
        <dc:title />
      </cc:Work>
    </rdf:RDF>
  </metadata>
  <path
     style="fill:none;stroke-width:0.26458332"
     id="path86"
     d="m 12.507669,43.918835 c 0.837595,0.365464 1.692184,0.690068 2.533515,1.04648 2.505114,1.061247 1.885409,0.885534 4.727653,1.928982 3.131325,1.149572 3.796044,1.307327 7.112499,2.339179 8.628631,2.403411 17.530373,3.647024 26.452266,4.281169 1.903706,0.135311 3.811492,0.205299 5.717238,0.307946 7.855416,0.345361 15.674078,-0.519729 23.242693,-2.643862 1.060781,-0.297709 2.10045,-0.66607 3.150677,-0.999103 2.199254,-0.766022 4.326096,-1.709894 6.439373,-2.681926 0,0 -4.050646,3.213034 -4.050646,3.213034 v 0 c -2.070341,0.909807 -4.153442,1.791991 -6.305071,2.497 -3.618823,1.08013 -7.219789,2.017967 -10.963897,2.584331 C 65.521612,56.554816 60.422731,56.687195 55.332714,56.4922 53.43082,56.380824 51.527011,56.298356 49.62703,56.158071 40.620547,55.493081 31.630138,54.287152 22.892075,51.956086 19.289086,50.891217 19.010286,50.854329 15.618204,49.688961 12.21324,48.519169 13.681085,48.983328 10.727022,47.863675 9.6177948,47.443254 9.1204766,47.283065 8.0724512,46.928087 c 0,0 4.4352178,-3.009252 4.4352178,-3.009252 z"
     inkscape:connector-curvature="0" />
  <path
     style="fill:#000000;stroke-width:0.26825827"
     id="path190"
     d="m 19.491596,54.837477 c 3.460204,1.856193 7.038438,3.296688 10.638886,4.659909 6.00282,2.21145 12.2485,2.865964 18.467033,3.296814 4.712767,0.267646 9.449549,0.320224 14.138172,-0.427952 0.897448,-0.14321 1.788095,-0.346363 2.682142,-0.519542 4.070078,-0.929859 8.049378,-2.309529 12.018023,-3.743588 1.773284,-0.564265 0.908201,-0.271487 2.5961,-0.874428 0,0 -3.766067,3.613404 -3.766067,3.613404 v 0 c -1.674363,0.570743 -0.820412,0.287993 -2.562216,0.846534 -3.930372,1.389344 -7.883311,2.671488 -11.911896,3.549655 -0.898937,0.165245 -1.794706,0.360017 -2.696816,0.49573 -4.692185,0.705884 -9.430302,0.610941 -14.141357,0.321339 -6.251564,-0.508336 -12.526164,-1.180026 -18.572681,-3.362357 -3.677258,-1.345187 -7.31332,-2.819169 -10.915353,-4.447689 0,0 4.02603,-3.407829 4.02603,-3.407829 z"
     inkscape:connector-curvature="0" />
  <path
     style="fill:#000000;stroke-width:0.26825827"
     id="path4083"
     d="m 18.445544,57.129281 c -0.09276,1.752026 0.07272,3.490382 0.267085,5.221569 0.228106,1.7672 0.322453,3.554736 0.38785,5.34095 0.0089,1.749993 0.311671,3.475462 0.622085,5.174736 0.225423,1.694756 0.450168,3.381308 0.738623,5.06274 0.188173,1.955528 0.492544,3.861762 0.949629,5.746961 0.36792,2.164551 1.120832,4.149122 1.827194,6.16042 0.679437,1.918637 1.225958,3.899883 1.811293,5.863941 0.610396,2.00912 1.359114,3.957558 2.202668,5.830342 0.627301,1.6486 1.518176,3.0964 2.350059,4.58599 0.464831,0.93157 1.091452,1.67298 1.716702,2.4292 0,0 -4.130555,3.16775 -4.130555,3.16775 v 0 c -0.645194,-0.78499 -1.271579,-1.58081 -1.762324,-2.53267 -0.83005,-1.51365 -1.730138,-2.97777 -2.351525,-4.65108 -0.848149,-1.9054 -1.603075,-3.87861 -2.235123,-5.910994 -0.593523,-1.950006 -1.118301,-3.931803 -1.809366,-5.834696 -0.682477,-2.043923 -1.462811,-4.042979 -1.850024,-6.219934 -0.462165,-1.896589 -0.811938,-3.810457 -0.98495,-5.783235 -0.276826,-1.681509 -0.547651,-3.353191 -0.74039,-5.052774 -0.303522,-1.733878 -0.628118,-3.491092 -0.667254,-5.269313 -0.04235,-1.772452 -0.125178,-3.545049 -0.343536,-5.299298 -0.201745,-1.743896 -0.385399,-3.491056 -0.359808,-5.258078 0,0 4.361667,-2.772527 4.361667,-2.772527 z"
     inkscape:connector-curvature="0" />
  <path
     style="fill:#000000;stroke-width:0.25370106"
     id="path4123"
     d="m 30.97374,107.82315 c -0.425516,1.3495 -0.907698,2.66969 -1.347719,4.01161 -0.431311,1.22557 -0.748113,2.49649 -0.81999,3.83179 0.04367,1.42607 1.157383,1.45696 2.07686,1.60613 1.237485,0.1404 2.48193,0.12219 3.723197,0.1094 1.044544,-0.0127 2.089115,-0.0186 3.133694,-0.0242 1.007487,-0.003 2.014977,-10e-4 3.022465,-0.003 1.008178,4e-5 2.016359,0.002 3.024538,1.7e-4 1.03397,10e-4 2.067933,-0.002 3.101893,0.005 1.251325,0.005 2.502638,0.005 3.753965,8.5e-4 1.158919,-0.005 2.31783,-2.7e-4 3.476749,5.7e-4 1.093465,-0.002 2.186925,-0.005 3.280388,-0.005 1.014017,-8.5e-4 2.028032,-0.002 3.042049,-8.5e-4 1.007826,-5e-5 2.015659,-0.001 3.023485,2e-5 1.008678,-3e-5 2.017357,-10e-4 3.026034,1e-5 1.008827,-4e-5 2.017659,-10e-4 3.026487,0 1.008823,-4e-5 2.01765,-10e-4 3.026474,0 0.815139,-0.11936 1.701605,0.19325 2.50479,-0.0688 0.141996,-0.0463 0.268239,-0.1476 0.402359,-0.2214 -1.218401,0.8412 -2.426004,1.70661 -3.655203,2.52364 -0.108759,0.0722 0.204609,-0.17487 0.288951,-0.28614 0.386823,-0.51031 0.447434,-1.25162 0.52012,-1.90687 0.08221,-1.35002 -0.509517,-2.49133 -1.067126,-3.59239 -0.819934,-1.46206 -1.88788,-2.66397 -2.549938,-4.2543 -0.493408,-1.50095 -0.04501,-3.00677 0.248234,-4.49252 0.326993,-1.45008 1.014999,-2.71589 1.694387,-3.94825 0.775735,-1.306164 1.533277,-2.629894 2.260602,-3.97786 0.623439,-1.356236 1.176556,-2.765557 1.70272,-4.18316 0.502093,-1.379874 0.616056,-2.891881 0.958586,-4.330852 0.353707,-1.411347 0.902893,-2.720879 1.221333,-4.147593 0.190851,-1.41107 0.501653,-2.780187 0.85573,-4.140205 0.350774,-1.509723 0.611173,-3.037641 1.028592,-4.523862 0.392227,-1.206429 0.58901,-2.471454 0.68886,-3.758929 0.07364,-1.230836 0.07075,-2.466255 0.0689,-3.6997 0.02981,-1.361959 -0.02301,-2.715289 -0.344092,-4.02339 -0.39902,-1.460307 -1.273447,-2.387697 -2.239953,-3.271758 -0.638363,-0.49934 -0.31339,-0.257184 -0.975168,-0.725968 0,0 3.874959,-3.095981 3.874959,-3.095981 v 0 c 0.680875,0.499772 0.347327,0.239319 1.000866,0.780941 1.034846,0.956186 1.932537,2.039815 2.383746,3.577929 0.362122,1.346876 0.460203,2.751137 0.426731,4.167165 -4.58e-4,1.248611 0.0075,2.498264 -0.05084,3.7454 -0.0885,1.330644 -0.246148,2.64943 -0.647836,3.899761 -0.45807,1.470677 -0.731646,2.986721 -1.048025,4.509462 -0.347095,1.348588 -0.695355,2.69484 -0.848483,4.102435 -0.140677,0.698684 -0.299218,1.361307 -0.523855,2.027273 -0.15929,0.472232 -0.360809,0.92236 -0.510245,1.399456 -0.0769,0.245521 -0.127612,0.502305 -0.191418,0.753454 -0.391344,1.444488 -0.465274,2.974977 -0.94134,4.389677 -0.497216,1.458739 -1.102747,2.857343 -1.675388,4.272298 -0.7143,1.358209 -1.460263,2.692666 -2.245489,3.987923 -0.684093,1.170644 -1.34957,2.393134 -1.759929,3.749564 -0.255905,1.35786 -0.784424,2.75942 -0.39926,4.14486 0.616308,1.59534 1.714725,2.75851 2.517003,4.20704 0.627515,1.18832 1.254105,2.45108 1.239516,3.91531 -0.259449,3.82134 -1.449489,3.35772 -4.974139,5.70505 -0.98282,0.24299 -1.987708,0.11599 -2.984888,0.1439 -1.008822,0.001 -2.01765,5e-5 -3.026473,0 -1.008827,0.001 -2.017659,5e-5 -3.026487,0 -1.008688,0.001 -2.017378,5e-5 -3.026065,3e-5 -1.007839,10e-4 -2.015682,7e-5 -3.023522,0 -1.013426,10e-4 -2.026858,-5e-5 -3.040284,-8.5e-4 -1.090277,8.5e-4 -2.180557,-0.002 -3.270834,-0.005 -1.159262,8.5e-4 -2.318513,0.005 -3.477776,5.7e-4 -1.252001,-0.005 -2.503989,-0.003 -3.755987,8.5e-4 -1.037276,0.006 -2.074555,0.003 -3.11184,0.005 -1.008191,-0.002 -2.016386,-1.5e-4 -3.024579,0 -1.00709,-0.001 -2.014184,5.6e-4 -3.021268,0.005 -1.042121,0.003 -2.084211,0.0128 -3.126326,0.0178 -1.25328,-0.002 -2.510945,10e-4 -3.756731,-0.19083 -1.122471,-0.24857 -2.350518,-0.64915 -2.436309,-2.30359 0.01136,-1.39251 0.31043,-2.73881 0.766111,-4.01095 0.409098,-1.34717 0.951124,-2.62676 1.29809,-4.00486 0,0 4.235345,-2.39772 4.235345,-2.39772 z"
     inkscape:connector-curvature="0" />
  <path
     style="fill:#000000;stroke-width:0.26825827"
     id="path4131"
     d="m 85.598028,70.509103 c -6.673741,5.027576 -4.151999,3.27361 -2.867786,1.716128 0.501638,-0.608384 0.981427,-1.247724 1.462908,-1.880642 0.465232,-0.583345 0.946973,-1.168122 1.529,-1.571384 2.146144,-1.486986 3.515552,-4.02381 5.619824,-2.928626 0.798007,0.853114 0.864254,2.138399 0.933645,3.361347 0.08499,1.354946 -0.0044,2.69805 -0.129649,4.04262 -0.115009,1.333319 -0.333091,2.64601 -0.450415,3.97936 -0.06869,1.373518 -0.40761,2.698819 -0.707144,4.015595 -0.259171,1.420552 -0.689079,2.772604 -1.308921,4.005208 -1.762917,2.503271 -4.318405,4.255368 -6.975347,4.579972 -0.708573,5.99e-4 -1.442706,0.165113 -2.145758,-0.01917 -0.38897,-0.101955 -0.870232,-0.355119 -1.235487,-0.530236 -0.727156,-0.495089 -1.490819,-1.111762 -1.645287,-2.215683 -0.03286,-0.234847 -0.0079,-0.476698 -0.01177,-0.715046 0,0 4.349892,-2.732563 4.349892,-2.732563 v 0 c -0.156007,1.403613 0.394934,1.678009 1.322067,2.278739 1.128123,0.45582 2.094728,0.50136 3.268531,0.302399 0.405408,-0.07931 0.603037,-0.09837 0.996974,-0.25481 0.15726,-0.06245 0.601664,-0.332418 0.461466,-0.223797 -6.759394,5.236962 -4.13992,3.26695 -2.838365,1.952457 0.678742,-1.13028 1.126833,-2.444751 1.368723,-3.823487 0.293924,-1.287107 0.658807,-2.58341 0.741367,-3.920228 0.108397,-1.338646 0.314577,-2.654712 0.448144,-3.987449 0.12912,-1.311707 0.253299,-2.617321 0.16585,-3.942259 -0.03865,-0.907266 0.01196,-2.132743 -0.646081,-2.714137 -1.632611,-0.30076 -3.758775,2.408462 2.946786,-2.684232 0.175124,-0.133004 -0.371978,0.218105 -0.545912,0.353522 -0.416865,0.324544 -0.683309,0.655857 -1.050877,1.062755 -0.611142,0.837046 -1.242973,1.648727 -1.885322,2.447633 -0.135097,0.168028 -0.235777,0.387401 -0.39747,0.513691 -1.502393,1.173452 -3.052624,2.24877 -4.578938,3.373159 0,0 3.805358,-3.840842 3.805358,-3.840842 z"
     inkscape:connector-curvature="0" />
  <path
     style="fill:#000000;stroke-width:0.26825827"
     id="path4139"
     d="m 61.116987,63.326207 c -0.8208,1.341279 -1.159539,2.962836 -1.404108,4.591396 -0.130519,1.466117 -0.297135,2.92757 -0.422491,4.394706 -0.104177,1.318232 -0.12373,2.643493 -0.1343,3.967068 -0.0012,0.222789 -0.0026,0.445577 -0.0039,0.668365 0,0 -3.097077,1.966149 -3.097077,1.966149 v 0 c 4.8e-4,-0.223145 0.0012,-0.446288 0.0017,-0.669433 0.01136,-1.336088 0.02413,-2.673628 0.121566,-4.005277 0.124777,-1.48011 0.308946,-2.950403 0.424177,-4.431747 0.235297,-1.657239 0.537346,-3.33361 1.309114,-4.746956 0,0 3.205337,-1.734271 3.205337,-1.734271 z"
     inkscape:connector-curvature="0" />
  <path
     style="fill:#000000;stroke-width:0.26825827"
     id="path4151"
     d="m 55.85308,78.77135 c -1.387152,0.0294 -2.718254,-0.545982 -4.062941,-0.90267 -0.540022,-0.06456 -0.690512,-0.149293 -1.205396,0.02709 -0.152985,0.05241 -0.575159,0.332329 -0.437282,0.234423 4.303978,-3.056258 2.747034,-2.58726 2.281772,-0.991004 -0.04053,1.343983 0.488022,2.464875 1.191938,3.422025 0.805914,0.906602 1.48558,2.131733 2.488145,2.724442 0.190063,0.112362 0.396734,0.174422 0.595103,0.261635 0.200201,0.0066 0.401039,0.04086 0.600609,0.0199 0.457811,-0.04806 0.752428,-0.201086 1.158506,-0.464527 0.192173,-0.124676 0.748392,-0.544214 0.557673,-0.416117 -2.439223,1.638327 -3.13263,2.376265 -1.828321,1.099849 0.953764,-1.055737 1.675434,-2.290104 2.099286,-3.786837 0.239499,-1.366613 -0.01432,-2.106166 -1.094577,-2.463639 -0.647248,-0.151138 -1.308271,-0.142847 -1.963924,-0.148028 0,0 2.814279,-2.544033 2.814279,-2.544033 v 0 c 0.680954,0.01615 1.370138,0.02217 2.032014,0.249992 1.16797,0.560806 1.552804,1.504708 1.355245,3.063502 -0.404368,1.620114 -1.06066,2.832358 -2.035252,4.020583 -1.560874,1.628098 -0.556383,0.639438 -4.074065,3.219536 -0.779624,0.571827 -1.60397,0.82618 -2.496077,0.556756 -0.2086,-0.110924 -0.426068,-0.198821 -0.6258,-0.332757 -1.004327,-0.673479 -1.726377,-1.866404 -2.549563,-2.817686 -0.77599,-1.084823 -1.310141,-2.311339 -1.372422,-3.793096 0.35903,-2.288635 1.292648,-1.949945 3.614083,-3.544904 0.506306,-0.34786 1.209935,-0.129228 1.73425,-0.05677 1.335238,0.373957 2.666578,0.908331 4.05151,0.798319 0,0 -2.828793,2.564011 -2.828793,2.564011 z"
     inkscape:connector-curvature="0" />
  <path
     style="fill:#000000;stroke-width:0.26825827"
     id="path4153"
     d="m 54.045971,78.76966 c -1.316372,-0.01986 -2.632886,-0.01198 -3.949322,-0.01087 -1.141564,0.03571 -2.287954,-0.06867 -3.425441,0.07036 -0.155065,0.07207 -0.317401,0.123363 -0.465196,0.216212 -0.134188,0.0843 -0.50794,0.399316 -0.375129,0.311699 0.880951,-0.581173 1.720144,-1.262654 2.621271,-1.793498 0.134668,-0.07933 -0.206719,0.269488 -0.292311,0.42153 -0.102778,0.182572 -0.394581,0.904279 -0.467704,1.08067 -0.514202,1.185947 -0.719069,2.490515 -0.833858,3.815633 -0.08659,1.319137 -0.08213,2.644213 -0.08051,3.966758 0.05584,1.337609 -0.09113,2.662001 -0.197132,3.989093 -0.175389,1.675784 -0.09208,2.707357 0.434306,4.268066 0.717082,1.520457 1.762717,2.575745 3.071466,3.193453 1.041209,0.53788 2.154412,0.71088 3.268782,0.80212 1.059375,0.0624 2.120347,0.0495 3.180554,0.0472 1.059602,-0.005 2.119213,-0.009 3.178823,-0.01 1.051109,0.002 2.102868,0.0536 3.054519,-0.57014 -4.811212,3.385934 -2.56083,2.156634 -1.806444,0.94895 0.32903,-0.52674 0.532053,-1.09758 0.724266,-1.713898 0.488616,-1.248716 0.750674,-2.579149 0.989494,-3.926146 0.256652,-1.294211 0.355445,-2.619958 0.4133,-3.94729 0.01916,-1.355298 0.358966,-2.659658 0.539537,-3.989948 0.143953,-1.298702 0.217729,-2.613794 0.1642,-3.923732 -0.153543,-1.346487 -0.964147,-1.90559 -1.844723,-2.495484 -0.998895,-0.72263 -1.978378,-1.397518 -3.098392,-1.778802 0,0 2.867159,-2.446582 2.867159,-2.446582 v 0 c 1.122766,0.435395 2.120606,1.144574 3.143021,1.856232 0.973543,0.687039 1.816702,1.392488 2.018768,2.871833 0.08257,1.336252 -7.19e-4,2.681825 -0.129854,4.010563 -0.161077,1.323755 -0.507896,2.610178 -0.556003,3.946888 -0.04742,1.348282 -0.134082,2.698518 -0.388656,4.014395 -0.244076,1.355704 -0.445978,2.727246 -0.969588,3.973331 -0.82415,3.15638 -2.179212,3.58097 -4.795437,5.292434 -1.00967,0.43773 -2.075609,0.4515 -3.136146,0.42597 -1.059565,0.003 -2.119132,0.006 -3.178698,0.01 -1.065266,0.003 -2.131916,0.011 -3.195492,-0.0751 -1.137778,-0.12066 -2.266532,-0.34967 -3.323086,-0.91847 -1.354415,-0.729844 -2.449137,-1.887284 -3.208475,-3.484752 -0.547562,-1.57768 -0.714886,-2.738008 -0.530008,-4.450934 0.104531,-1.314544 0.269974,-2.625219 0.212597,-3.950352 1.66e-4,-1.33574 -0.0081,-2.673082 0.06506,-4.006551 0.104395,-1.366289 0.277863,-2.721938 0.776119,-3.963987 0.151614,-0.358214 0.453829,-1.423249 0.706768,-1.640183 1.282052,-1.099558 2.648903,-2.530339 4.237243,-2.95161 1.142564,-0.08147 2.288121,-0.01917 3.432104,-0.03509 1.324435,0.0012 2.648944,0.0088 3.973317,-0.01087 0,0 -2.825069,2.560633 -2.825069,2.560633 z"
     inkscape:connector-curvature="0" />
  <path
     style="fill:#000000;stroke-width:0.26458332"
     id="path4159"
     d="m 46.708557,16.145057 c 1.760998,0.145057 3.3895,0.866493 4.90466,1.733007 1.385684,0.797806 2.405161,2.01833 3.136509,3.420317 0.536644,1.142627 0.650933,2.369927 0.574778,3.611827 -0.270452,1.76996 -0.965319,3.002256 -2.196079,4.26983 -2.259248,1.900357 -4.886282,3.356909 -7.574975,4.561009 -0.495724,0.229511 -1.029476,0.363548 -1.530231,0.579829 -0.235887,0.101884 -0.911678,0.473525 -0.69019,0.343276 0.88455,-0.520171 1.744885,-1.092504 2.680594,-1.513755 0.192212,-0.08653 -0.309612,0.29863 -0.402164,0.488018 -0.08467,0.173252 -0.07569,0.378167 -0.113535,0.567251 0.249034,1.42235 1.395336,2.178283 2.499294,2.931091 0.20121,0.129538 0.406982,0.252249 0.603631,0.38861 0.801947,0.556091 0.385569,0.343268 1.207542,0.845561 0.585079,0.357531 1.200103,0.647578 1.782802,1.01074 1.430579,0.851281 1.967167,1.615006 2.402922,3.192298 0.270627,1.275405 0.276236,2.583167 0.28488,3.880713 0.114297,1.462005 -0.178853,2.644113 -0.784423,3.965331 -0.463786,1.057413 -1.162704,1.954882 -1.920299,2.812076 0,0 -3.50698,1.471975 -3.50698,1.471975 v 0 c 0.769445,-0.820552 1.506778,-1.665319 1.964978,-2.708854 0.601755,-1.226402 0.96983,-2.417987 0.837518,-3.802235 0.0013,-1.267851 0.0067,-2.545982 -0.232929,-3.796254 -0.389816,-1.507048 -0.891627,-2.146324 -2.252737,-2.943977 -1.217607,-0.730943 -2.466133,-1.402201 -3.603106,-2.261991 -1.263213,-0.865921 -2.345978,-1.712759 -2.708513,-3.29088 0.01386,-0.242612 -0.02339,-0.493686 0.04162,-0.727837 0.54251,-1.953826 4.427908,-2.883686 6.410897,-3.793022 1.176226,-0.560726 4.164742,-2.245375 -0.942285,0.678321 -0.250237,0.143258 0.495618,-0.295413 0.734767,-0.456502 0.225964,-0.152209 0.441243,-0.319746 0.659577,-0.482716 0.21486,-0.16038 0.426632,-0.324858 0.639947,-0.487286 1.266609,-1.185235 1.965722,-2.272898 2.284934,-4.00676 0.09295,-1.177112 0.0315,-2.337208 -0.46914,-3.431111 -0.688266,-1.343502 -1.665875,-2.497468 -2.994264,-3.247817 -1.513858,-0.833796 -3.123808,-1.495159 -4.873953,-1.575068 0,0 3.143957,-2.225015 3.143957,-2.225015 z"
     inkscape:connector-curvature="0" />
  <path
     style="fill:#000000;stroke-width:0.26825827"
     id="path16"
     d="m 81.252106,73.22842 c 0.04196,-0.02223 0.08408,-0.04398 0.125875,-0.06671 0.135907,-0.07393 0.194523,-0.106529 0.330216,-0.195464 0.06108,-0.04003 0.241124,-0.167489 0.181329,-0.124544 -1.422794,1.021914 -1.70407,1.254343 -1.122063,0.784884 0.380665,-0.326081 0.713314,-0.72879 1.043558,-1.12891 0.303019,-0.404108 0.663675,-0.726447 1.019021,-1.053266 0.705921,-0.615524 1.463783,-1.12547 2.214942,-1.650962 0.06089,-0.0426 0.12953,-0.0653 0.192652,-0.102509 0.05981,-0.03525 0.117241,-0.07649 0.175862,-0.114726 0.185479,-0.121825 0.373189,-0.235681 0.559947,-0.353844 0.06951,-0.04398 0.272177,-0.189671 0.204707,-0.140988 -0.454035,0.327623 -3.506118,2.507578 0.395532,-0.280417 0.291049,-0.165926 0.564152,-0.380228 0.856318,-0.54291 0.157741,-0.08783 0.320225,-0.161803 0.479424,-0.24545 0.454214,-0.290252 0.956893,-0.41525 1.450629,-0.554376 0.32476,-0.100845 0.653238,-0.203633 0.968713,-0.345333 0.469433,-0.210851 2.223251,-1.55184 -1.314629,0.959156 0.0099,0.06174 0.05439,0.130382 0.02962,0.185244 -0.01945,0.04307 -0.07892,0.0096 -0.118512,0.01165 -0.06131,0.0031 -0.122859,-0.0024 -0.184048,0.0034 -0.284221,0.02622 -0.569503,0.08609 -0.851104,0.138296 -0.631065,0.08288 -1.229262,0.355002 -1.831489,0.587513 -0.237695,0.116153 -0.479165,0.229976 -0.709829,0.36722 -0.529662,0.315143 -1.529279,1.077308 0.927231,-0.679463 -0.391366,0.282337 -0.761718,0.607705 -1.121056,0.9492 -0.415178,0.380961 -0.812417,0.787871 -1.200916,1.209941 -0.399209,0.415457 -0.739345,0.903119 -1.053681,1.416828 -0.264777,0.392215 -0.481477,0.818019 -0.676856,1.267655 -0.109644,0.266593 -0.2262,0.527976 -0.34956,0.784994 -0.0323,0.06729 -0.0662,0.133397 -0.09766,0.201304 -0.01542,0.03328 -0.01475,0.0866 -0.04293,0.102147 -0.502371,0.277026 -1.019634,0.509951 -1.52945,0.764926 0.353504,-0.527828 0.681259,-1.080797 1.018558,-1.62457 0.276655,-0.487148 0.57525,-0.953704 0.851561,-1.441003 0.218045,-0.35616 0.394193,-0.776036 0.672078,-1.069752 0.05292,-0.05593 0.112851,-0.100641 0.169275,-0.150964 1.074285,-0.84915 1.449558,-1.262634 2.487856,-1.305831 0.322023,0.01738 0.491984,0.165565 0.549324,0.565996 -0.02188,0.477763 -0.308316,0.781042 -0.592626,1.051768 -0.360605,0.306561 -0.707475,0.634791 -1.039464,0.987863 -0.278155,0.306189 -0.542827,0.630665 -0.804508,0.958463 -0.520021,0.377111 -1.018104,0.805828 -1.560063,1.131334 -0.06378,0.03831 -0.122521,-0.203573 -0.08371,-0.374715 0.04285,-0.188941 0.285775,-0.54569 0.380737,-0.70048 0.323597,-0.482368 0.696879,-0.908153 1.062238,-1.340201 0.495468,-0.554489 0.298096,-0.353729 1.679221,-0.925295 0.04767,-0.01972 -0.0087,0.127006 -0.02844,0.184603 -0.07516,0.218893 -0.270697,0.389858 -0.408338,0.538275 -0.667542,0.665581 -1.453059,1.162732 -2.19257,1.667158 -0.130327,0.0889 -0.145151,0.04888 -0.254705,-0.01178 -0.0221,-0.05841 -0.06171,-0.110889 -0.06627,-0.175223 -0.02061,-0.291426 0.515137,-0.823924 0.676783,-1.005175 0.35085,-0.364056 0.683036,-0.755238 1.037489,-1.113781 0.296227,-0.300455 0.592648,-0.600315 0.890829,-0.897795 0.300518,-0.299202 0.575553,-0.634506 0.858138,-0.958904 0.686295,-0.681056 1.471864,-1.20971 2.285419,-1.610741 0.649721,-0.300598 1.956138,-1.320024 -0.617796,0.531978 0.545835,-0.386601 1.090406,-0.775992 1.637504,-1.159805 0.09659,-0.06777 0.197146,-0.126398 0.294351,-0.192786 0.05353,-0.03656 0.213528,-0.14749 0.160616,-0.109576 -1.431528,1.02578 -1.74261,1.289858 -1.167148,0.813134 0.671159,-0.581615 1.343882,-1.491926 2.175621,-1.549564 0,0 -1.395567,1.31649 -1.395567,1.31649 v 0 c -0.562185,0.272692 -0.119225,0.06371 1.27267,-0.952741 0.04844,-0.03537 -0.09692,0.0708 -0.14371,0.109463 -0.146124,0.120741 -0.16087,0.14473 -0.296278,0.287091 -0.05204,0.04512 -0.101667,0.09493 -0.156134,0.135366 -0.544196,0.403922 -1.091962,0.800323 -1.639405,1.197354 -0.06157,0.04465 -0.253154,0.168944 -0.318739,0.210794 -0.04707,0.03003 -0.187241,0.122398 -0.141728,0.08884 0.444107,-0.327466 0.891857,-0.647175 1.337786,-0.970764 -0.788561,0.568514 -1.524034,1.185306 -2.368379,1.589621 -0.0883,0.04884 -0.177731,0.09446 -0.265785,0.143965 -0.04317,0.02427 -0.168929,0.106518 -0.128205,0.07636 2.434144,-1.802176 1.590348,-1.186285 1.081226,-0.768167 -0.298259,0.305006 -0.557338,0.666689 -0.858011,0.969544 -0.300443,0.293527 -0.595385,0.593499 -0.889343,0.897093 -0.363744,0.350296 -0.697073,0.742995 -1.051989,1.107052 -0.12037,0.133652 -0.243761,0.263196 -0.360933,0.401196 -0.06346,0.07474 -0.253728,0.382069 -0.359685,0.381432 -0.01903,-1.15e-4 -0.03023,-0.0288 -0.04534,-0.04322 0.536794,-0.293515 0.94865,-0.627672 -1.141899,0.865912 -0.06161,0.04402 0.117053,-0.100358 0.176991,-0.147836 0.33092,-0.262144 0.05281,-0.0154 0.375059,-0.314816 0.104593,-0.108387 0.214184,-0.209527 0.314846,-0.323561 0.0352,-0.03989 0.06249,-0.09009 0.09885,-0.128331 0.0212,-0.02232 0.0475,-0.0359 0.07223,-0.05159 0.524632,-0.333147 1.049189,-0.666509 1.575753,-0.994879 0.03551,-0.02214 -0.06823,0.0507 -0.102335,0.07604 -0.377397,0.414415 -0.739989,0.853553 -1.08304,1.311736 -0.161875,0.253914 -0.13731,0.207363 -0.278426,0.457403 -0.03299,0.05845 -0.054,0.129925 -0.09722,0.176849 -0.225069,0.244341 0.06177,-0.197571 -0.129692,-0.07171 -0.487347,0.320359 -0.947039,0.702306 -1.42056,1.05346 0.27485,-0.317455 0.529239,-0.661865 0.807886,-0.9747 0.334667,-0.354352 0.669814,-0.706401 1.037857,-1.007255 0.265582,-0.218269 0.531146,-0.448045 0.647459,-0.834427 0.01338,-0.310147 -0.210043,-0.288658 -0.400903,-0.288849 -0.152184,0.01384 -0.302636,0.0294 -0.451932,0.07155 -0.590654,0.166793 -1.393675,0.902766 0.979476,-0.828782 -0.0602,0.03833 -0.123643,0.06961 -0.180609,0.114992 -0.303745,0.241972 -0.47789,0.678778 -0.691075,1.025543 -0.08382,0.149658 -0.159951,0.306136 -0.24814,0.451827 -0.203494,0.336166 -0.431005,0.651827 -0.614809,1.007096 -0.334655,0.529226 -0.646622,1.079347 -0.986632,1.603208 -0.555814,0.331223 -1.101514,0.690263 -1.667441,0.993666 -0.03497,0.01875 0.03196,-0.08639 0.05137,-0.12726 0.03299,-0.06949 0.0707,-0.135303 0.105573,-0.203334 0.127976,-0.249628 0.248905,-0.504105 0.352679,-0.771037 0.09601,-0.235879 0.190766,-0.482206 0.301762,-0.707813 0.09406,-0.191187 0.125756,-0.20443 0.237499,-0.381911 0.04341,-0.06893 0.08324,-0.141254 0.124859,-0.211883 0.09605,-0.153618 0.184756,-0.314348 0.282893,-0.465902 0.231076,-0.356857 0.49259,-0.684367 0.764479,-0.992241 0.38512,-0.428009 0.777036,-0.844233 1.195197,-1.22171 0.354439,-0.347868 0.718764,-0.683541 1.106651,-0.971203 0.90156,-0.64891 1.758106,-1.373325 2.75189,-1.771191 0.604236,-0.234054 1.210809,-0.471626 1.842957,-0.556723 0.293033,-0.05268 0.587609,-0.112079 0.883619,-0.132747 0.02287,-0.0015 0.310087,-0.01333 0.351097,0.02064 0.06554,0.05431 0.09931,0.15228 0.148962,0.228418 -0.514654,0.376138 -1.02448,0.762753 -1.543962,1.128412 -0.04136,0.02909 -0.09029,0.03673 -0.135729,0.05392 -0.06754,0.02556 -0.135422,0.04977 -0.203206,0.07435 -0.253839,0.092 -0.507707,0.185448 -0.76656,0.253532 -0.489354,0.147774 -0.979472,0.294106 -1.431192,0.581928 -0.455179,0.241805 -0.896649,0.517436 -1.331615,0.81161 3.09528,-2.242544 -0.188639,0.193868 -1.167061,0.772857 -0.550124,0.332622 -1.407153,0.967332 0.929691,-0.715244 0.06175,-0.04447 -0.122508,0.09113 -0.182627,0.138946 -0.06361,0.0506 -0.125652,0.104174 -0.188477,0.156256 -0.06106,0.04798 -0.122118,0.09598 -0.18318,0.143962 -0.356025,0.323343 -0.727299,0.63086 -1.033907,1.028037 -0.329763,0.403469 -0.657793,0.812944 -1.026202,1.1623 -0.782986,0.681931 -1.627318,1.249524 -2.491643,1.752068 0,0 1.366292,-1.363448 1.366292,-1.363448 z"
     inkscape:connector-curvature="0" />
  <path
     style="fill:#000000;stroke-width:0.26825827"
     id="path18"
     d="m 18.493834,56.998562 c -0.363849,0.299343 -0.710785,0.627115 -1.042981,0.978736 -0.288918,0.297551 -0.585141,0.582922 -0.866439,0.891913 -0.553382,0.655594 -1.077535,0.914895 -1.863214,1.44822 -0.122137,0.08291 -0.221229,-0.10371 -0.273377,-0.198428 -0.0098,-0.05149 -0.02702,-0.101626 -0.02942,-0.154464 -0.01228,-0.270411 0.163453,-0.599031 0.275257,-0.814538 0.483002,-0.755252 1.381085,-1.165161 1.972003,-1.585191 0.04877,-0.03467 0.199814,-0.127474 0.151221,-0.09242 -0.453242,0.326942 -0.910318,0.645545 -1.365477,0.968316 -0.05529,0.1176 0.06956,-0.101649 0.08452,-0.06484 0.02434,0.05988 0.05608,0.12223 0.05506,0.189361 -5.53e-4,0.03596 -0.03668,0.05617 -0.05912,0.07874 -0.032,0.03218 -0.06873,0.05626 -0.10309,0.08439 0.451761,-0.322908 0.903522,-0.645821 1.355282,-0.968729 -0.309222,0.238809 -0.599051,0.50435 -0.865296,0.813169 -0.258046,0.280118 -0.515903,0.573768 -0.585916,1.006463 0.01085,0.363409 0.06287,0.722237 0.08407,1.085458 0.03238,0.484902 0.09025,0.963386 0.181371,1.436435 0.05988,0.291486 0.09939,0.591504 0.203477,0.865695 0.03659,0.09638 0.116823,0.262516 0.160087,0.354571 0.154482,0.335691 0.240741,0.706777 0.299972,1.084106 0.05082,0.414157 0.06258,0.833232 0.07086,1.251392 0.004,0.353701 0.0043,0.707453 0.0012,1.061167 -0.01037,0.526661 -0.01385,1.049307 0.03763,1.572738 0.09901,0.585811 0.136714,1.182505 0.206156,1.773432 0.0712,0.539226 0.167141,1.071888 0.265761,1.604033 0.103662,0.60896 0.155709,1.229198 0.24497,1.841202 0.08813,0.557888 0.17975,1.115186 0.240469,1.67892 0.07509,0.454575 0.165298,0.91124 0.280883,1.35299 0.114864,0.329575 0.141167,0.692071 0.238804,1.027054 0.01987,0.0533 0.03974,0.106621 0.05961,0.159929 0,0 -1.513666,1.070309 -1.513666,1.070309 v 0 c -0.02263,-0.05814 -0.04525,-0.116271 -0.06788,-0.174408 -0.105959,-0.336529 -0.127293,-0.701853 -0.239148,-1.037583 -0.121689,-0.454217 -0.197454,-0.930499 -0.288386,-1.395251 -0.05398,-0.561505 -0.143293,-1.11572 -0.23121,-1.670241 -0.09578,-0.607345 -0.13391,-1.227493 -0.241426,-1.832656 -0.103876,-0.536683 -0.208552,-1.072369 -0.270741,-1.620024 -0.07638,-0.591202 -0.105067,-1.191632 -0.210494,-1.777739 -0.01417,-0.141106 -0.04923,-0.472242 -0.05559,-0.61103 -0.01489,-0.32483 0.0047,-0.651987 -0.0055,-0.977068 -0.0019,-0.352422 0.0013,-0.704835 -3.37e-4,-1.057259 -0.0026,-0.407119 -0.0084,-0.815725 -0.05557,-1.219322 -0.05226,-0.353731 -0.130852,-0.70399 -0.270507,-1.020918 -0.03231,-0.07036 -0.145115,-0.313413 -0.170993,-0.381002 -0.109052,-0.284833 -0.152344,-0.593931 -0.209565,-0.898584 -0.09455,-0.482724 -0.165466,-0.968274 -0.200234,-1.463722 -0.0234,-0.374325 -0.07172,-0.743562 -0.103479,-1.116524 0.0017,-0.06757 -0.0046,-0.136193 0.0051,-0.202718 0.05742,-0.395844 0.310449,-0.699556 0.541047,-0.949667 0.09532,-0.11502 0.183368,-0.239717 0.283395,-0.348341 0.173263,-0.188157 0.37374,-0.333198 0.56312,-0.493277 0.539397,-0.397126 1.077343,-0.797339 1.618191,-1.191382 0.172148,-0.125424 0.236763,-0.161424 0.350176,0.09586 0.02405,0.05458 -0.05485,0.170389 -0.06439,0.188909 -0.536186,0.39389 -1.071084,0.790522 -1.608558,1.181671 -0.04813,0.03503 -0.19601,0.13219 -0.148083,0.09673 0.443733,-0.328249 0.889563,-0.65208 1.335684,-0.975249 0.174559,-0.126452 -0.538794,0.389162 -0.361932,0.335724 -0.131544,0.224232 -0.251478,0.461923 -0.328546,0.721973 0.03115,0.03691 0.159516,-0.07688 0.122613,-0.04946 -2.487718,1.848603 -1.552677,1.270451 -1.102833,0.729847 0.279556,-0.316286 0.568902,-0.617424 0.872645,-0.897246 0.318336,-0.359742 0.658043,-0.693779 1.018879,-0.984502 0,0 1.62391,-0.805674 1.62391,-0.805674 z"
     inkscape:connector-curvature="0" />
  <path
     style="fill:#000000;stroke-width:0.26458332"
     id="path19"
     d="m 45.181014,80.48803 c 0.187902,-0.284957 0.323427,-0.597646 0.479089,-0.900044 0.125799,-0.270002 0.289769,-0.518565 0.447934,-0.769969 0.14436,-0.237276 0.312354,-0.457915 0.511601,-0.651359 0.03217,-0.02633 0.06433,-0.05264 0.0965,-0.07896 0,0 1.259279,-0.49752 1.259279,-0.49752 v 0 c -0.03451,0.02138 -0.06902,0.04277 -0.103537,0.06415 -0.04458,0.03856 -0.154717,0.131757 -0.194167,0.174305 -0.126068,0.135972 -0.228205,0.292444 -0.33511,0.443143 -0.15026,0.255121 -0.331613,0.492894 -0.45366,0.76428 -0.163137,0.294042 -0.283623,0.609878 -0.469218,0.891548 0,0 -1.23871,0.560433 -1.23871,0.560433 z"
     inkscape:connector-curvature="0" />
  <path
     style="fill:#000000;stroke-width:0.26458332"
     id="path21"
     d="m 45.458745,79.736735 c 0.204784,-0.270367 0.43172,-0.522288 0.661373,-0.771441 0.232437,-0.244406 0.461846,-0.492381 0.710303,-0.720696 0.544304,-0.514696 1.232093,-0.827352 1.883318,-1.187952 -0.342847,0.196675 -0.685038,0.394501 -1.028544,0.590026 -0.04025,0.02291 0.07854,-0.04914 0.118732,-0.07215 0.424809,-0.243274 0.848042,-0.489392 1.276223,-0.726689 0.02286,-0.01267 0.203977,-0.07556 0.228824,-0.08709 0.03569,-0.01656 0.06859,-0.03857 0.102881,-0.05786 0.263591,-0.145225 0.56561,-0.166383 0.853485,-0.231722 0.258794,-0.03356 0.499274,-0.135578 0.75103,-0.197022 0.09123,-0.02228 0.342855,-0.07413 0.431972,-0.09278 0.447212,-0.08949 0.90351,-0.115724 1.358289,-0.131953 0.404326,-0.04857 0.807064,-0.102296 1.213908,-0.124495 0.520502,-0.02008 1.041691,-0.01558 1.562492,-0.01445 0.747691,0.0024 1.495383,0.0051 2.243079,0.0044 0.58638,-7.94e-4 1.172763,-0.0037 1.759117,-0.0095 0.150543,-0.0154 0.309359,0.01929 0.458668,-0.01511 0.03389,-0.0078 0.126402,-0.05762 0.09621,-0.04037 -1.451033,0.829225 -1.464646,0.838358 -1.077084,0.599244 -0.0051,-0.13997 -0.348364,-0.17621 -0.446051,-0.19303 -0.448008,-0.05173 -0.900506,-0.04775 -1.350859,-0.05223 -0.669033,-0.0031 -1.338085,-0.0028 -2.007121,1.9e-5 -0.490072,5.29e-4 -0.980125,0.0052 -1.470181,0.0088 -0.225555,0.0038 -0.455414,0.0063 -0.678495,0.04508 -0.136152,0.02365 -0.270433,0.05712 -0.406204,0.08287 -0.542079,0.08999 -1.074402,0.221165 -1.607529,0.351928 -0.515009,0.133029 -1.039715,0.261143 -1.545887,0.425071 -0.295817,0.114496 -0.597193,0.20569 -0.911309,0.250291 -0.147738,0.0078 -0.290656,0.01558 -0.425236,0.08397 -0.03397,0.01725 -0.130865,0.07815 -0.09772,0.05935 0.353716,-0.200604 0.706303,-0.403191 1.059455,-0.604787 -0.225888,0.146896 -0.414223,0.34145 -0.620728,0.513037 -0.221827,0.18873 -0.445794,0.374555 -0.671563,0.558568 -0.04422,0.03419 -0.08845,0.06839 -0.13267,0.102584 0,0 -1.251101,0.497004 -1.251101,0.497004 v 0 c 0.04461,-0.03191 0.08921,-0.06383 0.133819,-0.09574 0.222229,-0.185828 0.449958,-0.364898 0.667999,-0.555353 0.03371,-0.02905 0.06743,-0.0581 0.101139,-0.08715 0.0355,-0.02683 0.07268,-0.05156 0.106484,-0.08048 0.137179,-0.117343 0.255548,-0.257371 0.403683,-0.362513 0.06742,-0.03908 0.987483,-0.70978 1.480627,-0.802969 0.108754,-0.02056 0.220244,-0.01812 0.328938,-0.03919 0.303969,-0.05504 0.594709,-0.155985 0.886812,-0.254773 0.50991,-0.146399 1.022876,-0.284313 1.53825,-0.410033 0.537514,-0.133297 1.076913,-0.25577 1.621973,-0.354684 0.365463,-0.07317 0.732832,-0.129141 1.107217,-0.112562 0.48273,0.0034 0.965465,0.0075 1.448213,0.007 0.67024,0.0013 1.340475,-0.0013 2.010717,-0.0016 0.462674,2.44e-4 0.929439,-0.01156 1.38829,0.05677 0.240641,0.05339 0.502007,0.117779 0.574371,0.38517 -0.0366,0.776925 -1.198391,0.839237 -1.797124,0.823367 -0.57726,-0.006 -1.154549,-0.0091 -1.731838,-0.01032 -0.75115,-0.0013 -1.502307,3.2e-5 -2.253451,0.0036 -0.524939,0.0034 -1.050306,0.0033 -1.574573,0.03344 -0.405879,0.02974 -0.808617,0.08622 -1.214048,0.120504 -0.450184,0.01924 -0.901224,0.05022 -1.342187,0.148956 -0.398938,0.08918 -0.78731,0.215362 -1.188534,0.294256 -0.29024,0.06074 -0.58238,0.11508 -0.842749,0.265716 -0.07316,0.0321 -0.147473,0.0615 -0.220599,0.09367 -0.03648,0.01603 -0.142443,0.07123 -0.108206,0.05084 0.34445,-0.205139 0.692602,-0.403995 1.039278,-0.605351 0.04043,-0.02349 -0.08035,0.04781 -0.120529,0.07172 -0.427011,0.248182 -0.854022,0.496364 -1.281033,0.744543 -0.492876,0.271349 -0.0013,0.0021 0.902513,-0.527899 0.03939,-0.0231 -0.0819,0.04069 -0.120555,0.06499 -0.133284,0.08378 -0.248473,0.193503 -0.366504,0.296458 -0.260635,0.213846 -0.482245,0.470627 -0.719748,0.709226 -0.226706,0.241088 -0.452676,0.484195 -0.649526,0.750813 0,0 -1.250198,0.538758 -1.250198,0.538758 z"
     inkscape:connector-curvature="0" />
  <path
     style="fill:#000000;stroke-width:0.26458332"
     id="path33"
     d="m 44.849848,79.689972 c 0.142717,-0.290491 0.338019,-0.548997 0.536602,-0.802746 0.195416,-0.262908 0.406524,-0.512995 0.626528,-0.75547 0.609647,-0.62103 1.475102,-0.9971 2.198796,-1.41638 0.173426,-0.06074 0.328155,-0.162947 0.497226,-0.234067 0.09596,-0.04036 0.164902,-0.05434 0.265393,-0.08041 0.168563,-0.0859 0.35497,-0.121963 0.533183,-0.178674 0.04823,-0.01535 0.09427,-0.03691 0.141401,-0.05537 0.05047,-0.01587 0.100933,-0.03174 0.1514,-0.04761 0.2951,-0.06415 0.592995,-0.12174 0.892072,-0.164923 0.290422,-0.01569 0.571156,-0.08951 0.859761,-0.124372 0.309943,-0.05457 0.621572,-0.09216 0.935916,-0.10558 0.346681,-0.0682 0.698288,-0.101261 1.050181,-0.127169 0.286785,-0.01979 0.574247,-0.02215 0.861576,-0.02196 0.380577,0.0021 0.761124,0.0064 1.141712,0.0064 0.373432,-0.0016 0.746881,-0.0016 1.120314,-0.0035 0.352981,-7.94e-4 0.705953,0.0013 1.058931,0.0021 0.548617,-0.0021 1.09618,0.03502 1.644396,0.05255 0.29645,0.02169 0.591712,0.05236 0.886034,0.09357 0.113946,0.01596 0.335225,0.04214 0.4468,0.08474 0.06125,0.02339 0.114416,0.06405 0.171624,0.09608 0,0 -1.461434,0.958945 -1.461434,0.958945 v 0 c -0.04651,-0.02146 -0.09067,-0.04902 -0.139538,-0.06441 -0.08633,-0.0272 -0.343636,-0.06748 -0.427149,-0.0798 -0.286911,-0.04233 -0.575596,-0.07064 -0.865169,-0.08677 -0.555082,-0.01741 -1.110271,-0.04133 -1.665753,-0.03033 -0.354962,7.94e-4 -0.709919,0.003 -1.064882,0.0021 -0.36994,-0.0021 -0.739894,-0.0021 -1.109832,-0.0043 -0.385527,-5.29e-4 -0.77103,0.0024 -1.156541,0.0056 -0.282771,0.003 -0.565729,0.0066 -0.847881,0.02748 -0.353946,0.02831 -0.703765,0.08356 -1.055804,0.127564 -0.310282,0.02371 -0.61835,0.06535 -0.925515,0.115096 -0.288102,0.04551 -0.573688,0.104508 -0.864452,0.131609 -0.291862,0.04939 -0.586912,0.09165 -0.86923,0.183272 -0.277003,0.09491 -0.55694,0.180874 -0.83166,0.282434 -0.256225,0.09352 -0.4977,0.221912 -0.741336,0.343723 2.675168,-1.56065 1.304113,-0.834842 0.786884,-0.365035 -0.224036,0.237032 -0.442126,0.479986 -0.637069,0.741916 -0.184637,0.247676 -0.392218,0.479425 -0.534149,0.756599 0,0 -1.609336,0.736939 -1.609336,0.736939 z"
     inkscape:connector-curvature="0" />
  <path
     style="fill:#000000;stroke-width:0.26458332"
     id="path37"
     d="m 44.35149,81.779321 c 0.0067,-0.309888 0.0079,-0.619147 0.04152,-0.927608 0.02392,-0.250571 0.120801,-0.48454 0.180485,-0.727292 0.0463,-0.222877 0.09255,-0.440981 0.192953,-0.646282 0.138785,-0.220917 0.301575,-0.427419 0.464746,-0.631 0.179559,-0.220165 0.377428,-0.424439 0.576207,-0.627104 0.184692,-0.195276 0.392073,-0.367914 0.610854,-0.523497 0.601099,-0.424836 0.163827,-0.120515 1.710555,-0.999181 0.03399,-0.01931 0.140946,-0.06732 0.107167,-0.04764 -0.467495,0.272402 -1.872102,1.085739 -1.408883,0.80613 1.384753,-0.835869 1.068129,-0.69188 1.743255,-0.987301 0.0388,-0.02318 0.155589,-0.092 0.116398,-0.0695 -0.461396,0.264877 -1.857721,1.036873 -1.383027,0.796642 0.70372,-0.356134 1.323912,-0.834813 2.055641,-1.113985 0.298317,-0.145582 0.609459,-0.254432 0.934317,-0.320802 0.04814,-0.0069 0.09609,-0.01532 0.144413,-0.02077 0.04942,-0.0056 0.09958,-0.0044 0.148685,-0.01233 0.175797,-0.02818 0.346702,-0.09083 0.517837,-0.137943 0.03879,-0.0094 0.07845,-0.01585 0.116353,-0.02836 0.07342,-0.02424 0.141592,-0.06259 0.214622,-0.08799 0.116097,-0.04037 0.235395,-0.0562 0.356312,-0.07467 0.23753,-0.03511 0.478393,-0.01916 0.716296,-0.04438 0.30975,-0.0093 0.609597,-0.08824 0.913707,-0.140881 0.239315,-0.02402 0.476059,-0.05972 0.714311,-0.09174 0.264602,-0.028 0.531469,-0.02506 0.79724,-0.02387 0.384334,0.0019 0.768665,0.0011 1.152988,-0.0021 0.29804,-0.0019 0.59608,-0.0011 0.89412,5.3e-4 0.453488,0.0031 0.90696,0.0069 1.360461,0.007 0.42691,2.65e-4 0.853778,-0.0061 1.280686,-0.0055 0.403376,7.93e-4 0.806736,0.0019 1.210109,0.0013 0.356264,5.29e-4 0.710859,-0.01897 1.064091,0.03356 0.431705,0.145909 0.84396,0.342093 1.271357,0.500911 0.349332,0.137832 0.689436,0.28433 0.995389,0.503947 0.235614,0.181943 0.45317,0.387567 0.653246,0.607737 0.20375,0.218623 0.369948,0.463087 0.533146,0.711859 0.159131,0.237895 0.287541,0.494043 0.4265,0.743815 0.123629,0.258628 0.253463,0.514448 0.388797,0.767165 0.157687,0.240882 0.297606,0.488151 0.391565,0.760719 0.06182,0.218917 0.105037,0.441381 0.130892,0.667187 0.01209,0.20869 0.07695,0.409033 0.114276,0.614029 0.131086,0.671968 0.254053,0.07668 -1.545772,0.92188 -0.0209,0.0098 0.0089,-0.04538 0.01109,-0.06836 0.0036,-0.0372 0.0042,-0.07463 0.0062,-0.111951 0.0081,-0.312264 0.0081,-0.624797 0.006,-0.937159 -0.0094,-0.279027 0.0227,-0.56225 -0.03101,-0.837676 -0.06874,-0.269695 -0.241128,-0.491596 -0.422603,-0.696029 -0.195183,-0.217575 -0.400632,-0.426553 -0.611595,-0.628925 -0.217871,-0.247534 -0.46745,-0.460568 -0.721577,-0.66937 -0.31641,-0.252163 -0.679913,-0.424359 -1.04734,-0.587131 -0.294026,-0.101259 -0.57446,-0.237691 -0.852622,-0.375883 -0.326173,-0.188209 -0.697616,-0.214418 -1.059664,-0.278138 -0.568674,-0.07954 -1.13497,-0.173995 -1.70379,-0.252458 -0.425519,-0.04786 -0.852162,-0.0855 -1.278697,-0.12374 -0.351099,-0.08491 -0.70881,-0.127833 -1.068498,-0.152649 -0.442217,-0.01603 -0.883904,-0.02553 -1.325814,-0.04926 -0.545822,-0.0283 -1.092364,-0.03799 -1.638845,-0.03968 -0.318715,-1.08e-4 -0.637405,0.0031 -0.956117,0.0033 -0.339661,-0.0021 -0.679323,-0.0039 -1.018992,-0.0024 -0.271857,0.01593 -0.550426,-0.02677 -0.818084,0.0287 -0.152726,0.08085 -0.322136,0.122484 -0.480322,0.189548 -0.09035,0.0383 -0.176834,0.08513 -0.265885,0.126349 -0.280654,0.110191 -0.568616,0.204853 -0.832138,0.354026 -0.146013,0.08226 -0.309007,0.127058 -0.46173,0.193198 -0.07541,0.03266 -0.147132,0.07331 -0.221652,0.107961 -0.118793,0.06937 -0.254762,0.08211 -0.383672,0.118356 -0.135742,0.03816 -0.265137,0.103881 -0.390676,0.166267 -0.192673,0.07569 -0.369591,0.184623 -0.557729,0.269541 -0.08616,0.03889 -0.174828,0.072 -0.261244,0.11031 -0.234677,0.07611 -0.445101,0.205137 -0.65714,0.328258 -0.03514,0.01966 -0.07027,0.03931 -0.105405,0.05896 0.467363,-0.268584 0.93291,-0.540353 1.402088,-0.805757 0.03714,-0.02101 -0.07089,0.04755 -0.105606,0.07237 -0.1099,0.07855 -0.211227,0.166026 -0.313042,0.254576 -0.198429,0.161642 -0.352536,0.355436 -0.474252,0.578634 -0.152892,0.25746 -0.276275,0.526872 -0.388972,0.803656 -0.108315,0.239323 -0.19258,0.488076 -0.290989,0.73131 -0.08938,0.221298 -0.135316,0.4561 -0.210563,0.682112 -0.07646,0.20596 -0.112186,0.421058 -0.131752,0.638776 -0.01355,0.204845 -0.01185,0.410228 -0.01236,0.615394 5.29e-4,0.206269 0.0016,0.412538 0.0013,0.618808 0.0052,0.209595 -0.02727,0.417459 -0.04643,0.625668 -0.01677,0.204102 -0.01908,0.408916 -0.02167,0.613561 -0.0013,0.206213 -2.64e-4,0.412429 -7.94e-4,0.618643 5.3e-4,0.136575 5.3e-4,0.06776 1.46e-4,0.206446 0,0 -1.572133,0.801161 -1.572133,0.801161 v 0 c -5.29e-4,-0.138459 -5.29e-4,-0.06965 -1.32e-4,-0.206417 -7.94e-4,-0.20665 -5.3e-4,-0.413306 8.2e-5,-0.619956 5.29e-4,-0.208407 0.0024,-0.417007 0.01598,-0.625041 0.01413,-0.204761 0.04944,-0.407773 0.05283,-0.612799 -7.94e-4,-0.206261 -5.29e-4,-0.412522 -0.0013,-0.618781 -0.0011,-0.209068 -0.0021,-0.418306 0.007,-0.627218 0.01278,-0.230614 0.03965,-0.461375 0.116641,-0.680591 0.02617,-0.0777 0.0603,-0.152749 0.08298,-0.231534 0.04373,-0.151857 0.05879,-0.313214 0.120399,-0.460486 0.102994,-0.244901 0.19105,-0.494678 0.298447,-0.737944 0.0672,-0.146653 0.115697,-0.298371 0.181605,-0.445537 0.118515,-0.264634 0.0058,-0.0113 0.1358,-0.248343 0.02135,-0.03895 0.03787,-0.08036 0.0568,-0.120539 0.127331,-0.234469 0.236733,-0.464683 0.456107,-0.632561 0.598839,-0.596418 1.378717,-0.945972 2.115831,-1.354809 0.213196,-0.12209 0.438121,-0.22012 0.666252,-0.310857 0.274654,-0.119263 0.539459,-0.259566 0.814113,-0.379026 0.256198,-0.10654 0.527745,-0.166296 0.777496,-0.288803 0.224877,-0.104169 0.459388,-0.186984 0.678178,-0.304541 0.274936,-0.123216 0.557389,-0.226229 0.83349,-0.346331 0.251859,-0.113832 0.512008,-0.222978 0.7835,-0.277972 0.273989,-0.01622 0.54859,-0.0021 0.822931,-0.0044 0.342164,0.0016 0.684313,-5.29e-4 1.026464,-0.0031 0.312918,2.65e-4 0.625777,0.0045 0.938604,0.01225 0.545473,0.01294 1.091007,0.02498 1.636157,0.04849 0.447664,0.01675 0.895882,0.01585 1.343062,0.04373 0.361564,0.0311 0.718095,0.08958 1.07528,0.152633 0.420682,0.04669 0.842616,0.08349 1.261351,0.145947 0.570592,0.08987 1.14251,0.169156 1.714727,0.247843 0.391308,0.0584 0.75193,0.112702 1.103556,0.309144 0.279165,0.130858 0.556935,0.264507 0.84374,0.378151 0.373547,0.17958 0.746922,0.361794 1.072161,0.623085 0.260532,0.209823 0.509683,0.431589 0.73705,0.677593 0.212455,0.207664 0.422473,0.418613 0.618955,0.64153 0.197393,0.229142 0.382334,0.475271 0.47016,0.769125 0.01138,0.04514 0.02666,0.08948 0.03414,0.13543 0.03958,0.243157 -0.0131,0.495911 0.008,0.740299 -0.0013,0.311422 2.65e-4,0.622914 0.005,0.934294 0.0011,0.03712 0.0016,0.07427 0.0034,0.11136 0.0013,0.02666 0.02888,0.06613 0.006,0.07984 -1.379955,0.826063 -1.514988,1.442122 -1.611524,0.692938 -0.03253,-0.210272 -0.102193,-0.413155 -0.119766,-0.624655 -0.01815,-0.215426 -0.05694,-0.426529 -0.108966,-0.636367 -0.08012,-0.267862 -0.219348,-0.502127 -0.371626,-0.735262 -0.136321,-0.251605 -0.267896,-0.506274 -0.385982,-0.766976 -0.134538,-0.247243 -0.272746,-0.493133 -0.425019,-0.729917 -0.155297,-0.241647 -0.311669,-0.48065 -0.512998,-0.688173 -0.197601,-0.206293 -0.403744,-0.40607 -0.633672,-0.576488 -0.29651,-0.20134 -0.622046,-0.345352 -0.953844,-0.479253 -0.417158,-0.159845 -0.824277,-0.362278 -1.262581,-0.455805 -0.347247,-0.03106 -0.696124,-0.01881 -1.044424,-0.02209 -0.404593,-5.29e-4 -0.809167,5.29e-4 -1.21376,0.0013 -0.421889,5.29e-4 -0.843738,-0.0058 -1.265627,-0.0055 -0.459938,1.51e-4 -0.919845,0.004 -1.379767,0.0069 -0.298154,0.0013 -0.596305,0.0021 -0.894453,-2.65e-4 -0.382972,-0.0036 -0.765996,-0.0053 -1.148943,0.0016 -0.266335,0.007 -0.533527,0.01119 -0.797488,0.05132 -0.234157,0.0327 -0.469686,0.05304 -0.703043,0.09137 -0.307727,0.05423 -0.614294,0.11657 -0.927497,0.130027 -0.23577,0.01151 -0.47326,0.01394 -0.705647,0.06027 -0.231013,0.0516 -0.446833,0.148 -0.677354,0.202028 -0.267113,0.07374 -0.538514,0.115871 -0.811316,0.161821 -0.316433,0.0813 -0.616286,0.209516 -0.914527,0.341667 -0.194185,0.08534 -0.100473,0.04109 -0.283294,0.133078 -0.04388,0.02207 -0.173951,0.09118 -0.131631,0.06625 2.89791,-1.707663 0.641334,-0.334901 -0.372028,0.200285 -0.03946,0.0213 -0.15717,0.08645 -0.118393,0.06392 0.463614,-0.269338 1.863802,-1.060847 1.392944,-0.804381 -0.54406,0.296342 -1.074433,0.617154 -1.612617,0.924036 -0.03349,0.0191 -0.135604,0.07335 -0.10234,0.05386 0.467193,-0.273677 0.936212,-0.544222 1.404225,-0.816489 0.03566,-0.02074 -0.07144,0.04128 -0.107156,0.06192 -0.03376,0.02577 -0.06751,0.05155 -0.101269,0.07732 -0.03601,0.0222 -0.07369,0.04188 -0.108045,0.06656 -0.14722,0.105767 -0.28175,0.233166 -0.416894,0.353171 -0.191696,0.205409 -0.395121,0.399388 -0.580033,0.611227 -0.158445,0.201107 -0.315486,0.402563 -0.472728,0.604676 -0.134109,0.202359 -0.163499,0.363842 -0.213603,0.597231 -0.04803,0.250454 -0.148379,0.470302 -0.195403,0.718235 -0.04636,0.298008 -0.05541,0.598607 -0.03726,0.899694 0,0 -1.576856,0.803447 -1.576856,0.803447 z"
     inkscape:connector-curvature="0" />
  <path
     style="fill:#000000;stroke-width:0.26458332"
     id="path39"
     d="m 63.788099,80.284877 c -0.745596,-0.122444 -1.49429,-0.225451 -2.241505,-0.339082 -1.100103,-0.159493 -2.198021,-0.330062 -3.288729,-0.545235 -0.830728,-0.168846 -1.652415,-0.377142 -2.491192,-0.503729 -0.629304,-0.08714 -1.265396,-0.09393 -1.89947,-0.101674 -0.771607,-0.0113 -1.5435,-0.08405 -2.310329,-0.169416 -0.619207,-0.07642 -1.240911,-0.127481 -1.864259,-0.151794 -0.277844,-0.01183 -0.553752,-0.01796 -0.829276,0.02019 -0.101105,0.02498 -0.210994,0.0089 -0.312139,0.02986 -0.03211,0.0066 -0.06135,0.02323 -0.09251,0.03342 -0.06849,0.02241 -0.131895,0.03806 -0.201509,0.05641 -0.228558,0.0358 -0.440799,0.128484 -0.663017,0.188576 -0.279861,0.03324 -0.537999,0.135742 -0.800828,0.229164 -0.2727,0.145669 0.03131,-0.01349 -0.243834,0.120682 -0.03839,0.01873 -0.150599,0.08059 -0.113607,0.05925 2.734339,-1.577785 1.679781,-1.038207 1.246476,-0.695513 -0.0091,0.0051 -0.0182,0.02014 -0.02734,0.01516 -0.03001,-0.01638 -0.01749,-0.07158 -0.0037,-0.08916 0.05591,-0.07115 0.192849,-0.09632 0.270851,-0.121606 0.163357,-0.05468 0.33455,-0.111035 0.487408,-0.192794 0.03782,-0.02021 0.07218,-0.04633 0.10827,-0.06949 0.038,-0.02003 0.07599,-0.04007 0.113988,-0.06011 0.208322,-0.06791 0.382251,-0.217463 0.590039,-0.283977 0.05422,-0.01736 0.110659,-0.0268 0.165989,-0.0402 0.437002,-0.147024 0.873432,-0.29559 1.313093,-0.43502 0.400216,-0.100894 0.790638,-0.237403 1.194874,-0.323017 0.389752,-0.07116 0.197374,-0.03284 0.577202,-0.114612 0.429752,-0.10944 0.868762,-0.160028 1.3107,-0.179851 0.515784,-0.01458 1.031926,-0.0056 1.547813,-0.0019 0.870683,0.0019 1.741046,0.01265 2.611421,0.03491 0.937126,0.04598 1.869575,0.149977 2.798464,0.279085 0.368353,0.09252 0.938538,0.04181 1.266251,0.241539 0.0176,0.05407 0.09986,0.130365 0.05276,0.162224 -0.513024,0.347006 -1.073915,0.618328 -1.624917,0.901178 -0.04755,0.0244 -0.106368,0.01058 -0.159637,0.0149 -0.07039,0.0057 -0.14116,0.0071 -0.21132,0.01519 -0.163528,0.01876 -0.325564,0.04886 -0.488545,0.07191 -0.453625,0.06416 -0.910638,0.09784 -1.368099,0.11789 -0.349986,0.0095 -0.700167,0.0073 -1.050256,0.0083 -0.25454,7.94e-4 -0.509087,0.0031 -0.76363,0.0019 -0.251116,-2.65e-4 -0.502229,-7.94e-4 -0.753345,-7.94e-4 -0.290764,0.0021 -0.581528,-0.0016 -0.872268,-0.0048 -0.487201,-2.65e-4 -0.974535,-0.01344 -1.461437,0.0066 -0.397941,0.01812 -0.795271,0.04817 -1.193487,0.05989 -0.175475,0.03644 -0.367647,0.071 -0.538219,0.125412 -0.08687,0.02771 -0.169325,0.0678 -0.255018,0.09895 -0.04669,0.0123 -0.09293,0.02646 -0.140076,0.03691 -0.07744,0.01717 -0.240675,0.04018 -0.315682,0.06022 -0.155554,0.04154 -0.310404,0.10209 -0.463706,0.151805 -0.304705,0.07806 -0.603134,0.17702 -0.905965,0.262604 -0.04529,0.01132 -0.09117,0.02051 -0.13588,0.03396 -0.04494,0.01352 -0.08851,0.03125 -0.13277,0.04687 -0.04605,0.01397 -0.0919,0.02857 -0.138134,0.04191 -0.126394,0.03646 -0.254664,0.06079 -0.381296,0.09625 -0.132623,0.05338 -0.262692,0.113533 -0.400045,0.154414 -0.052,0.01548 -0.106011,0.02376 -0.157723,0.04014 -0.05015,0.0159 -0.09823,0.03772 -0.147342,0.05658 -0.05174,0.01609 -0.103483,0.03218 -0.155225,0.04827 -0.310682,0.117877 -0.625753,0.222049 -0.94447,0.316852 -0.230304,0.11226 -0.472464,0.197342 -0.691822,0.330584 2.665714,-1.519688 1.357093,-0.861552 0.838904,-0.387387 -0.452996,0.463134 -0.20968,0.226975 -1.667362,0.7528 -0.03962,0.01429 0.0024,-0.08581 0.0173,-0.125158 0.04837,-0.126781 0.228073,-0.28832 0.317116,-0.384416 0.715497,-0.794308 1.48036,-1.100622 2.469615,-1.672969 0.370674,-0.206676 0.782858,-0.315385 1.164453,-0.497607 0.270213,-0.138096 0.555252,-0.223768 0.855136,-0.261284 0.19349,-0.01799 0.404921,-0.04493 0.511302,0.15789 0.01815,0.03459 0.02413,0.07431 0.03619,0.111459 -0.0029,0.04357 0.0016,0.08828 -0.0088,0.130715 -0.04932,0.202554 -0.269354,0.351168 -0.42482,0.468323 -0.724242,0.510995 -1.494684,0.943864 -2.32745,1.233881 -0.307946,0.120044 -0.597556,0.275646 -0.914289,0.372814 -0.555948,0.240678 -1.336484,0.730298 1.161418,-0.686406 0.03705,-0.02101 -0.0734,0.04335 -0.108876,0.06693 -0.09557,0.06349 -0.125598,0.09102 -0.214601,0.162705 -0.200141,0.164452 -0.372822,0.360125 -0.519409,0.573154 -0.127659,0.179803 -0.175765,0.387702 -0.223739,0.598125 -0.06739,0.211518 -0.131617,0.423127 -0.189604,0.637429 -0.08466,0.263855 -0.132699,0.537305 -0.176961,0.810281 -0.06105,0.324289 -0.136059,0.643506 -0.290076,0.93681 -0.02617,0.04049 -0.05235,0.08098 -0.07852,0.121465 0,0 -1.610799,0.698735 -1.610799,0.698735 v 0 c 0.02864,-0.03636 0.05728,-0.07273 0.08592,-0.10909 0.07105,-0.104648 0.09821,-0.134586 0.14989,-0.251989 0.08757,-0.198911 0.109524,-0.415375 0.167423,-0.623131 0.04116,-0.277955 0.08539,-0.558226 0.16297,-0.828363 0.03348,-0.108516 0.05246,-0.218138 0.08433,-0.326998 0.0671,-0.229172 -0.0021,0.01228 0.07147,-0.20392 0.01167,-0.03421 0.02035,-0.06937 0.03053,-0.104055 0.07414,-0.212662 0.07269,-0.45099 0.206126,-0.644382 0.13181,-0.233326 0.306192,-0.441571 0.501443,-0.624854 0.629627,-0.562247 1.383131,-0.996926 2.178323,-1.280535 0.306065,-0.111752 0.594786,-0.264819 0.902893,-0.371745 0.154694,-0.06211 0.312243,-0.121584 0.463291,-0.19232 0.04409,-0.02064 0.171961,-0.09122 0.129945,-0.06664 -1.271847,0.744188 -1.872774,1.055467 -1.278171,0.74546 0.183679,-0.115509 0.359775,-0.248377 0.509429,-0.405759 0.0013,-0.0136 0.0078,-0.02767 0.004,-0.04079 -0.02064,-0.07129 -0.341836,-0.01355 -0.400113,-0.0071 -0.283424,0.05487 -0.549807,0.161247 -0.810157,0.284932 -0.387773,0.161949 -0.789768,0.293751 -1.153329,0.508646 2.534515,-1.480177 1.391637,-0.87094 0.941808,-0.515078 -0.161658,0.127889 -0.309073,0.273077 -0.450334,0.42277 -0.162063,0.172289 -0.09199,0.09635 -0.235061,0.253352 -0.02458,0.02698 -0.04393,0.05986 -0.07371,0.08097 -0.0168,0.01191 -0.04154,0.0051 -0.06015,0.01392 -0.537503,0.253902 -1.072311,0.513484 -1.606864,0.773541 -0.02265,0.01101 0.0472,-0.01752 0.07081,-0.02625 0.06705,-0.06073 0.127971,-0.128151 0.196588,-0.187108 0.581329,-0.499486 1.432721,-0.671258 1.965663,-1.196922 0.229783,-0.112898 0.467011,-0.215162 0.709166,-0.297918 0.316248,-0.0975 0.62706,-0.209085 0.939593,-0.317527 0.291505,-0.09879 0.583184,-0.196781 0.874038,-0.296703 0.262901,-0.06309 0.519173,-0.147405 0.779751,-0.219068 0.299643,-0.08999 0.600956,-0.17405 0.900499,-0.264186 0.304858,-0.09629 0.616071,-0.163232 0.921104,-0.257455 0.26578,-0.09286 0.540928,-0.164928 0.823378,-0.17866 0.391385,-0.01281 0.782617,-0.02898 1.173848,-0.04579 0.491704,-0.01156 0.983649,-0.0038 1.475454,-0.0099 0.29518,-0.0033 0.590384,-0.0069 0.885585,-0.0048 0.251798,3.1e-5 0.503594,-5.29e-4 0.755393,-5.29e-4 0.251714,-7.94e-4 0.503417,0.0026 0.755121,0.0043 0.347506,0.0013 0.695102,0.0013 1.042424,-0.01188 0.449357,-0.01844 0.898093,-0.05272 1.342916,-0.121254 0.238847,-0.03561 0.479393,-0.06281 0.717891,-0.10016 0.05521,-0.0087 0.211326,-0.06231 0.164664,-0.03155 -1.417312,0.93427 -1.799511,0.447683 -1.322086,0.967324 -0.104495,-0.05557 -0.238527,-0.07402 -0.352621,-0.09467 -0.270293,-0.04892 -0.543065,-0.08439 -0.813226,-0.134151 -0.91671,-0.138272 -1.838616,-0.24592 -2.765893,-0.277355 -0.880618,-0.01823 -1.761067,-0.01627 -2.641817,-0.0082 -0.521996,0.0031 -1.044353,0.0029 -1.565886,0.02745 -0.430948,0.03008 -0.857816,0.08999 -1.278951,0.188426 -0.594598,0.121222 -1.182518,0.264189 -1.760278,0.451871 -0.446286,0.148284 -0.889963,0.304179 -1.336604,0.451377 -0.255812,0.10051 -0.495927,0.236133 -0.743251,0.355761 -0.231355,0.125992 -0.47624,0.223274 -0.728861,0.298207 -0.151641,0.05012 -0.315299,0.125415 -0.440891,-0.02217 -0.06922,-0.08134 -0.05368,-0.09228 -0.04211,-0.175244 0.04014,-0.05715 0.07659,-0.119261 0.139451,-0.156605 0.638419,-0.379203 1.285902,-0.814689 1.988357,-1.093245 0.264793,-0.09518 0.536649,-0.157429 0.809728,-0.223647 0.221218,-0.07113 0.442998,-0.138662 0.67033,-0.187941 0.204452,-0.05456 0.410718,-0.08187 0.621864,-0.09741 0.275055,-0.01998 0.550473,0.0013 0.825277,0.01778 0.612696,0.04614 1.22392,0.108129 1.833642,0.184205 0.768914,0.07926 1.541669,0.150881 2.315274,0.145971 0.638132,0.0074 1.279167,0.02003 1.910146,0.125423 0.827317,0.144343 1.637842,0.362926 2.459942,0.532767 1.088671,0.217848 2.185392,0.389705 3.285868,0.53643 0.776489,0.105608 1.554052,0.201631 2.331638,0.297569 0,0 -1.453036,1.002247 -1.453036,1.002247 z"
     inkscape:connector-curvature="0" />
  <path
     style="fill:#000000;stroke-width:0.26458332"
     id="path43"
     d="m 49.811627,77.355461 c 0.329896,0.316783 0.674598,0.616868 0.975881,0.96171 0.238059,0.296778 0.442503,0.616855 0.654754,0.931881 0.241628,0.307144 0.467323,0.628269 0.647827,0.975135 0.184116,0.382037 0.439465,0.715494 0.706935,1.041196 0.271976,0.312944 0.568595,0.601607 0.92674,0.813388 0,0 -2.088168,1.342784 -2.088168,1.342784 v 0 c -0.36222,-0.247539 -0.684374,-0.544767 -0.9666,-0.880986 -0.277082,-0.339283 -0.536358,-0.690687 -0.730935,-1.085387 -0.178874,-0.337291 -0.410975,-0.643194 -0.641144,-0.947015 -0.207706,-0.305554 -0.403153,-0.618926 -0.631126,-0.91037 -0.29537,-0.338088 -0.628716,-0.639548 -0.977937,-0.921359 0,0 2.123773,-1.320977 2.123773,-1.320977 z"
     inkscape:connector-curvature="0" />
</svg>
