<?xml version="1.0" encoding="UTF-8" standalone="no"?>
<!-- Created with Inkscape (http://www.inkscape.org/) -->

<svg
   xmlns:dc="http://purl.org/dc/elements/1.1/"
   xmlns:cc="http://creativecommons.org/ns#"
   xmlns:rdf="http://www.w3.org/1999/02/22-rdf-syntax-ns#"
   xmlns:svg="http://www.w3.org/2000/svg"
   xmlns="http://www.w3.org/2000/svg"
   xmlns:sodipodi="http://sodipodi.sourceforge.net/DTD/sodipodi-0.dtd"
   xmlns:inkscape="http://www.inkscape.org/namespaces/inkscape"
   width="99mm"
   height="148mm"
   viewBox="0 0 99 148"
   version="1.1"
   id="svg8"
   sodipodi:docname="icon4.svg"
   inkscape:version="0.92.2 (5c3e80d, 2017-08-06)">
  <defs
     id="defs2">
    <inkscape:perspective
       sodipodi:type="inkscape:persp3d"
       inkscape:vp_x="0 : 74 : 1"
       inkscape:vp_y="0 : 1000 : 0"
       inkscape:vp_z="99 : 74 : 1"
       inkscape:persp3d-origin="49.5 : 49.333333 : 1"
       id="perspective88" />
  </defs>
  <sodipodi:namedview
     id="base"
     pagecolor="#ffffff"
     bordercolor="#666666"
     borderopacity="1.0"
     inkscape:pageopacity="0.0"
     inkscape:pageshadow="2"
     inkscape:zoom="0.67972082"
     inkscape:cx="174.70036"
     inkscape:cy="346.58858"
     inkscape:document-units="mm"
     inkscape:current-layer="svg8"
     showgrid="false"
     inkscape:snap-center="true"
     inkscape:window-width="1920"
     inkscape:window-height="986"
     inkscape:window-x="-11"
     inkscape:window-y="-11"
     inkscape:window-maximized="1"
     showguides="false"
     inkscape:measure-start="0,0"
     inkscape:measure-end="0,0" />
  <metadata
     id="metadata5">
    <rdf:RDF>
      <cc:Work
         rdf:about="">
        <dc:format>image/svg+xml</dc:format>
        <dc:type
           rdf:resource="http://purl.org/dc/dcmitype/StillImage" />
        <dc:title></dc:title>
      </cc:Work>
    </rdf:RDF>
  </metadata>
  <path
     style="fill:none;stroke-width:0.26458332"
     id="path86"
     d="m 12.507669,43.918835 c 0.837595,0.365464 1.692184,0.690068 2.533515,1.04648 2.505114,1.061247 1.885409,0.885534 4.727653,1.928982 3.131325,1.149572 3.796044,1.307327 7.112499,2.339179 8.628631,2.403411 17.530373,3.647024 26.452266,4.281169 1.903706,0.135311 3.811492,0.205299 5.717238,0.307946 7.855416,0.345361 15.674078,-0.519729 23.242693,-2.643862 1.060781,-0.297709 2.10045,-0.66607 3.150677,-0.999103 2.199254,-0.766022 4.326096,-1.709894 6.439373,-2.681926 0,0 -4.050646,3.213034 -4.050646,3.213034 v 0 c -2.070341,0.909807 -4.153442,1.791991 -6.305071,2.497 -3.618823,1.08013 -7.219789,2.017967 -10.963897,2.584331 C 65.521612,56.554816 60.422731,56.687195 55.332714,56.4922 53.43082,56.380824 51.527011,56.298356 49.62703,56.158071 40.620547,55.493081 31.630138,54.287152 22.892075,51.956086 19.289086,50.891217 19.010286,50.854329 15.618204,49.688961 12.21324,48.519169 13.681085,48.983328 10.727022,47.863675 9.6177948,47.443254 9.1204766,47.283065 8.0724512,46.928087 c 0,0 4.4352178,-3.009252 4.4352178,-3.009252 z"
     inkscape:connector-curvature="0" />
  <path
     style="fill:#000000;stroke-width:0.26458332"
     id="path4165"
     d="m 25.355677,50.597334 c -0.668851,1.289764 -1.321023,2.570734 -1.846608,3.927512 -0.568913,1.293765 -1.24649,2.526993 -2.16957,3.599767 -0.931884,0.940644 -2.141509,1.525802 -3.209306,2.297134 -0.645735,0.528381 -1.460896,1.404347 -0.315808,1.900319 0.156682,-0.0132 0.313365,-0.02643 0.470047,-0.03964 0,0 -3.115819,2.236242 -3.115819,2.236242 v 0 c -0.193356,-0.03357 -0.386711,-0.06713 -0.580067,-0.100697 -1.191623,-0.815737 -0.981968,-1.676953 -0.0025,-2.588525 0.547452,-0.418751 1.098718,-0.816769 1.689757,-1.172892 0.240452,-0.144881 0.838091,-0.462796 1.063338,-0.629211 0.171327,-0.12658 0.320173,-0.281051 0.480259,-0.421577 0.953639,-1.025826 1.644273,-2.204379 2.228728,-3.476281 0.273585,-0.700622 0.523594,-1.400577 0.858908,-2.075188 0.116796,-0.234979 0.242508,-0.465418 0.363762,-0.698129 0.118199,-0.204608 0.247728,-0.403075 0.354598,-0.613823 0.08781,-0.173157 0.152255,-0.357203 0.228382,-0.535805 0,0 3.501864,-1.609209 3.501864,-1.609209 z"
     inkscape:connector-curvature="0" />
  <path
     style="fill:#000000;stroke-width:0.26458332"
     id="path4167"
     d="m 26.920417,48.71725 c 1.749338,-0.133845 3.501938,-0.220417 5.255369,-0.27681 1.395192,-0.04607 2.791176,-0.04407 4.186914,-0.04606 1.292778,-7.94e-4 2.585556,2.46e-4 3.878332,-0.0011 1.178284,-4.3e-5 2.356569,0.0011 3.534854,-1.4e-5 1.681869,0.0041 3.363719,0.01241 5.045591,0.0159 2.172499,0.0061 4.344985,0.0019 6.517476,-0.0043 1.513578,-0.0083 3.027161,-0.0084 4.54075,-0.0046 1.706261,-0.0021 3.412514,0.0056 5.118772,0.0034 1.472319,-0.0028 2.944638,-0.0054 4.416957,-0.0087 1.563978,0.05023 1.769028,0.523306 2.66606,1.604629 0.849419,0.922637 1.904844,1.641666 2.911279,2.384521 1.249379,0.769969 2.571888,1.415449 3.820732,2.186641 1.260324,0.694324 2.171689,1.665075 2.705428,2.99303 0.210606,0.613912 0.136586,1.164587 -0.01085,1.774563 0,0 -3.465954,1.636173 -3.465954,1.636173 v 0 c 0.208513,-0.528167 0.299696,-0.980882 0.134294,-1.546585 -0.487061,-1.266333 -1.374412,-2.139307 -2.567736,-2.786491 -1.265962,-0.75913 -2.589085,-1.421178 -3.831286,-2.219177 -1.03651,-0.757915 -2.129411,-1.482778 -2.985891,-2.448737 -0.852324,-1.03083 -1.003451,-1.317149 -2.469976,-1.330714 -1.46432,-0.0033 -2.928641,-0.0059 -4.392961,-0.0087 -1.709399,-0.0021 -3.418793,0.0056 -5.128194,0.0034 -1.509326,0.0037 -3.018653,0.0037 -4.527968,-0.0046 -2.168541,-0.0061 -4.337079,-0.01037 -6.505628,-0.0043 -1.696447,0.0035 -3.392874,0.01183 -5.089321,0.01585 -1.177624,-0.0013 -2.355244,-2.65e-4 -3.532868,-0.0016 -1.289891,-0.0027 -2.57979,-0.0046 -3.869684,-0.0044 -1.389367,0.0019 -2.778903,0.0099 -4.167847,0.04669 -1.759677,0.05683 -3.520724,0.130736 -5.271871,0.320987 0,0 3.08523,-2.288879 3.08523,-2.288879 z"
     inkscape:connector-curvature="0" />
  <path
     style="fill:#000000;stroke-width:0.26458332"
     id="path4173"
     d="m 18.298589,62.343175 c 1.098019,0.799298 2.390708,1.190754 3.708701,1.435571 1.290951,0.198654 2.600869,0.196934 3.903664,0.20229 1.56525,-0.126532 3.130154,-0.252125 4.698395,-0.335204 1.598451,-0.324826 3.194606,-0.661077 4.808659,-0.898961 1.846739,-0.232593 3.709041,-0.287174 5.567955,-0.32789 1.320676,-0.02175 2.641547,-0.01733 3.962339,-0.01664 1.482008,0.0066 2.964014,0.01053 4.446038,0.0122 1.55417,-5.3e-4 3.108332,-1.59e-4 4.6625,-0.0041 1.274636,-0.0013 2.549266,-0.0049 3.823899,-7.93e-4 1.43143,5.29e-4 2.862847,0.0035 4.29428,7.93e-4 1.406326,0.0021 2.812653,-2.38e-4 4.218979,-7.93e-4 1.220981,-0.0016 2.441964,-0.0032 3.662948,-0.0024 1.167418,-2.46e-4 2.334836,-0.0013 3.502255,-1.85e-4 1.215218,0.130601 2.32537,-0.277804 3.465549,-0.624229 1.192562,-0.268152 2.341269,-0.681315 3.499999,-1.071581 1.939874,-1.036293 -1.457815,0.885175 -2.218394,1.268857 -0.164992,0.08323 0.291216,-0.230446 0.414676,-0.367953 0.107633,-0.11988 0.182327,-0.265671 0.273489,-0.398507 0,0 3.505052,-1.560174 3.505052,-1.560174 v 0 c -0.926547,1.887082 -3.125544,2.589731 -4.995182,3.404018 -1.161439,0.381746 -2.316607,0.778867 -3.506275,1.064384 -1.158845,0.355415 -2.310079,0.64607 -3.535957,0.535318 -1.167247,0.0011 -2.334496,6.4e-5 -3.501742,-1.85e-4 -1.218772,7.94e-4 -2.437543,-7.94e-4 -3.656314,-0.0024 -1.405597,-5.29e-4 -2.811193,-0.003 -4.216789,-7.94e-4 -1.432065,-0.0028 -2.86412,6.9e-5 -4.296185,7.94e-4 -1.274027,0.0042 -2.548051,7.94e-4 -3.822081,-5.29e-4 -1.550043,-0.004 -3.100083,-0.0035 -4.650126,-0.0051 -1.489393,5.29e-4 -2.97878,0.0031 -4.46817,0.0031 -1.312862,-0.0045 -2.625846,-0.009 -3.938622,0.01003 -1.84637,0.03556 -3.696731,0.09754 -5.527219,0.360432 -1.622563,0.262112 -3.223506,0.637759 -4.84867,0.881094 -1.573821,0.08295 -3.142532,0.231002 -4.715723,0.319585 -1.318578,-0.01318 -2.645777,-0.01445 -3.946432,-0.261493 -1.359303,-0.293383 -2.673077,-0.750332 -3.823568,-1.553408 0,0 3.248072,-2.064968 3.248072,-2.064968 z"
     inkscape:connector-curvature="0" />
  <path
     style="fill:#000000;stroke-width:0.26458332"
     id="path4195"
     d="m 19.811455,65.881887 c 0.812072,3.29407 1.139723,6.677882 1.701808,10.018773 1.090543,6.11034 2.34432,12.18992 3.600056,18.268074 0.603355,2.672744 0.931944,5.393738 1.367543,8.095256 0.336423,2.08646 0.731092,4.16053 1.050595,6.25003 0.440552,3.11426 0.615717,6.25853 0.716102,9.39974 -0.0039,1.56192 0.256389,3.07353 0.697773,4.56444 0,0 -4.343272,2.37282 -4.343272,2.37282 v 0 c -0.455137,-1.53814 -0.716659,-3.09705 -0.704655,-4.70784 -0.0474,-3.13911 -0.169863,-6.28148 -0.594971,-9.39567 -0.299361,-2.10168 -0.664331,-4.19116 -0.977959,-6.29045 C 21.920031,101.74989 21.61513,99.02578 21.047531,96.34472 19.817902,90.265741 18.537662,84.196895 17.367817,78.106073 17.20822,77.262867 17.037806,76.421638 16.889028,75.576456 16.4573,73.123879 16.216732,70.61836 15.407555,68.248471 c 0,0 4.4039,-2.366584 4.4039,-2.366584 z"
     inkscape:connector-curvature="0" />
  <path
     style="fill:#000000;stroke-width:0.26458332"
     id="path4197"
     d="m 79.683403,62.522827 c -0.218364,4.147492 -0.830001,8.261077 -1.418789,12.368762 -0.83762,5.915398 -1.974971,11.778237 -3.120657,17.639708 -1.076939,5.667459 -2.562884,11.241603 -4.092398,16.799513 -0.927539,3.25831 -1.708065,6.56002 -2.132242,9.92315 -0.107784,1.14247 -0.03533,0.58986 -0.210791,1.65867 0,0 -4.452472,2.16399 -4.452472,2.16399 v 0 c 0.227505,-1.04233 0.136485,-0.49264 0.256818,-1.65169 0.493768,-3.41653 1.339453,-6.76669 2.303137,-10.07914 0.490334,-1.73586 1.021352,-3.46041 1.486082,-5.2033 1.020877,-3.82862 1.876219,-7.707292 2.672464,-11.587366 1.147456,-5.847586 2.292607,-11.696721 3.102808,-17.603057 0.554109,-4.03374 1.159219,-8.084916 1.161905,-12.164841 0,0 4.444135,-2.264399 4.444135,-2.264399 z"
     inkscape:connector-curvature="0" />
  <path
     style="fill:#000000;stroke-width:0.26458332"
     id="path4199"
     d="m 28.637558,122.40286 c 2.666746,1.47638 5.69415,2.24121 8.633714,2.97994 4.217894,0.81017 8.443235,1.58764 12.711567,2.07902 2.951446,0.19373 5.935961,0.55909 8.899461,0.37558 0.494282,-0.0306 0.984571,-0.10781 1.476854,-0.16172 2.238508,-0.28301 4.368467,-0.95962 6.361555,-2.00561 -6.866885,4.22144 -3.057009,1.78157 -1.64278,0.59613 0,0 4.583621,-1.85941 4.583621,-1.85941 v 0 c -2.054217,1.82613 -4.206407,3.13207 -6.797196,4.3465 -2.029548,0.95372 -4.161288,1.58436 -6.401237,1.80978 -3.458199,0.27855 -6.931607,-0.008 -10.37804,-0.33949 -4.274071,-0.528 -8.508849,-1.32311 -12.736523,-2.13557 -3.025103,-0.75815 -6.115823,-1.52737 -8.89499,-2.97802 0,0 4.183994,-2.70713 4.183994,-2.70713 z"
     inkscape:connector-curvature="0" />
  <path
     style="fill:#000000;stroke-width:0.26458332"
     id="path4201"
     d="m 65.553608,23.700813 c -0.888958,3.422786 -1.7487,6.853177 -2.668953,10.267694 -0.910839,3.268385 -1.705938,6.57067 -2.76062,9.797005 -0.334444,1.097174 -0.729004,2.171046 -1.151438,3.236547 0,0 -4.453604,2.056696 -4.453604,2.056696 v 0 c 0.441534,-1.059399 0.853313,-2.128266 1.199489,-3.223572 1.089996,-3.233557 1.969286,-6.530229 2.872869,-9.819637 0.907074,-3.365931 1.765713,-6.749793 2.472132,-10.163774 0,0 4.490125,-2.150959 4.490125,-2.150959 z"
     inkscape:connector-curvature="0" />
  <path
     style="fill:#000000;stroke-width:0.26458332"
     id="path4203"
     d="m 67.466759,23.029296 c 1.16367,0.958313 2.672078,1.274673 3.923181,2.063609 1.161823,1.007304 0.366014,2.300145 -0.183763,3.422108 -0.792253,1.232107 -1.43904,2.536116 -2.038096,3.869664 -0.696532,1.262451 -1.061916,2.658438 -1.63095,3.97406 -0.553419,1.26995 -1.07891,2.554338 -1.458593,3.887806 -0.309583,1.204547 -0.350509,2.451158 -0.510114,3.679428 -0.100499,1.236562 -0.610896,2.379062 -0.981662,3.548584 -0.04975,0.192402 -0.09951,0.384807 -0.149259,0.577209 0,0 -4.484055,2.153092 -4.484055,2.153092 v 0 c 0.04497,-0.201763 0.08994,-0.403524 0.134908,-0.605284 0.346715,-1.155177 0.887661,-2.267654 1.01586,-3.474241 0.176358,-1.248294 0.221355,-2.511373 0.493149,-3.745302 0.362286,-1.357807 0.870966,-2.66746 1.427271,-3.956304 0.604768,-1.306541 0.938133,-2.711529 1.639662,-3.977431 0.592992,-1.339059 1.172615,-2.685809 2.023459,-3.889229 0.577625,-1.109075 0.09212,-0.147008 0.606476,-1.250328 0.279765,-0.600112 0.538117,-1.039789 -0.07801,-1.518108 -1.264729,-0.745281 -2.712693,-1.158753 -3.927514,-2.010322 0,0 4.178053,-2.749011 4.178053,-2.749011 z"
     inkscape:connector-curvature="0" />
  <path
     style="fill:#000000;stroke-width:0.26458332"
     id="path4205"
     d="m 21.805229,15.529034 c 1.068927,-0.3895 2.679276,-0.143735 3.61348,0.506243 0.206133,0.143417 0.366817,0.343047 0.550225,0.514571 0.877657,1.126136 1.060677,2.500967 1.16125,3.879028 0.124775,1.436741 -0.06652,2.836652 -0.467183,4.213985 -0.50849,1.472538 -0.812845,2.995807 -0.98511,4.540567 -0.209143,1.760966 0.08917,2.439209 0.988211,3.931523 0.837579,1.216289 1.764467,2.343144 2.964366,3.210467 0,0 -4.184118,2.644233 -4.184118,2.644233 v 0 c -1.204689,-0.94878 -2.172976,-2.118739 -3.042965,-3.379351 -0.965502,-1.557634 -1.387886,-2.331683 -1.170444,-4.200652 0.157271,-1.575075 0.457403,-3.129921 0.957161,-4.634995 0.435915,-1.313583 0.629046,-2.653884 0.523859,-4.04067 -0.06486,-1.246203 -0.165609,-2.525433 -0.962458,-3.547016 -0.156502,-0.132221 -0.295064,-0.289215 -0.469507,-0.396663 -1.023201,-0.630233 -2.340571,-0.59617 -3.416949,-0.1567 0,0 3.940182,-3.08457 3.940182,-3.08457 z"
     inkscape:connector-curvature="0" />
  <path
     style="fill:#000000;stroke-width:0.26458332"
     id="path4209"
     d="m 37.713306,23.303125 c 1.10282,-0.258122 2.347092,-0.22841 3.27956,0.500167 0.195583,0.152818 0.350579,0.351454 0.52587,0.527181 0.928008,1.177833 1.058429,2.691714 1.165299,4.13459 0.108961,1.372624 -0.344474,2.591435 -0.835482,3.83917 -0.426845,1.187778 -1.018953,2.304394 -1.429655,3.497373 -0.05226,0.205875 -0.104513,0.411748 -0.156771,0.617623 0,0 -4.475104,2.156833 -4.475104,2.156833 v 0 c 0.04336,-0.219229 0.08673,-0.438457 0.130087,-0.657686 0.380593,-1.21657 0.975781,-2.332323 1.420845,-3.52475 0.226824,-0.577887 0.538231,-1.163674 0.717761,-1.756608 0.184454,-0.609187 0.170281,-1.263052 0.219766,-1.8899 -0.07171,-1.319792 -0.137057,-2.733024 -0.984324,-3.814967 -0.151345,-0.138779 -0.284033,-0.301169 -0.454039,-0.416332 -0.904202,-0.612515 -2.093023,-0.468935 -3.054529,-0.106189 0,0 3.930716,-3.106505 3.930716,-3.106505 z"
     inkscape:connector-curvature="0" />
</svg>
